<svg width="24" height="24" viewBox="0 0 24 24" fill="none" xmlns="http://www.w3.org/2000/svg">
<path d="M21.994 0.000486137C21.9003 0.00249402 21.8066 0.0105261 21.713 0.0245822C21.4625 0.0647424 21.2185 0.151086 20.992 0.285623L13.6512 4.64702H1.95173C0.880019 4.64702 0 5.45825 0 6.4462C0 7.43414 0.880019 8.24537 1.95173 8.24537H9.47981V21.6107C9.47981 22.4561 10.2357 23.1528 11.1527 23.1528C12.0698 23.1528 12.8256 22.4561 12.8256 21.6107V14.91L14.7882 13.7815C14.9494 13.6891 15.0475 13.5264 15.0496 13.3517V13.7373L22.7476 11.7875C22.8674 11.7574 22.9742 11.6911 23.0482 11.5987C23.5754 11.3397 23.9784 10.8879 23.9784 10.3016C23.9784 9.4562 23.2225 8.75942 22.3054 8.75942C22.1965 8.75942 22.1138 8.7795 22.0244 8.79757C21.97 8.79557 21.9155 8.80159 21.8633 8.81565L15.054 10.5365L15.0562 8.09276L23.107 3.30969C24.0089 2.77555 24.2724 1.65107 23.6908 0.821762C23.3118 0.277591 22.6561 -0.0135701 21.994 0.000486137ZM22.0702 1.02256C22.1225 1.02256 22.1769 1.02859 22.227 1.04063C22.4361 1.08079 22.6278 1.19726 22.7542 1.37798C23.009 1.74344 22.8979 2.2113 22.5037 2.44624L14.1958 7.37992C14.0367 7.4743 13.9409 7.63694 13.9409 7.81164L13.9387 11.2112C13.9365 11.3718 14.0193 11.5224 14.1566 11.6208C14.296 11.7172 14.4746 11.7493 14.6445 11.7072L22.092 9.82166C22.1138 9.81965 22.1355 9.81564 22.1573 9.80961C22.2248 9.79355 22.2706 9.78752 22.3054 9.78752C22.6213 9.78752 22.8631 10.0104 22.8631 10.3016C22.8631 10.5425 22.6888 10.7333 22.4514 10.7935C22.1595 10.8678 21.9852 11.1429 22.0593 11.414L21.9286 10.9301L14.3461 12.8477C14.1043 12.91 13.9365 13.1108 13.9344 13.3437V13.0606L11.9718 14.1891C11.8106 14.2835 11.7104 14.4481 11.7104 14.6248V21.6107C11.7104 21.9018 11.4686 22.1247 11.1527 22.1247C10.8369 22.1247 10.5951 21.9018 10.5951 21.6107V7.73132C10.5951 7.44819 10.3446 7.21727 10.0375 7.21727H1.95173C1.4834 7.21727 1.11527 6.87792 1.11527 6.4462C1.11527 6.01447 1.4834 5.67512 1.95173 5.67512H13.8124C13.9213 5.67512 14.0259 5.64701 14.1152 5.59279L21.5975 1.14907C21.7456 1.06072 21.909 1.02055 22.0702 1.02256ZM17.0079 13.8999C15.3197 13.8999 13.9409 15.171 13.9409 16.7272C13.9409 18.2834 15.3197 19.5545 17.0079 19.5545C18.6961 19.5545 20.0749 18.2834 20.0749 16.7272C20.0749 15.171 18.6961 13.8999 17.0079 13.8999ZM17.0079 14.928C18.0927 14.928 18.9596 15.7272 18.9596 16.7272C18.9596 17.7272 18.0927 18.5264 17.0079 18.5264C15.9231 18.5264 15.0562 17.7272 15.0562 16.7272C15.0562 15.7272 15.9231 14.928 17.0079 14.928Z" fill="#5B5B5B"/>
</svg>
