<svg width="24" height="24" viewBox="0 0 24 24" fill="none" xmlns="http://www.w3.org/2000/svg">
<path d="M5.61208 0.000271019C5.27813 0.000271019 5.00671 0.348683 5.00671 0.746867V8.51127C5.00671 8.71037 4.83974 8.81011 4.69364 8.71056C4.1301 8.31237 3.44125 8.13807 2.73161 8.23762C1.29146 8.4616 0.164387 9.85544 0.0182846 11.5477C-0.190433 13.8871 1.41669 15.8281 3.35776 15.6788C5.00663 15.5295 6.25902 13.8122 6.25902 11.8462V1.6179C6.98953 1.91653 7.51132 2.73789 7.51132 3.70846C7.51132 4.0071 7.65751 4.30545 7.90797 4.40499C8.34627 4.62897 8.76363 4.23098 8.76363 3.73325C8.76363 1.66767 7.34443 -0.0246155 5.61208 0.000271019ZM21.2206 3.04741C21.0478 3.05208 20.8743 3.07376 20.7021 3.11109L14.5034 4.57949C13.2302 4.90302 12.3118 6.22171 12.3118 7.76468V15.9772C12.3118 16.1763 12.1448 16.2761 11.9987 16.1765C11.4352 15.7783 10.7464 15.604 10.0367 15.7036C8.61744 15.9276 7.4695 17.2965 7.3234 19.0137C7.11468 21.353 8.7218 23.2941 10.6629 23.1448C12.3117 22.9954 13.5641 21.303 13.5641 19.3369V11.3236L22.7477 9.13344V13.4886C22.7477 13.6877 22.5807 13.7874 22.4346 13.6879C21.8711 13.2897 21.1822 13.1154 20.4726 13.2149C19.0533 13.4389 17.9054 14.8079 17.7593 16.525C17.5506 18.8644 19.1577 20.8054 21.0987 20.6561C22.7476 20.5068 24 18.8143 24 16.8483V6.27148C24 5.15159 23.5201 4.10645 22.7061 3.50918C22.2522 3.17321 21.7392 3.03342 21.2206 3.04741ZM21.3217 4.52165C21.6456 4.53098 21.9547 4.66669 22.2051 4.928C22.5391 5.25152 22.7477 5.74887 22.7477 6.27148V7.59067L13.5641 9.78088V7.76468C13.5641 6.94342 14.065 6.2221 14.7329 6.04789L20.9944 4.5547C21.104 4.52982 21.2138 4.51854 21.3217 4.52165ZM3.12826 9.70602C4.17184 9.70602 5.00671 10.7015 5.00671 11.9458C5.00671 13.1901 4.17184 14.1856 3.12826 14.1856C2.08467 14.1856 1.2498 13.1901 1.2498 11.9458C1.2498 10.7015 2.08467 9.70602 3.12826 9.70602ZM20.8692 14.6833C21.9128 14.6833 22.7477 15.6788 22.7477 16.9231C22.7477 18.1674 21.9128 19.1629 20.8692 19.1629C19.8257 19.1629 18.9908 18.1674 18.9908 16.9231C18.9908 15.6788 19.8257 14.6833 20.8692 14.6833ZM10.4334 17.172C11.477 17.172 12.3118 18.1674 12.3118 19.4118C12.3118 20.6561 11.477 21.6516 10.4334 21.6516C9.38978 21.6516 8.55491 20.6561 8.55491 19.4118C8.55491 18.1674 9.38978 17.172 10.4334 17.172Z" fill="#5B5B5B"/>
</svg>
