<svg width="24" height="24" viewBox="0 0 24 24" fill="none" xmlns="http://www.w3.org/2000/svg">
<path d="M10.125 0C9.91846 0 9.75 0.15295 9.75 0.340479C9.75 0.528009 9.91846 0.680958 10.125 0.680958C10.3315 0.680958 10.5 0.528009 10.5 0.340479C10.5 0.15295 10.3315 0 10.125 0ZM11.25 0.680958C11.0435 0.680958 10.875 0.833908 10.875 1.02144C10.875 1.20897 11.0435 1.36192 11.25 1.36192C11.4565 1.36192 11.625 1.20897 11.625 1.02144C11.625 0.833908 11.4565 0.680958 11.25 0.680958ZM7.5 1.36192C7.29346 1.36192 7.125 1.51487 7.125 1.7024C7.125 1.88993 7.29346 2.04288 7.5 2.04288C7.70654 2.04288 7.875 1.88993 7.875 1.7024C7.875 1.51487 7.70654 1.36192 7.5 1.36192ZM9 1.7024C8.79346 1.7024 8.625 1.85535 8.625 2.04288C8.625 2.2304 8.79346 2.38335 9 2.38335C9.20654 2.38335 9.375 2.2304 9.375 2.04288C9.375 1.85535 9.20654 1.7024 9 1.7024ZM12 1.7024C11.7935 1.7024 11.625 1.85535 11.625 2.04288C11.625 2.2304 11.7935 2.38335 12 2.38335C12.2065 2.38335 12.375 2.2304 12.375 2.04288C12.375 1.85535 12.2065 1.7024 12 1.7024ZM10.125 2.38335C9.91846 2.38335 9.75 2.5363 9.75 2.72383C9.75 2.91136 9.91846 3.06431 10.125 3.06431C10.3315 3.06431 10.5 2.91136 10.5 2.72383C10.5 2.5363 10.3315 2.38335 10.125 2.38335ZM12.375 3.06431C12.1685 3.06431 12 3.21726 12 3.40479C11.6807 3.40479 11.3643 3.41942 11.0508 3.44602C10.9966 3.41942 10.9365 3.40479 10.875 3.40479C10.7842 3.40479 10.6978 3.43405 10.6289 3.48858C5.48145 4.10038 1.5 8.09968 1.5 12.9382V12.9475C0.679688 12.9701 0 13.5593 0 14.3001C0 14.6034 0.111328 14.9212 0.210938 15.2271C0.260742 15.3801 0.309082 15.5251 0.342774 15.6394C0.376465 15.7538 0.391113 15.8576 0.391113 15.8323C0.391113 16.4946 1.00928 17.024 1.7417 17.024H2.46533C4.11768 20.4926 7.74316 23.1526 12 23.1526C16.2568 23.1526 19.8823 20.4926 21.5347 17.024H22.2583C22.9907 17.024 23.6089 16.4946 23.6089 15.8323C23.6089 15.8576 23.6235 15.7538 23.6572 15.6394C23.6909 15.5251 23.7393 15.3801 23.7891 15.2271C23.8887 14.9212 24 14.6034 24 14.3001C24 13.5593 23.3203 12.9701 22.5 12.9475C22.5 12.9435 22.5 12.9409 22.5 12.9382C22.5 7.9055 18.1934 3.78118 12.7485 3.43139C12.75 3.42341 12.75 3.4141 12.75 3.40479C12.75 3.21726 12.5815 3.06431 12.375 3.06431ZM12 4.08575C17.3892 4.08575 21.75 8.04515 21.75 12.9382C21.75 13.0752 21.7456 13.2135 21.7383 13.3545L21.7134 13.8692L22.2437 13.6883C22.3198 13.6631 22.3857 13.6418 22.4312 13.6298C22.4502 13.6245 22.4663 13.6232 22.4766 13.6205C22.9175 13.6325 23.25 13.9344 23.25 14.3001C23.25 14.4079 23.1665 14.7377 23.0698 15.0356C23.0215 15.1846 22.9731 15.3309 22.9336 15.4612C22.894 15.5916 22.8589 15.6886 22.8589 15.8323C22.8589 16.1103 22.6025 16.343 22.2583 16.343H21.0483L20.9531 16.5558C19.4517 19.9034 15.9932 22.4716 12 22.4716C8.00684 22.4716 4.54834 19.9034 3.04688 16.5558L2.95166 16.343H1.7417C1.39746 16.343 1.14111 16.1103 1.14111 15.8323C1.14111 15.6886 1.10596 15.5916 1.06641 15.4612C1.02686 15.3309 0.978516 15.1846 0.930176 15.0356C0.833496 14.7377 0.75 14.4079 0.75 14.3001C0.75 13.9344 1.08252 13.6325 1.52344 13.6205C1.53369 13.6232 1.5498 13.6245 1.56885 13.6298C1.61426 13.6418 1.68018 13.6631 1.75635 13.6883L2.28662 13.8692L2.26172 13.3545C2.25439 13.2135 2.25 13.0752 2.25 12.9382C2.25 8.04515 6.61084 4.08575 12 4.08575ZM8.0625 12.9382C7.54541 12.9382 7.125 13.3199 7.125 13.7894C7.125 14.2589 7.54541 14.6406 8.0625 14.6406C8.57959 14.6406 9 14.2589 9 13.7894C9 13.3199 8.57959 12.9382 8.0625 12.9382ZM15.9375 12.9382C15.4204 12.9382 15 13.3199 15 13.7894C15 14.2589 15.4204 14.6406 15.9375 14.6406C16.4546 14.6406 16.875 14.2589 16.875 13.7894C16.875 13.3199 16.4546 12.9382 15.9375 12.9382ZM9.75 16.0025C8.51221 16.0025 7.5 16.9216 7.5 18.0454C7.5 19.6347 9.23145 21.1097 12 21.1097C14.7686 21.1097 16.5 19.6347 16.5 18.0454C16.5 16.9216 15.4878 16.0025 14.25 16.0025C13.3755 16.0025 12.6255 16.343 12 16.343C11.3745 16.343 10.6245 16.0025 9.75 16.0025ZM9.75 16.6835C10.3755 16.6835 11.1255 17.024 12 17.024C12.8745 17.024 13.6245 16.6835 14.25 16.6835C15.082 16.6835 15.75 17.29 15.75 18.0454C15.75 19.1799 14.4814 20.4288 12 20.4288C9.51855 20.4288 8.25 19.1799 8.25 18.0454C8.25 17.29 8.91797 16.6835 9.75 16.6835ZM12 17.7049C11.3789 17.7049 10.875 18.1624 10.875 18.7264C10.875 19.2903 11.3789 19.7478 12 19.7478C12.6211 19.7478 13.125 19.2903 13.125 18.7264C13.125 18.1624 12.6211 17.7049 12 17.7049Z" fill="#5B5B5B"/>
</svg>
