<svg width="24" height="24" viewBox="0 0 24 24" fill="none" xmlns="http://www.w3.org/2000/svg">
<path d="M18.9194 1.91479e-05C18.8992 0.000339645 18.8792 0.00470297 18.8607 0.0128604C18.8421 0.0210178 18.8254 0.0328095 18.8113 0.047562C18.7972 0.0623144 18.7862 0.0797385 18.7787 0.0988399C18.7713 0.117941 18.7676 0.138346 18.7679 0.158888V1.41029C18.7677 1.43101 18.7714 1.45159 18.779 1.47083C18.7866 1.49006 18.7979 1.50757 18.8122 1.52233C18.8265 1.53709 18.8436 1.54882 18.8624 1.55682C18.8812 1.56482 18.9014 1.56894 18.9218 1.56894C18.9421 1.56894 18.9623 1.56482 18.9811 1.55682C18.9999 1.54882 19.017 1.53709 19.0313 1.52233C19.0456 1.50757 19.0569 1.49006 19.0645 1.47083C19.0721 1.45159 19.0759 1.43101 19.0756 1.41029V0.158888C19.0759 0.137934 19.0721 0.117129 19.0643 0.0977055C19.0566 0.0782826 19.0451 0.0606383 19.0305 0.0458201C19.016 0.031002 18.9986 0.0193122 18.9795 0.0114444C18.9604 0.00357659 18.94 -0.000308705 18.9194 1.91479e-05ZM4.61653 0.00246299C3.14066 0.00246299 1.92949 1.07547 1.63447 2.48998C0.67459 2.95548 0.00193692 3.93585 0.00193692 5.08627C0.00193692 5.782 0.272534 6.40136 0.6761 6.90043C0.455209 7.31795 0.309576 7.78549 0.309576 8.29297C0.309576 9.7727 1.38531 10.9879 2.78151 11.2113C2.96615 11.3643 3.1689 11.4961 3.38597 11.6023V14.1173C1.22804 14.8306 0.0632244 16.3959 0.0632244 16.3959C0.0233985 16.45 0.00189581 16.5159 0.00193692 16.5835V20.1605C-0.000645638 20.1769 -0.000645638 20.1936 0.00193692 20.21V20.6505C0.00193692 22.0291 1.10746 23.1533 2.46305 23.1533H12.6152H21.8443C23.0301 23.1533 23.9978 22.1692 23.9978 20.9634V16.281C23.9979 16.2776 23.9979 16.2741 23.9978 16.2706V16.2657C23.9974 16.2483 23.9956 16.2309 23.9924 16.2138C23.9915 16.2087 23.9905 16.2036 23.9894 16.1985C23.9878 16.1918 23.986 16.185 23.984 16.1784C23.982 16.1718 23.9798 16.1653 23.9774 16.1588L23.9762 16.1564C23.9728 16.1474 23.969 16.1387 23.9648 16.1301C23.9632 16.127 23.9616 16.124 23.96 16.1209C23.9568 16.1147 23.9533 16.1086 23.9497 16.1026C23.948 16.0997 23.9462 16.0969 23.9443 16.094C23.9428 16.092 23.9412 16.09 23.9395 16.0879C23.9352 16.0814 23.9305 16.0751 23.9257 16.069L23.9239 16.0672C23.9239 16.0672 23.91 16.0521 23.9083 16.0501L23.9047 16.0464C23.8559 15.9904 23.3676 15.4436 22.4176 14.9025C21.4165 14.3325 19.8999 13.7678 17.845 13.7678C14.074 13.7678 11.565 15.5253 10.9069 16.0421C10.5592 15.7746 10.2066 15.5157 9.8464 15.2704V12.5519C10.0064 12.4489 10.151 12.3219 10.2766 12.1785C11.5724 12.1097 12.6152 11.0352 12.6152 9.7008C12.6152 9.19647 12.4445 8.7403 12.1915 8.34735C12.4442 7.97099 12.6152 7.53061 12.6152 7.04158C12.6152 6.12485 12.0857 5.34328 11.3281 4.95795C11.1505 3.75447 10.1545 2.81811 8.92348 2.81811C8.68615 2.81811 8.45815 2.85524 8.24271 2.91893C8.04838 2.74917 7.83267 2.6035 7.59859 2.48998C7.30356 1.07547 6.0924 0.00246299 4.61653 0.00246299ZM4.61653 0.628162C5.79522 0.628162 6.77052 1.46716 7.01395 2.58836C6.81254 2.53591 6.60276 2.50526 6.38545 2.50526C6.12912 2.50526 5.88186 2.54457 5.6488 2.61647C5.62897 2.62197 5.61043 2.63145 5.59426 2.64436C5.5781 2.65727 5.56464 2.67334 5.55469 2.69162C5.54473 2.70991 5.53848 2.73004 5.5363 2.75082C5.53413 2.7716 5.53607 2.79262 5.54201 2.81263C5.54795 2.83264 5.55778 2.85123 5.5709 2.86731C5.58403 2.8834 5.60019 2.89664 5.61844 2.90627C5.63668 2.91589 5.65664 2.9217 5.67713 2.92335C5.69762 2.925 5.71822 2.92246 5.73773 2.91587C5.94275 2.85262 6.16003 2.81811 6.38545 2.81811C6.68228 2.81811 6.96483 2.87769 7.22365 2.98431C7.22624 2.98557 7.22944 2.9874 7.23206 2.98859C7.33162 3.0302 7.42752 3.07948 7.51927 3.13462C7.5233 3.13704 7.52728 3.13951 7.53129 3.14196C7.71079 3.2514 7.87347 3.38582 8.01558 3.54035C8.02332 3.54879 8.0308 3.55746 8.03841 3.56601C8.17446 3.71853 8.2901 3.89004 8.38151 4.07623C8.38812 4.08974 8.39438 4.1035 8.40073 4.11717C8.44245 4.20663 8.47942 4.29845 8.50949 4.39396C8.51098 4.39872 8.51283 4.40325 8.51429 4.40802C8.54399 4.50457 8.56533 4.60508 8.58219 4.70681C8.58565 4.7277 8.58891 4.74867 8.59181 4.76975C8.60605 4.87339 8.61584 4.97849 8.61584 5.08627C8.61584 5.69914 8.37725 6.25068 7.98975 6.65907C7.94196 6.70951 7.91219 6.7748 7.90522 6.84448C7.89825 6.91417 7.91447 6.98421 7.95129 7.04341C8.17671 7.40664 8.3082 7.83273 8.3082 8.29297C8.3082 9.49376 7.42635 10.4761 6.28631 10.6192C6.22584 10.6268 6.16895 10.6526 6.12288 10.6931C5.71793 11.0493 5.19425 11.265 4.61653 11.265C4.0388 11.265 3.51513 11.0493 3.11018 10.6931C3.0641 10.6526 3.00722 10.6268 2.94674 10.6192C1.80671 10.4761 0.924855 9.49376 0.924855 8.29297C0.924855 8.18787 0.933821 8.08498 0.947087 7.98379C0.949174 7.96771 0.95069 7.95149 0.953095 7.93552C0.968157 7.83654 0.988658 7.73971 1.01558 7.64528C1.01837 7.63542 1.02169 7.62575 1.0246 7.61595C1.07984 7.43144 1.15892 7.25768 1.25473 7.09474C1.5624 6.57236 2.06039 6.17954 2.65533 6.02359C2.69198 6.01466 2.72413 5.99235 2.74568 5.96091C2.76723 5.92946 2.77668 5.89106 2.77223 5.853C2.76779 5.81494 2.74975 5.77987 2.72156 5.75443C2.69336 5.72899 2.65697 5.71497 2.61928 5.71502C2.60547 5.71498 2.59173 5.71683 2.57842 5.72052C2.03065 5.8641 1.55321 6.18419 1.20606 6.6163C0.841342 6.21242 0.617216 5.67855 0.617216 5.08627C0.617216 4.13585 1.18987 3.32765 2.00099 2.98859C2.05 2.96804 2.09295 2.93497 2.12569 2.89257C2.15843 2.85018 2.17985 2.7999 2.18786 2.74662C2.36974 1.54673 3.38283 0.628162 4.61653 0.628162ZM16.4534 0.671545C16.4268 0.672592 16.4008 0.680676 16.3782 0.695001C16.3555 0.709327 16.3369 0.729403 16.3242 0.753256C16.3114 0.77711 16.305 0.80392 16.3056 0.831053C16.3061 0.858186 16.3136 0.884709 16.3273 0.908015L16.9425 1.99138C16.9629 2.02736 16.9965 2.05362 17.036 2.06439C17.0754 2.07516 17.1175 2.06956 17.1528 2.04882C17.1882 2.02807 17.214 1.99389 17.2246 1.95378C17.2352 1.91367 17.2297 1.87093 17.2093 1.83495L16.594 0.751591C16.5802 0.726333 16.5597 0.705481 16.5349 0.69135C16.51 0.677219 16.4819 0.670364 16.4534 0.671545ZM21.3853 0.671545C21.3577 0.671263 21.3305 0.678547 21.3066 0.692631C21.2827 0.706716 21.263 0.727081 21.2495 0.751591L20.6342 1.83495C20.6138 1.87093 20.6083 1.91367 20.6189 1.95378C20.6295 1.99389 20.6553 2.02807 20.6907 2.04882C20.7261 2.06956 20.7681 2.07516 20.8075 2.06439C20.847 2.05362 20.8806 2.02736 20.901 1.99138L21.5163 0.908015C21.5301 0.884355 21.5376 0.857396 21.5379 0.829861C21.5382 0.802327 21.5314 0.775192 21.5181 0.7512C21.5048 0.727209 21.4855 0.707209 21.4622 0.693223C21.4389 0.679236 21.4124 0.671759 21.3853 0.671545ZM18.9218 2.19241C17.3113 2.19241 15.9992 3.52676 15.9992 5.16448C15.9992 6.8022 17.3113 8.13655 18.9218 8.13655C20.5322 8.13655 21.8443 6.8022 21.8443 5.16448C21.8443 3.52676 20.5322 2.19241 18.9218 2.19241ZM14.6473 2.50404C14.6139 2.50605 14.5822 2.51903 14.5568 2.541C14.5313 2.56297 14.5136 2.59276 14.5063 2.62586C14.499 2.65896 14.5024 2.69359 14.5162 2.72452C14.5299 2.75545 14.5531 2.781 14.5824 2.79733L15.6477 3.42303C15.6831 3.44377 15.7251 3.44938 15.7645 3.43861C15.804 3.42783 15.8376 3.40157 15.858 3.36559C15.8784 3.32962 15.8839 3.28687 15.8733 3.24677C15.8627 3.20666 15.8369 3.17248 15.8015 3.15173L14.7362 2.52603C14.714 2.51255 14.6887 2.50498 14.6629 2.50404C14.6577 2.50377 14.6525 2.50377 14.6473 2.50404ZM23.1758 2.50404C23.1516 2.50577 23.1281 2.51331 23.1073 2.52603L22.042 3.15173C22.0245 3.162 22.0091 3.17568 21.9968 3.19199C21.9845 3.20829 21.9755 3.22691 21.9702 3.24677C21.965 3.26663 21.9636 3.28734 21.9663 3.30773C21.9689 3.32812 21.9754 3.34778 21.9855 3.36559C21.9956 3.38341 22.0091 3.39902 22.0251 3.41155C22.0412 3.42408 22.0595 3.43327 22.079 3.43861C22.0985 3.44394 22.1189 3.44531 22.1389 3.44264C22.159 3.43996 22.1783 3.4333 22.1958 3.42303L23.2612 2.79733C23.2907 2.78075 23.314 2.75478 23.3276 2.7234C23.3411 2.69202 23.3442 2.65698 23.3363 2.62366C23.3284 2.59033 23.3099 2.56058 23.2837 2.53897C23.2576 2.51736 23.2252 2.50508 23.1915 2.50404C23.1863 2.50377 23.181 2.50377 23.1758 2.50404ZM18.9218 2.81811C20.1997 2.81811 21.2291 3.86491 21.2291 5.16448C21.2291 6.46405 20.1997 7.51085 18.9218 7.51085C17.6438 7.51085 16.6145 6.46405 16.6145 5.16448C16.6145 3.86491 17.6438 2.81811 18.9218 2.81811ZM8.92348 3.44381C9.90094 3.44381 10.6929 4.20972 10.7621 5.18403C10.7663 5.24199 10.7863 5.29761 10.8198 5.34467C10.8534 5.39172 10.8991 5.42835 10.952 5.45044C11.5663 5.70807 11.9999 6.32074 11.9999 7.04158C11.9999 7.44885 11.8594 7.81812 11.6279 8.11272C11.4403 7.93261 11.2246 7.78215 10.9826 7.6795C10.9636 7.67116 10.9432 7.66679 10.9225 7.66666C10.8868 7.66651 10.8522 7.67899 10.8245 7.70197C10.7969 7.72494 10.778 7.75699 10.771 7.7926C10.764 7.82822 10.7695 7.86518 10.7864 7.89717C10.8033 7.92915 10.8306 7.95416 10.8637 7.9679C11.1692 8.09752 11.4303 8.31068 11.6267 8.57588C11.6663 8.62931 11.7022 8.68522 11.7361 8.74269C11.7529 8.77127 11.7701 8.79932 11.7854 8.82885C11.8159 8.88748 11.8415 8.94889 11.8659 9.01094C11.8774 9.04049 11.8907 9.06927 11.9007 9.09954C11.9224 9.16426 11.9378 9.23162 11.9524 9.29935C11.9594 9.33189 11.9693 9.36334 11.9746 9.3965C11.9906 9.49547 11.9999 9.59694 11.9999 9.7008C11.9999 10.7412 11.1771 11.5779 10.154 11.5779C10.1812 11.5779 10.1755 11.5773 10.1474 11.5773C10.0998 11.5773 10.0528 11.5885 10.0101 11.6102C9.96747 11.6318 9.93035 11.6632 9.90168 11.7019C9.6756 12.0065 9.32552 12.2036 8.92348 12.2036C8.51863 12.2036 8.16616 12.0037 7.94048 11.6958C7.91401 11.6597 7.88017 11.6298 7.84128 11.6081C7.80239 11.5865 7.75937 11.5737 7.71515 11.5706C7.32868 11.5429 6.97713 11.3933 6.69309 11.1612C7.96972 10.8438 8.92348 9.68602 8.92348 8.29297C8.92348 7.78549 8.77785 7.31795 8.55696 6.90043C8.96052 6.40136 9.23112 5.782 9.23112 5.08627C9.23112 4.47985 9.04075 3.92355 8.72339 3.46214C8.78969 3.45452 8.8552 3.44381 8.92348 3.44381ZM13.9995 5.00805C13.9791 5.00776 13.9589 5.01159 13.94 5.01932C13.9211 5.02705 13.9039 5.03853 13.8893 5.05308C13.8748 5.06763 13.8633 5.08498 13.8554 5.1041C13.8476 5.12322 13.8435 5.14375 13.8435 5.16448C13.8435 5.18521 13.8476 5.20573 13.8554 5.22486C13.8633 5.24398 13.8748 5.26132 13.8893 5.27588C13.9039 5.29043 13.9211 5.30191 13.94 5.30964C13.9589 5.31737 13.9791 5.3212 13.9995 5.3209H15.2301C15.2505 5.3212 15.2707 5.31737 15.2896 5.30964C15.3085 5.30191 15.3258 5.29043 15.3403 5.27588C15.3548 5.26132 15.3663 5.24398 15.3742 5.22486C15.382 5.20573 15.3861 5.18521 15.3861 5.16448C15.3861 5.14375 15.382 5.12322 15.3742 5.1041C15.3663 5.08498 15.3548 5.06763 15.3403 5.05308C15.3258 5.03853 15.3085 5.02705 15.2896 5.01932C15.2707 5.01159 15.2505 5.00776 15.2301 5.00805H13.9995ZM22.6134 5.00805C22.593 5.00776 22.5728 5.01159 22.5539 5.01932C22.535 5.02705 22.5178 5.03853 22.5033 5.05308C22.4887 5.06763 22.4772 5.08498 22.4693 5.1041C22.4615 5.12322 22.4574 5.14375 22.4574 5.16448C22.4574 5.18521 22.4615 5.20573 22.4693 5.22486C22.4772 5.24398 22.4887 5.26132 22.5033 5.27588C22.5178 5.29043 22.535 5.30191 22.5539 5.30964C22.5728 5.31737 22.593 5.3212 22.6134 5.3209H23.844C23.8644 5.3212 23.8846 5.31737 23.9035 5.30964C23.9224 5.30191 23.9397 5.29043 23.9542 5.27588C23.9687 5.26132 23.9802 5.24398 23.9881 5.22486C23.9959 5.20573 24 5.18521 24 5.16448C24 5.14375 23.9959 5.12322 23.9881 5.1041C23.9802 5.08498 23.9687 5.06763 23.9542 5.05308C23.9397 5.03853 23.9224 5.02705 23.9035 5.01932C23.8846 5.01159 23.8644 5.00776 23.844 5.00805H22.6134ZM3.23215 5.63375C3.21177 5.63346 3.19153 5.63729 3.17262 5.64502C3.1537 5.65275 3.13649 5.66422 3.12197 5.67878C3.10745 5.69333 3.09593 5.71068 3.08806 5.7298C3.08019 5.74892 3.07614 5.76945 3.07614 5.79018C3.07614 5.81091 3.08019 5.83143 3.08806 5.85056C3.09593 5.86968 3.10745 5.88702 3.12197 5.90158C3.13649 5.91613 3.1537 5.92761 3.17262 5.93534C3.19153 5.94307 3.21177 5.9469 3.23215 5.9466C3.32797 5.9466 3.42382 5.95447 3.52056 5.96677C3.54073 5.9696 3.56124 5.96833 3.58092 5.96304C3.6006 5.95775 3.61905 5.94854 3.6352 5.93594C3.65136 5.92334 3.66489 5.90761 3.67502 5.88966C3.68515 5.87171 3.69168 5.85189 3.69422 5.83135C3.69677 5.81081 3.69528 5.78997 3.68984 5.77002C3.68441 5.75007 3.67513 5.73142 3.66256 5.71514C3.64998 5.69886 3.63435 5.68529 3.61658 5.6752C3.59881 5.66511 3.57924 5.65871 3.55902 5.65636C3.45395 5.64301 3.34491 5.63375 3.23215 5.63375ZM15.7162 6.88393C15.692 6.88566 15.6685 6.8932 15.6477 6.90593L14.5824 7.53162C14.5648 7.5419 14.5495 7.55557 14.5372 7.57188C14.5249 7.58819 14.5158 7.6068 14.5106 7.62666C14.5053 7.64652 14.504 7.66723 14.5066 7.68762C14.5092 7.70801 14.5158 7.72767 14.5259 7.74549C14.536 7.7633 14.5494 7.77892 14.5655 7.79144C14.5815 7.80397 14.5998 7.81316 14.6193 7.8185C14.6389 7.82383 14.6592 7.8252 14.6793 7.82253C14.6993 7.81986 14.7187 7.8132 14.7362 7.80292L15.8015 7.17722C15.831 7.16065 15.8543 7.13467 15.8679 7.10329C15.8815 7.07191 15.8846 7.03687 15.8766 7.00355C15.8687 6.97023 15.8503 6.94047 15.8241 6.91886C15.7979 6.89725 15.7655 6.88497 15.7318 6.88393C15.7266 6.88366 15.7214 6.88366 15.7162 6.88393ZM22.1069 6.88393C22.0736 6.88594 22.0418 6.89892 22.0164 6.92089C21.991 6.94287 21.9733 6.97265 21.966 7.00575C21.9586 7.03886 21.9621 7.07348 21.9758 7.10441C21.9895 7.13534 22.0128 7.1609 22.042 7.17722L23.1073 7.80292C23.1427 7.82367 23.1847 7.82927 23.2242 7.8185C23.2636 7.80773 23.2972 7.78146 23.3176 7.74549C23.338 7.70951 23.3435 7.66677 23.333 7.62666C23.3224 7.58655 23.2965 7.55237 23.2612 7.53162L22.1958 6.90593C22.1736 6.89244 22.1484 6.88487 22.1225 6.88393C22.1173 6.88366 22.1121 6.88366 22.1069 6.88393ZM10.154 7.51085C10.0942 7.51085 10.0398 7.51509 9.9894 7.51879C9.96924 7.52024 9.94956 7.52571 9.93147 7.53489C9.91339 7.54407 9.89727 7.55678 9.88401 7.5723C9.87076 7.58781 9.86065 7.60583 9.85424 7.62533C9.84784 7.64482 9.84528 7.66541 9.8467 7.68591C9.84812 7.70641 9.8535 7.72643 9.86252 7.74482C9.87155 7.76321 9.88405 7.77961 9.89931 7.79308C9.91457 7.80656 9.93229 7.81684 9.95146 7.82336C9.97063 7.82987 9.99087 7.83248 10.011 7.83103C10.0628 7.82723 10.1099 7.8237 10.154 7.8237C10.1981 7.8237 10.2453 7.82723 10.297 7.83103C10.3172 7.83248 10.3374 7.82987 10.3566 7.82336C10.3758 7.81684 10.3935 7.80656 10.4088 7.79308C10.424 7.77961 10.4365 7.76321 10.4455 7.74482C10.4546 7.72643 10.46 7.70641 10.4614 7.68591C10.4628 7.66541 10.4602 7.64482 10.4538 7.62533C10.4474 7.60583 10.4373 7.58781 10.4241 7.5723C10.4108 7.55678 10.3947 7.54407 10.3766 7.53489C10.3585 7.52571 10.3388 7.52024 10.3187 7.51879C10.2683 7.51509 10.2139 7.51085 10.154 7.51085ZM17.0783 8.25753C17.0507 8.25725 17.0235 8.26453 16.9996 8.27862C16.9757 8.2927 16.956 8.31307 16.9425 8.33758L16.3273 9.42094C16.3069 9.45692 16.3013 9.49966 16.3119 9.53977C16.3225 9.57988 16.3484 9.61406 16.3837 9.6348C16.4191 9.65555 16.4611 9.66115 16.5006 9.65038C16.54 9.63961 16.5736 9.61334 16.594 9.57737L17.2093 8.494C17.2232 8.47034 17.2306 8.44338 17.231 8.41585C17.2313 8.38831 17.2245 8.36118 17.2112 8.33719C17.1979 8.3132 17.1786 8.2932 17.1553 8.27921C17.1319 8.26522 17.1054 8.25775 17.0783 8.25753ZM20.7604 8.25753C20.7337 8.25858 20.7078 8.26666 20.6851 8.28099C20.6624 8.29532 20.6438 8.31539 20.6311 8.33924C20.6184 8.3631 20.612 8.38991 20.6125 8.41704C20.6131 8.44417 20.6205 8.4707 20.6342 8.494L21.2495 9.57737C21.2699 9.61334 21.3035 9.63961 21.3429 9.65038C21.3824 9.66115 21.4244 9.65555 21.4598 9.6348C21.4952 9.61406 21.521 9.57988 21.5316 9.53977C21.5422 9.49966 21.5367 9.45692 21.5163 9.42094L20.901 8.33758C20.8871 8.31232 20.8666 8.29147 20.8418 8.27734C20.817 8.26321 20.7888 8.25635 20.7604 8.25753ZM18.9194 8.7598C18.8992 8.76012 18.8792 8.76449 18.8607 8.77264C18.8421 8.7808 18.8254 8.79259 18.8113 8.80735C18.7972 8.8221 18.7862 8.83952 18.7787 8.85862C18.7713 8.87773 18.7676 8.89813 18.7679 8.91867V10.1701C18.7677 10.1908 18.7714 10.2114 18.779 10.2306C18.7866 10.2498 18.7979 10.2674 18.8122 10.2821C18.8265 10.2969 18.8436 10.3086 18.8624 10.3166C18.8812 10.3246 18.9014 10.3287 18.9218 10.3287C18.9421 10.3287 18.9623 10.3246 18.9811 10.3166C18.9999 10.3086 19.017 10.2969 19.0313 10.2821C19.0456 10.2674 19.0569 10.2498 19.0645 10.2306C19.0721 10.2114 19.0759 10.1908 19.0756 10.1701V8.91867C19.0759 8.89772 19.0721 8.87691 19.0643 8.85749C19.0566 8.83807 19.0451 8.82042 19.0305 8.8056C19.016 8.79079 18.9986 8.7791 18.9795 8.77123C18.9604 8.76336 18.94 8.75948 18.9194 8.7598ZM6.10245 11.46C6.48259 11.8422 6.99037 12.089 7.55052 12.1596C7.68048 12.3122 7.83189 12.446 8.00056 12.5537V14.2536C7.34126 13.9885 6.6316 13.8155 5.84709 13.7788V11.6023C5.93487 11.5594 6.01964 11.5111 6.10245 11.46ZM3.69361 11.7294C3.98332 11.8318 4.29256 11.8907 4.61653 11.8907C4.94049 11.8907 5.24973 11.8318 5.53945 11.7294V13.7678C4.86516 13.7678 4.24961 13.8647 3.69361 14.0196V11.7294ZM9.53876 12.7095V15.062C9.1441 14.8084 8.73568 14.579 8.3082 14.385V12.7107C8.49901 12.786 8.70509 12.8293 8.92348 12.8293C9.14218 12.8293 9.34816 12.7854 9.53876 12.7095ZM5.53945 14.3935C7.88081 14.3935 9.49432 15.7278 11.3029 17.1365C12.9553 18.4235 14.8076 19.7055 17.4016 19.935C15.8472 21.352 14.45 22.5276 12.6152 22.5276H2.46305C1.43998 22.5276 0.617216 21.6909 0.617216 20.6505V19.935C1.27305 19.3303 2.84044 18.1477 5.07799 18.1477C7.34069 18.1477 8.76574 19.4486 10.8667 20.2925C10.8856 20.3008 10.906 20.3052 10.9266 20.3053C10.9472 20.3055 10.9676 20.3014 10.9867 20.2934C11.0057 20.2854 11.023 20.2735 11.0375 20.2586C11.0519 20.2436 11.0633 20.2259 11.0709 20.2064C11.0784 20.1869 11.0821 20.166 11.0816 20.145C11.0811 20.1241 11.0764 20.1034 11.0679 20.0843C11.0594 20.0652 11.0472 20.0481 11.032 20.0338C11.0169 20.0196 10.999 20.0087 10.9796 20.0016C8.93663 19.1811 7.45572 17.8349 5.07799 17.8349C2.93564 17.8349 1.39535 18.8646 0.617216 19.5287V16.7008C0.774264 16.4967 2.45757 14.3935 5.53945 14.3935ZM17.845 14.3935C19.7895 14.3935 21.1954 14.9239 22.1171 15.4488C22.5491 15.6948 22.8609 15.931 23.0803 16.1173C22.3 16.3598 21.5998 16.6987 20.9521 17.0894C20.7826 16.9957 20.5312 16.873 20.18 16.7485C19.5027 16.5082 18.4774 16.2706 17.0759 16.2706C14.5368 16.2706 12.854 16.8833 12.2991 17.1163C12.0905 16.9594 11.8833 16.8002 11.6772 16.6397C11.5899 16.5717 11.5025 16.5038 11.4152 16.4356C12.1595 15.874 14.4352 14.3935 17.845 14.3935ZM17.0759 16.5835C18.4432 16.5835 19.4333 16.8152 20.079 17.0442C20.3815 17.1515 20.5296 17.2251 20.6348 17.2862C19.6624 17.9162 18.8117 18.6595 18.0157 19.3851C15.7455 19.3472 14.1136 18.438 12.6133 17.3448C13.1123 17.1311 14.5788 16.5835 17.0759 16.5835ZM23.3825 16.7118V19.4175C22.5725 19.5169 21.9061 19.7462 21.3156 20.0389C21.2788 20.057 21.2507 20.0893 21.2374 20.1285C21.224 20.1678 21.2265 20.2108 21.2444 20.2482C21.2622 20.2855 21.2939 20.3141 21.3325 20.3277C21.3711 20.3413 21.4134 20.3387 21.4502 20.3206C22.0067 20.0447 22.6274 19.8338 23.3825 19.7364V20.9634C23.3825 21.8311 22.6976 22.5276 21.8443 22.5276H14.9399C16.0226 21.9784 16.9991 21.1495 17.9802 20.2515C19.5177 18.8445 21.1454 17.3763 23.3825 16.7118ZM20.7724 20.3615C20.743 20.361 20.714 20.369 20.6889 20.3847C20.3686 20.5783 20.0625 20.7833 19.7588 20.9903C19.742 21.0017 19.7276 21.0165 19.7164 21.0336C19.7052 21.0507 19.6975 21.0699 19.6936 21.0901C19.6897 21.1103 19.6898 21.131 19.6938 21.1511C19.6978 21.1713 19.7057 21.1904 19.717 21.2075C19.7283 21.2245 19.7427 21.2392 19.7596 21.2505C19.7764 21.2619 19.7953 21.2698 19.8151 21.2737C19.835 21.2777 19.8554 21.2776 19.8752 21.2735C19.895 21.2694 19.9138 21.2614 19.9306 21.25C20.2329 21.0439 20.5341 20.8423 20.8463 20.6536C20.8755 20.6365 20.8984 20.6102 20.9115 20.5787C20.9245 20.5471 20.9271 20.5121 20.9187 20.4789C20.9103 20.4458 20.8914 20.4163 20.865 20.3951C20.8386 20.3739 20.8061 20.3621 20.7724 20.3615ZM12.1447 20.3921C12.1076 20.3939 12.0725 20.4093 12.0457 20.4354C12.0189 20.4615 12.0023 20.4966 11.9989 20.5341C11.9956 20.5717 12.0057 20.6092 12.0274 20.6398C12.0491 20.6704 12.0809 20.692 12.117 20.7006C12.5081 20.798 12.926 20.8682 13.3692 20.9127C13.3898 20.9157 13.4108 20.9145 13.431 20.9091C13.4511 20.9037 13.47 20.8942 13.4864 20.8812C13.5028 20.8681 13.5164 20.8518 13.5265 20.8333C13.5365 20.8147 13.5427 20.7943 13.5448 20.7732C13.5468 20.7521 13.5446 20.7308 13.5383 20.7106C13.532 20.6904 13.5218 20.6718 13.5082 20.6557C13.4946 20.6397 13.4779 20.6266 13.4592 20.6173C13.4405 20.608 13.4201 20.6027 13.3993 20.6016C12.9688 20.5585 12.5654 20.4904 12.1903 20.3969C12.1754 20.393 12.1601 20.3914 12.1447 20.3921ZM13.9893 20.6383C13.9503 20.6415 13.9139 20.6596 13.8876 20.6891C13.8613 20.7186 13.847 20.7572 13.8477 20.797C13.8484 20.8368 13.864 20.8749 13.8913 20.9034C13.9186 20.9319 13.9556 20.9488 13.9947 20.9505C14.0924 20.9538 14.1918 20.9634 14.3072 20.9634C14.3276 20.9637 14.3478 20.9598 14.3667 20.9521C14.3856 20.9444 14.4028 20.9329 14.4173 20.9184C14.4319 20.9038 14.4434 20.8865 14.4513 20.8673C14.4591 20.8482 14.4632 20.8277 14.4632 20.8069C14.4632 20.7862 14.4591 20.7657 14.4513 20.7466C14.4434 20.7274 14.4319 20.7101 14.4173 20.6956C14.4028 20.681 14.3856 20.6695 14.3667 20.6618C14.3478 20.6541 14.3276 20.6502 14.3072 20.6505C14.209 20.6505 14.1134 20.6419 14.0043 20.6383C13.9993 20.6381 13.9943 20.6381 13.9893 20.6383ZM19.2288 21.3746C19.1995 21.3752 19.1709 21.3843 19.1465 21.4009C19.0368 21.4723 18.926 21.543 18.8136 21.6117C18.7952 21.6217 18.7791 21.6354 18.7661 21.652C18.7531 21.6686 18.7435 21.6877 18.738 21.7081C18.7325 21.7286 18.7311 21.7499 18.7339 21.7709C18.7368 21.7919 18.7438 21.8121 18.7546 21.8303C18.7653 21.8485 18.7796 21.8642 18.7965 21.8766C18.8135 21.889 18.8327 21.8977 18.8531 21.9023C18.8734 21.9069 18.8945 21.9072 18.915 21.9032C18.9355 21.8993 18.9549 21.8912 18.9722 21.8793C19.0881 21.8085 19.2011 21.7367 19.3123 21.6642C19.341 21.6462 19.3632 21.6192 19.3753 21.5871C19.3874 21.5551 19.3888 21.5199 19.3793 21.487C19.3698 21.4541 19.3499 21.4252 19.3227 21.4049C19.2955 21.3846 19.2625 21.374 19.2288 21.3746Z" fill="#5B5B5B"/>
</svg>
