<svg width="24" height="24" viewBox="0 0 24 24" fill="none" xmlns="http://www.w3.org/2000/svg">
<path d="M0 0V23.1528H24V22.6898V0H0ZM0.666667 0.926113H23.3333V2.77834C23.2449 2.77834 23.1601 2.82713 23.0976 2.91397C23.0351 3.00081 23 3.11859 23 3.2414C23 3.36421 23.0351 3.48199 23.0976 3.56883C23.1601 3.65567 23.2449 3.70445 23.3333 3.70445V8.33502C23.2449 8.33502 23.1601 8.38381 23.0976 8.47065C23.0351 8.55749 23 8.67527 23 8.79808C23 8.92089 23.0351 9.03867 23.0976 9.12551C23.1601 9.21235 23.2449 9.26113 23.3333 9.26113V13.8917C23.2449 13.8917 23.1601 13.9405 23.0976 14.0273C23.0351 14.1142 23 14.2319 23 14.3548C23 14.4776 23.0351 14.5953 23.0976 14.6822C23.1601 14.769 23.2449 14.8178 23.3333 14.8178V19.4484C23.2449 19.4484 23.1601 19.4972 23.0976 19.584C23.0351 19.6708 23 19.7886 23 19.9114C23 20.0342 23.0351 20.152 23.0976 20.2389C23.1601 20.3257 23.2449 20.3745 23.3333 20.3745V22.2267H0.666667V20.3745C0.755072 20.3745 0.839857 20.3257 0.902369 20.2389C0.964881 20.152 1 20.0342 1 19.9114C1 19.7886 0.964881 19.6708 0.902369 19.584C0.839857 19.4972 0.755072 19.4484 0.666667 19.4484V14.8178C0.755072 14.8178 0.839857 14.769 0.902369 14.6822C0.964881 14.5953 1 14.4776 1 14.3548C1 14.2319 0.964881 14.1142 0.902369 14.0273C0.839857 13.9405 0.755072 13.8917 0.666667 13.8917V9.26113C0.755072 9.26113 0.839857 9.21235 0.902369 9.12551C0.964881 9.03867 1 8.92089 1 8.79808C1 8.67527 0.964881 8.55749 0.902369 8.47065C0.839857 8.38381 0.755072 8.33502 0.666667 8.33502V3.70445C0.755072 3.70445 0.839857 3.65567 0.902369 3.56883C0.964881 3.48199 1 3.36421 1 3.2414C1 3.11859 0.964881 3.00081 0.902369 2.91397C0.839857 2.82713 0.755072 2.77834 0.666667 2.77834V0.926113ZM12 1.85223C11.9116 1.85223 11.8268 1.90101 11.7643 1.98785C11.7018 2.07469 11.6667 2.19247 11.6667 2.31528C11.6667 2.43809 11.7018 2.55587 11.7643 2.64271C11.8268 2.72955 11.9116 2.77834 12 2.77834C12.0884 2.77834 12.1732 2.72955 12.2357 2.64271C12.2982 2.55587 12.3333 2.43809 12.3333 2.31528C12.3333 2.19247 12.2982 2.07469 12.2357 1.98785C12.1732 1.90101 12.0884 1.85223 12 1.85223ZM1.8457 2.93842C1.76717 2.93569 1.69046 2.97157 1.62912 3.03974C1.56778 3.10792 1.52574 3.204 1.51042 3.31104C1.49317 3.43144 1.51106 3.55644 1.56014 3.65853C1.60921 3.76063 1.68547 3.83147 1.77214 3.85549C1.85881 3.87944 1.94879 3.8546 2.02228 3.78642C2.09578 3.71824 2.14677 3.61231 2.16406 3.49192C2.18131 3.37151 2.16342 3.24652 2.11434 3.14442C2.06527 3.04232 1.98901 2.97148 1.90234 2.94746C1.88368 2.94221 1.86473 2.93918 1.8457 2.93842ZM22.1641 2.93842C22.142 2.9384 22.12 2.94143 22.0983 2.94746C22.0553 2.95925 22.0145 2.98269 21.978 3.01644C21.9416 3.05019 21.9103 3.09359 21.8859 3.14415C21.8615 3.19472 21.8446 3.25146 21.836 3.31113C21.8274 3.3708 21.8274 3.43223 21.8359 3.49192C21.8532 3.61231 21.9042 3.71824 21.9777 3.78642C22.0512 3.8546 22.1412 3.87944 22.2279 3.85549C22.2708 3.8437 22.3117 3.82026 22.3482 3.78651C22.3846 3.75276 22.4159 3.70937 22.4403 3.6588C22.4646 3.60824 22.4816 3.5515 22.4902 3.49183C22.4987 3.43215 22.4988 3.37072 22.4902 3.31104C22.4752 3.20616 22.4345 3.11174 22.375 3.04382C22.3156 2.9759 22.241 2.93866 22.1641 2.93842ZM21.0397 3.41233C20.995 3.41185 20.9508 3.42384 20.9095 3.4476C20.8691 3.47088 20.8323 3.505 20.8014 3.548C20.7704 3.59101 20.7459 3.64206 20.7291 3.69824C20.7124 3.75442 20.7038 3.81464 20.7038 3.87545C20.7038 3.93626 20.7124 3.99647 20.7292 4.05265C20.7459 4.10883 20.7705 4.15987 20.8014 4.20286C20.8324 4.24586 20.8691 4.27996 20.9096 4.30322C20.95 4.32648 20.9934 4.33845 21.0372 4.33844C21.0809 4.33844 21.1243 4.32645 21.1647 4.30317C21.2052 4.27989 21.2419 4.24578 21.2728 4.20277C21.3038 4.15977 21.3283 4.10872 21.3451 4.05253C21.3618 3.99635 21.3704 3.93613 21.3704 3.87532C21.3704 3.81451 21.3618 3.7543 21.3451 3.69812C21.32 3.61409 21.2777 3.54218 21.2234 3.49135C21.1691 3.44053 21.1052 3.41304 21.0397 3.41233ZM2.97005 3.41323C2.90292 3.41124 2.83692 3.43746 2.78069 3.48845C2.72447 3.53945 2.68064 3.61284 2.65495 3.69903C2.62131 3.81238 2.6214 3.93964 2.65521 4.05289C2.68902 4.16615 2.75378 4.25615 2.83529 4.30317C2.87573 4.32645 2.91907 4.33844 2.96284 4.33844C3.00662 4.33845 3.04997 4.32648 3.09041 4.30322C3.13085 4.27996 3.1676 4.24586 3.19856 4.20286C3.22952 4.15987 3.25408 4.10883 3.27083 4.05265C3.28759 3.99647 3.29622 3.93626 3.29623 3.87545C3.29623 3.81464 3.28762 3.75442 3.27087 3.69824C3.25412 3.64206 3.22957 3.59101 3.19863 3.548C3.16768 3.505 3.13093 3.47088 3.09049 3.4476C3.05223 3.42587 3.01139 3.41422 2.97005 3.41323ZM12 3.70445C11.9116 3.70445 11.8268 3.75324 11.7643 3.84008C11.7018 3.92692 11.6667 4.0447 11.6667 4.16751C11.6667 4.29032 11.7018 4.4081 11.7643 4.49494C11.8268 4.58178 11.9116 4.63057 12 4.63057C12.0884 4.63057 12.1732 4.58178 12.2357 4.49494C12.2982 4.4081 12.3333 4.29032 12.3333 4.16751C12.3333 4.0447 12.2982 3.92692 12.2357 3.84008C12.1732 3.75324 12.0884 3.70445 12 3.70445ZM20.0039 4.18198C19.9368 4.1809 19.871 4.20801 19.8151 4.25976C19.7786 4.29356 19.7473 4.33703 19.723 4.38766C19.6986 4.43829 19.6817 4.4951 19.6732 4.55483C19.6647 4.61455 19.6647 4.67603 19.6733 4.73574C19.6819 4.79545 19.6989 4.85222 19.7233 4.90279C19.7724 5.00483 19.8487 5.07558 19.9354 5.09949C20.0221 5.1234 20.1121 5.09852 20.1855 5.03031C20.259 4.96205 20.3099 4.85606 20.3271 4.73565C20.3444 4.61524 20.3264 4.49026 20.2773 4.38819C20.2473 4.32551 20.2067 4.27398 20.159 4.23805C20.1114 4.20211 20.0581 4.18287 20.0039 4.18198ZM4.00651 4.18288C3.95065 4.18153 3.89544 4.1997 3.84595 4.23574C3.79646 4.27177 3.75429 4.3245 3.72331 4.38909C3.67421 4.49116 3.6563 4.61614 3.67351 4.73655C3.69073 4.85697 3.74166 4.96295 3.8151 5.03122C3.88858 5.09942 3.97855 5.12431 4.06523 5.10039C4.15191 5.07648 4.2282 5.00573 4.27734 4.9037C4.30176 4.85312 4.31875 4.79636 4.32735 4.73665C4.33595 4.67694 4.33598 4.61546 4.32746 4.55573C4.31893 4.496 4.30201 4.4392 4.27766 4.38856C4.25331 4.33793 4.222 4.29447 4.18555 4.26066C4.13246 4.21146 4.07032 4.18447 4.00651 4.18288ZM4.91406 5.21934C4.86953 5.2185 4.82532 5.23008 4.78406 5.25338C4.7428 5.27668 4.70532 5.31123 4.67383 5.355C4.61133 5.44183 4.57622 5.5596 4.57622 5.68239C4.57622 5.80519 4.61133 5.92295 4.67383 6.00979C4.73634 6.09661 4.82111 6.14538 4.90951 6.14538C4.9979 6.14538 5.08267 6.09661 5.14518 6.00979C5.20768 5.92295 5.24279 5.80519 5.24279 5.68239C5.24279 5.5596 5.20768 5.44183 5.14518 5.355C5.0838 5.26969 5.00088 5.22101 4.91406 5.21934ZM19.0951 5.21934C19.0505 5.2185 19.0063 5.23008 18.965 5.25338C18.9238 5.27668 18.8863 5.31123 18.8548 5.355C18.7923 5.44183 18.7572 5.5596 18.7572 5.68239C18.7572 5.80519 18.7923 5.92295 18.8548 6.00979C18.9173 6.09661 19.0021 6.14538 19.0905 6.14538C19.1789 6.14538 19.2637 6.09661 19.3262 6.00979C19.3887 5.92295 19.4238 5.80519 19.4238 5.68239C19.4238 5.5596 19.3887 5.44183 19.3262 5.355C19.2648 5.26969 19.1819 5.22101 19.0951 5.21934ZM12 5.55668C11.9116 5.55668 11.8268 5.60547 11.7643 5.69231C11.7018 5.77915 11.6667 5.89693 11.6667 6.01974C11.6667 6.14255 11.7018 6.26033 11.7643 6.34717C11.8268 6.43401 11.9116 6.48279 12 6.48279C12.0884 6.48279 12.1732 6.43401 12.2357 6.34717C12.2982 6.26033 12.3333 6.14255 12.3333 6.01974C12.3333 5.89693 12.2982 5.77915 12.2357 5.69231C12.1732 5.60547 12.0884 5.55668 12 5.55668ZM18.3509 6.48189C18.2951 6.48044 18.2399 6.49847 18.1905 6.53434C18.141 6.57021 18.0988 6.62277 18.0677 6.68719C18.0186 6.78926 18.0007 6.91424 18.0179 7.03465C18.0351 7.15507 18.0861 7.26105 18.1595 7.32932C18.1959 7.36323 18.2368 7.38684 18.2798 7.39878C18.3227 7.41073 18.367 7.41078 18.41 7.39893C18.453 7.38709 18.4939 7.36358 18.5303 7.32975C18.5668 7.29593 18.5981 7.25244 18.6224 7.2018C18.6714 7.09961 18.6892 6.97456 18.6719 6.85414C18.6546 6.73371 18.6035 6.62779 18.5299 6.55967C18.4769 6.51047 18.4147 6.48347 18.3509 6.48189ZM5.65951 6.48279C5.59237 6.48171 5.52656 6.50882 5.4707 6.56057C5.39715 6.6287 5.34609 6.73462 5.32875 6.85504C5.31141 6.97546 5.32922 7.10052 5.37826 7.2027C5.40259 7.25335 5.43388 7.29683 5.47032 7.33066C5.50677 7.36449 5.54766 7.38799 5.59066 7.39984C5.63366 7.41168 5.67791 7.41163 5.72089 7.39969C5.76388 7.38774 5.80474 7.36414 5.84115 7.33022C5.91459 7.26196 5.96552 7.15597 5.98274 7.03556C5.99995 6.91515 5.98204 6.79017 5.93294 6.68809C5.9028 6.62559 5.86215 6.57423 5.8145 6.53846C5.76686 6.50269 5.71366 6.48358 5.65951 6.48279ZM12 7.40891C11.9116 7.40891 11.8268 7.45769 11.7643 7.54453C11.7018 7.63137 11.6667 7.74915 11.6667 7.87196C11.6667 7.99477 11.7018 8.11255 11.7643 8.19939C11.8268 8.28623 11.9116 8.33502 12 8.33502C12.0884 8.33502 12.1732 8.28623 12.2357 8.19939C12.2982 8.11255 12.3333 7.99477 12.3333 7.87196C12.3333 7.74915 12.2982 7.63137 12.2357 7.54453C12.1732 7.45769 12.0884 7.40891 12 7.40891ZM10.6589 7.90543C10.603 7.90712 10.5484 7.92827 10.5 7.96693C10.4234 8.02824 10.3675 8.12927 10.3446 8.24782C10.3216 8.36636 10.3335 8.49272 10.3776 8.59911C10.3995 8.65189 10.4286 8.69816 10.4633 8.73528C10.4981 8.7724 10.5378 8.79963 10.5801 8.81542C10.6224 8.83122 10.6666 8.83526 10.71 8.82732C10.7535 8.81937 10.7954 8.7996 10.8333 8.76914C10.8713 8.7387 10.9045 8.69817 10.9312 8.64987C10.9578 8.60157 10.9774 8.54645 10.9887 8.48765C11 8.42885 11.0028 8.36753 10.9971 8.3072C10.9913 8.24687 10.977 8.18871 10.9551 8.13605C10.9251 8.06426 10.8818 8.00498 10.8297 7.96441C10.7776 7.92384 10.7186 7.90347 10.6589 7.90543ZM13.3171 7.90633C13.2613 7.90999 13.2072 7.93302 13.1595 7.97331C13.1118 8.01361 13.0722 8.06987 13.0443 8.13695C13.0223 8.18967 13.0081 8.24788 13.0024 8.30825C12.9967 8.36862 12.9996 8.42996 13.011 8.48876C13.0223 8.54757 13.0419 8.60268 13.0686 8.65094C13.0954 8.69921 13.1287 8.73968 13.1667 8.77004C13.2433 8.83128 13.3342 8.84778 13.4195 8.81589C13.5049 8.78401 13.5776 8.70636 13.6217 8.60001C13.6659 8.49373 13.6779 8.36746 13.655 8.24893C13.6322 8.1304 13.5764 8.02929 13.5 7.96783C13.4445 7.92334 13.381 7.90199 13.3171 7.90633ZM6.21289 7.92351C6.16823 7.92303 6.12395 7.93503 6.08268 7.95879C6.04224 7.98206 6.0055 8.01618 5.97455 8.05918C5.9436 8.10219 5.91905 8.15324 5.90231 8.20943C5.88556 8.26561 5.87695 8.32582 5.87695 8.38663C5.87696 8.44744 5.88559 8.50766 5.90234 8.56384C5.9191 8.62001 5.94366 8.67105 5.97462 8.71405C6.00557 8.75704 6.04232 8.79114 6.08277 8.81441C6.12321 8.83767 6.16656 8.84964 6.21033 8.84963C6.25411 8.84962 6.29745 8.83763 6.33789 8.81436C6.37833 8.79108 6.41507 8.75696 6.44602 8.71396C6.47697 8.67095 6.50152 8.6199 6.51826 8.56372C6.53501 8.50753 6.54363 8.44732 6.54362 8.38651C6.54361 8.3257 6.53499 8.26548 6.51823 8.20931C6.49317 8.12528 6.45084 8.05336 6.39654 8.00253C6.34224 7.95171 6.27837 7.92423 6.21289 7.92351ZM17.7982 7.92351C17.7309 7.92133 17.6648 7.94747 17.6084 7.99847C17.5521 8.04948 17.5082 8.12298 17.4824 8.20931C17.4657 8.26548 17.457 8.3257 17.457 8.38651C17.457 8.44732 17.4656 8.50753 17.4824 8.56372C17.4991 8.6199 17.5237 8.67095 17.5546 8.71396C17.5856 8.75696 17.6223 8.79108 17.6628 8.81436C17.7032 8.83763 17.7465 8.84962 17.7903 8.84963C17.8341 8.84964 17.8774 8.83767 17.9179 8.81441C17.9583 8.79114 17.9951 8.75704 18.026 8.71405C18.057 8.67105 18.0816 8.62001 18.0983 8.56384C18.1151 8.50766 18.1237 8.44744 18.1237 8.38663C18.1237 8.32582 18.1151 8.26561 18.0983 8.20943C18.0816 8.15324 18.057 8.10219 18.0261 8.05918C17.9952 8.01618 17.9584 7.98206 17.918 7.95879C17.8799 7.93685 17.8393 7.92489 17.7982 7.92351ZM2 8.79808C1.91159 8.79808 1.82681 8.84686 1.7643 8.9337C1.70179 9.02054 1.66667 9.13832 1.66667 9.26113C1.66667 9.38394 1.70179 9.50172 1.7643 9.58856C1.82681 9.6754 1.91159 9.72419 2 9.72419C2.08841 9.72419 2.17319 9.6754 2.2357 9.58856C2.29821 9.50172 2.33333 9.38394 2.33333 9.26113C2.33333 9.13832 2.29821 9.02054 2.2357 8.9337C2.17319 8.84686 2.08841 8.79808 2 8.79808ZM22 8.79808C21.9116 8.79808 21.8268 8.84686 21.7643 8.9337C21.7018 9.02054 21.6667 9.13832 21.6667 9.26113C21.6667 9.38394 21.7018 9.50172 21.7643 9.58856C21.8268 9.6754 21.9116 9.72419 22 9.72419C22.0884 9.72419 22.1732 9.6754 22.2357 9.58856C22.2982 9.50172 22.3333 9.38394 22.3333 9.26113C22.3333 9.13832 22.2982 9.02054 22.2357 8.9337C22.1732 8.84686 22.0884 8.79808 22 8.79808ZM3.33333 9.26113C3.24493 9.26113 3.16014 9.30992 3.09763 9.39676C3.03512 9.4836 3 9.60138 3 9.72419C3 9.847 3.03512 9.96478 3.09763 10.0516C3.16014 10.1385 3.24493 10.1872 3.33333 10.1872C3.42174 10.1872 3.50652 10.1385 3.56904 10.0516C3.63155 9.96478 3.66667 9.847 3.66667 9.72419C3.66667 9.60138 3.63155 9.4836 3.56904 9.39676C3.50652 9.30992 3.42174 9.26113 3.33333 9.26113ZM12 9.26113C11.9116 9.26113 11.8268 9.30992 11.7643 9.39676C11.7018 9.4836 11.6667 9.60138 11.6667 9.72419C11.6667 9.847 11.7018 9.96478 11.7643 10.0516C11.8268 10.1385 11.9116 10.1872 12 10.1872C12.0884 10.1872 12.1732 10.1385 12.2357 10.0516C12.2982 9.96478 12.3333 9.847 12.3333 9.72419C12.3333 9.60138 12.2982 9.4836 12.2357 9.39676C12.1732 9.30992 12.0884 9.26113 12 9.26113ZM14.3008 9.26113C14.245 9.26283 14.1903 9.28397 14.1419 9.32263C14.104 9.35307 14.0707 9.39359 14.0441 9.44189C14.0174 9.49019 13.9979 9.54532 13.9866 9.60412C13.9753 9.66292 13.9724 9.72423 13.9782 9.78456C13.984 9.84489 13.9982 9.90305 14.0202 9.95572C14.0644 10.0619 14.1372 10.1394 14.2225 10.1711C14.3079 10.2028 14.3988 10.1862 14.4753 10.1248C14.5518 10.0635 14.6077 9.96249 14.6307 9.84395C14.6536 9.7254 14.6417 9.59905 14.5977 9.49266C14.5677 9.42057 14.5243 9.36102 14.4721 9.32027C14.4199 9.27953 14.3607 9.2591 14.3008 9.26113ZM20.6667 9.26113C20.5783 9.26113 20.4935 9.30992 20.431 9.39676C20.3685 9.4836 20.3333 9.60138 20.3333 9.72419C20.3333 9.847 20.3685 9.96478 20.431 10.0516C20.4935 10.1385 20.5783 10.1872 20.6667 10.1872C20.7551 10.1872 20.8399 10.1385 20.9024 10.0516C20.9649 9.96478 21 9.847 21 9.72419C21 9.60138 20.9649 9.4836 20.9024 9.39676C20.8399 9.30992 20.7551 9.26113 20.6667 9.26113ZM9.67448 9.26204C9.61875 9.26569 9.56457 9.28872 9.51691 9.32902C9.46925 9.36931 9.42964 9.42558 9.40169 9.49266C9.37973 9.54533 9.36547 9.60349 9.3597 9.66382C9.35393 9.72415 9.35679 9.78546 9.36809 9.84426C9.3794 9.90306 9.39894 9.95819 9.4256 10.0065C9.45225 10.0548 9.4855 10.0953 9.52344 10.1257C9.56139 10.1562 9.60329 10.176 9.64674 10.1839C9.6902 10.1919 9.73436 10.1878 9.77669 10.172C9.81902 10.1562 9.85869 10.129 9.89343 10.0919C9.92818 10.0548 9.95731 10.0085 9.97917 9.95572C10.0233 9.84933 10.0351 9.72297 10.0122 9.60443C9.98922 9.48588 9.93333 9.38485 9.85677 9.32354C9.8015 9.27922 9.73823 9.25787 9.67448 9.26204ZM6.55273 9.48724C6.53044 9.48716 6.50819 9.49019 6.48633 9.49628C6.39966 9.5203 6.32341 9.59114 6.27433 9.69324C6.22525 9.79533 6.20737 9.92032 6.22461 10.0407C6.2419 10.1611 6.2929 10.2671 6.36639 10.3352C6.43988 10.4034 6.52986 10.4283 6.61654 10.4043C6.7032 10.3803 6.77946 10.3094 6.82854 10.2073C6.87761 10.1053 6.8955 9.98026 6.87826 9.85985C6.86324 9.75513 6.82264 9.66083 6.76332 9.59292C6.70399 9.52502 6.6296 9.48768 6.55273 9.48724ZM17.4577 9.48724C17.379 9.48428 17.3022 9.52007 17.2407 9.58826C17.1792 9.65645 17.1371 9.75266 17.1217 9.85985C17.1132 9.91953 17.1132 9.98097 17.1218 10.0406C17.1304 10.1003 17.1473 10.1571 17.1717 10.2076C17.1961 10.2582 17.2274 10.3016 17.2638 10.3353C17.3003 10.3691 17.3411 10.3925 17.3841 10.4043C17.4271 10.4162 17.4713 10.4161 17.5143 10.4042C17.5572 10.3923 17.5981 10.3688 17.6345 10.3349C17.6709 10.3011 17.7021 10.2576 17.7264 10.2069C17.7507 10.1563 17.7676 10.0995 17.776 10.0398C17.7933 9.91942 17.7754 9.79443 17.7263 9.69233C17.6772 9.59024 17.601 9.51939 17.5143 9.49537C17.4956 9.49042 17.4767 9.4877 17.4577 9.48724ZM3.33333 11.1134C3.24493 11.1134 3.16014 11.1621 3.09763 11.249C3.03512 11.3358 3 11.4536 3 11.5764C3 11.6992 3.03512 11.817 3.09763 11.9038C3.16014 11.9907 3.24493 12.0395 3.33333 12.0395C3.42174 12.0395 3.50652 11.9907 3.56904 11.9038C3.63155 11.817 3.66667 11.6992 3.66667 11.5764C3.66667 11.4536 3.63155 11.3358 3.56904 11.249C3.50652 11.1621 3.42174 11.1134 3.33333 11.1134ZM6.66667 11.1134C6.57826 11.1134 6.49348 11.1621 6.43096 11.249C6.36845 11.3358 6.33333 11.4536 6.33333 11.5764C6.33333 11.6992 6.36845 11.817 6.43096 11.9038C6.49348 11.9907 6.57826 12.0395 6.66667 12.0395C6.75507 12.0395 6.83986 11.9907 6.90237 11.9038C6.96488 11.817 7 11.6992 7 11.5764C7 11.4536 6.96488 11.3358 6.90237 11.249C6.83986 11.1621 6.75507 11.1134 6.66667 11.1134ZM9.33333 11.1134C9.24493 11.1134 9.16014 11.1621 9.09763 11.249C9.03512 11.3358 9 11.4536 9 11.5764C9 11.6992 9.03512 11.817 9.09763 11.9038C9.16014 11.9907 9.24493 12.0395 9.33333 12.0395C9.42174 12.0395 9.50652 11.9907 9.56904 11.9038C9.63155 11.817 9.66667 11.6992 9.66667 11.5764C9.66667 11.4536 9.63155 11.3358 9.56904 11.249C9.50652 11.1621 9.42174 11.1134 9.33333 11.1134ZM12 11.1134C11.9116 11.1134 11.8268 11.1621 11.7643 11.249C11.7018 11.3358 11.6667 11.4536 11.6667 11.5764C11.6667 11.6992 11.7018 11.817 11.7643 11.9038C11.8268 11.9907 11.9116 12.0395 12 12.0395C12.0884 12.0395 12.1732 11.9907 12.2357 11.9038C12.2982 11.817 12.3333 11.6992 12.3333 11.5764C12.3333 11.4536 12.2982 11.3358 12.2357 11.249C12.1732 11.1621 12.0884 11.1134 12 11.1134ZM14.6667 11.1134C14.5783 11.1134 14.4935 11.1621 14.431 11.249C14.3685 11.3358 14.3333 11.4536 14.3333 11.5764C14.3333 11.6992 14.3685 11.817 14.431 11.9038C14.4935 11.9907 14.5783 12.0395 14.6667 12.0395C14.7551 12.0395 14.8399 11.9907 14.9024 11.9038C14.9649 11.817 15 11.6992 15 11.5764C15 11.4536 14.9649 11.3358 14.9024 11.249C14.8399 11.1621 14.7551 11.1134 14.6667 11.1134ZM17.3333 11.1134C17.2449 11.1134 17.1601 11.1621 17.0976 11.249C17.0351 11.3358 17 11.4536 17 11.5764C17 11.6992 17.0351 11.817 17.0976 11.9038C17.1601 11.9907 17.2449 12.0395 17.3333 12.0395C17.4217 12.0395 17.5065 11.9907 17.569 11.9038C17.6315 11.817 17.6667 11.6992 17.6667 11.5764C17.6667 11.4536 17.6315 11.3358 17.569 11.249C17.5065 11.1621 17.4217 11.1134 17.3333 11.1134ZM20.6667 11.1134C20.5783 11.1134 20.4935 11.1621 20.431 11.249C20.3685 11.3358 20.3333 11.4536 20.3333 11.5764C20.3333 11.6992 20.3685 11.817 20.431 11.9038C20.4935 11.9907 20.5783 12.0395 20.6667 12.0395C20.7551 12.0395 20.8399 11.9907 20.9024 11.9038C20.9649 11.817 21 11.6992 21 11.5764C21 11.4536 20.9649 11.3358 20.9024 11.249C20.8399 11.1621 20.7551 11.1134 20.6667 11.1134ZM6.56055 12.7395C6.48201 12.7367 6.40531 12.7726 6.34396 12.8408C6.28262 12.909 6.24058 13.0051 6.22526 13.1121C6.20802 13.2325 6.2259 13.3575 6.27498 13.4596C6.32406 13.5617 6.40031 13.6325 6.48698 13.6566C6.57366 13.6805 6.66363 13.6557 6.73713 13.5875C6.81062 13.5193 6.86162 13.4134 6.87891 13.293C6.89615 13.1726 6.87826 13.0476 6.82919 12.9455C6.78011 12.8434 6.70386 12.7725 6.61719 12.7485C6.59853 12.7433 6.57958 12.7402 6.56055 12.7395ZM17.4505 12.7395C17.4282 12.7394 17.406 12.7424 17.3841 12.7485C17.2974 12.7725 17.2212 12.8434 17.1721 12.9455C17.123 13.0476 17.1052 13.1726 17.1224 13.293C17.1397 13.4134 17.1907 13.5193 17.2642 13.5875C17.3377 13.6557 17.4276 13.6805 17.5143 13.6566C17.601 13.6325 17.6772 13.5617 17.7263 13.4596C17.7754 13.3575 17.7933 13.2325 17.776 13.1121C17.761 13.0074 17.7204 12.9131 17.6611 12.8452C17.6018 12.7773 17.5274 12.7399 17.4505 12.7395ZM3.33333 12.9656C3.24493 12.9656 3.16014 13.0144 3.09763 13.1012C3.03512 13.1881 3 13.3058 3 13.4286C3 13.5515 3.03512 13.6692 3.09763 13.7561C3.16014 13.8429 3.24493 13.8917 3.33333 13.8917C3.42174 13.8917 3.50652 13.8429 3.56904 13.7561C3.63155 13.6692 3.66667 13.5515 3.66667 13.4286C3.66667 13.3058 3.63155 13.1881 3.56904 13.1012C3.50652 13.0144 3.42174 12.9656 3.33333 12.9656ZM9.68229 12.9656C9.62647 12.9673 9.57185 12.9884 9.52344 13.0271C9.4855 13.0575 9.45225 13.098 9.4256 13.1463C9.39894 13.1946 9.3794 13.2498 9.36809 13.3086C9.35679 13.3674 9.35393 13.4287 9.3597 13.489C9.36547 13.5493 9.37973 13.6075 9.40169 13.6602C9.44594 13.7664 9.51872 13.8438 9.60404 13.8755C9.68937 13.9072 9.78027 13.8906 9.85677 13.8293C9.93333 13.768 9.98922 13.6669 10.0122 13.5484C10.0351 13.4299 10.0233 13.3035 9.97917 13.1971C9.94923 13.125 9.90586 13.0655 9.85361 13.0247C9.80137 12.984 9.74219 12.9636 9.68229 12.9656ZM12 12.9656C11.9116 12.9656 11.8268 13.0144 11.7643 13.1012C11.7018 13.1881 11.6667 13.3058 11.6667 13.4286C11.6667 13.5515 11.7018 13.6692 11.7643 13.7561C11.8268 13.8429 11.9116 13.8917 12 13.8917C12.0884 13.8917 12.1732 13.8429 12.2357 13.7561C12.2982 13.6692 12.3333 13.5515 12.3333 13.4286C12.3333 13.3058 12.2982 13.1881 12.2357 13.1012C12.1732 13.0144 12.0884 12.9656 12 12.9656ZM20.6667 12.9656C20.5783 12.9656 20.4935 13.0144 20.431 13.1012C20.3685 13.1881 20.3333 13.3058 20.3333 13.4286C20.3333 13.5515 20.3685 13.6692 20.431 13.7561C20.4935 13.8429 20.5783 13.8917 20.6667 13.8917C20.7551 13.8917 20.8399 13.8429 20.9024 13.7561C20.9649 13.6692 21 13.5515 21 13.4286C21 13.3058 20.9649 13.1881 20.9024 13.1012C20.8399 13.0144 20.7551 12.9656 20.6667 12.9656ZM14.293 12.9674C14.2372 12.9711 14.1831 12.9941 14.1354 13.0344C14.0877 13.0747 14.0481 13.1309 14.0202 13.198C13.9761 13.3044 13.9642 13.4308 13.9872 13.5493C14.0101 13.6679 14.066 13.7689 14.1426 13.8302C14.2191 13.8915 14.31 13.9081 14.3953 13.8764C14.4806 13.8447 14.5534 13.7673 14.5977 13.6611C14.6418 13.5548 14.6538 13.4285 14.6309 13.31C14.6081 13.1915 14.5524 13.0904 14.4759 13.0289C14.4205 12.9844 14.3569 12.9631 14.293 12.9674ZM2 13.4286C1.91159 13.4286 1.82681 13.4774 1.7643 13.5643C1.70179 13.6511 1.66667 13.7689 1.66667 13.8917C1.66667 14.0145 1.70179 14.1323 1.7643 14.2191C1.82681 14.306 1.91159 14.3548 2 14.3548C2.08841 14.3548 2.17319 14.306 2.2357 14.2191C2.29821 14.1323 2.33333 14.0145 2.33333 13.8917C2.33333 13.7689 2.29821 13.6511 2.2357 13.5643C2.17319 13.4774 2.08841 13.4286 2 13.4286ZM22 13.4286C21.9116 13.4286 21.8268 13.4774 21.7643 13.5643C21.7018 13.6511 21.6667 13.7689 21.6667 13.8917C21.6667 14.0145 21.7018 14.1323 21.7643 14.2191C21.8268 14.306 21.9116 14.3548 22 14.3548C22.0884 14.3548 22.1732 14.306 22.2357 14.2191C22.2982 14.1323 22.3333 14.0145 22.3333 13.8917C22.3333 13.7689 22.2982 13.6511 22.2357 13.5643C22.1732 13.4774 22.0884 13.4286 22 13.4286ZM6.21745 14.3023C6.15032 14.3003 6.08431 14.3265 6.02809 14.3775C5.97186 14.4285 5.92803 14.5019 5.90234 14.5881C5.88559 14.6443 5.87696 14.7045 5.87695 14.7653C5.87695 14.8261 5.88556 14.8863 5.90231 14.9425C5.91905 14.9987 5.9436 15.0497 5.97455 15.0927C6.0055 15.1357 6.04224 15.1699 6.08268 15.1931C6.12312 15.2164 6.16647 15.2284 6.21024 15.2284C6.25401 15.2284 6.29736 15.2165 6.33781 15.1932C6.37825 15.1699 6.415 15.1358 6.44596 15.0928C6.47691 15.0498 6.50147 14.9988 6.51823 14.9426C6.53499 14.8864 6.54361 14.8262 6.54362 14.7654C6.54363 14.7046 6.53501 14.6444 6.51826 14.5882C6.50152 14.532 6.47697 14.481 6.44602 14.438C6.41507 14.395 6.37833 14.3609 6.33789 14.3376C6.29967 14.3155 6.25882 14.3036 6.21745 14.3023ZM17.7923 14.3023C17.7479 14.3019 17.7038 14.3139 17.6628 14.3376C17.6223 14.3609 17.5856 14.395 17.5546 14.438C17.5237 14.481 17.4991 14.532 17.4824 14.5882C17.4656 14.6444 17.457 14.7046 17.457 14.7654C17.457 14.8262 17.4657 14.8864 17.4824 14.9426C17.4992 14.9988 17.5237 15.0498 17.5547 15.0928C17.5857 15.1358 17.6224 15.1699 17.6628 15.1932C17.7033 15.2165 17.7466 15.2284 17.7904 15.2284C17.8342 15.2284 17.8775 15.2164 17.918 15.1931C17.9584 15.1699 17.9952 15.1357 18.0261 15.0927C18.057 15.0497 18.0816 14.9987 18.0983 14.9425C18.1151 14.8863 18.1237 14.8261 18.1237 14.7653C18.1237 14.7045 18.1151 14.6443 18.0983 14.5881C18.0732 14.5039 18.0308 14.4319 17.9763 14.3811C17.9219 14.3302 17.8579 14.3028 17.7923 14.3023ZM13.3249 14.3213C13.269 14.323 13.2144 14.3441 13.166 14.3828C13.1281 14.4132 13.0948 14.4538 13.0682 14.5021C13.0415 14.5504 13.022 14.6055 13.0107 14.6643C12.9994 14.7231 12.9965 14.7844 13.0023 14.8447C13.008 14.9051 13.0223 14.9632 13.0443 15.0159C13.0885 15.1221 13.1613 15.1995 13.2466 15.2312C13.3319 15.263 13.4228 15.2463 13.4993 15.185C13.5759 15.1237 13.6318 15.0227 13.6548 14.9041C13.6777 14.7856 13.6658 14.6592 13.6217 14.5528C13.5918 14.4807 13.5484 14.4212 13.4962 14.3804C13.4439 14.3397 13.3848 14.3193 13.3249 14.3213ZM10.6504 14.3222C10.5946 14.3259 10.5404 14.3491 10.4927 14.3896C10.4451 14.43 10.4055 14.4865 10.3776 14.5537C10.3335 14.66 10.3215 14.7863 10.3443 14.9048C10.3671 15.0233 10.4229 15.1244 10.4993 15.1859C10.5373 15.2164 10.5791 15.2362 10.6226 15.2442C10.666 15.2523 10.7101 15.2483 10.7525 15.2326C10.7948 15.2169 10.8345 15.1897 10.8692 15.1527C10.904 15.1157 10.9332 15.0695 10.9551 15.0168C10.977 14.9641 10.9912 14.9059 10.997 14.8455C11.0027 14.7851 10.9998 14.7238 10.9884 14.665C10.977 14.6062 10.9574 14.5511 10.9307 14.5028C10.904 14.4545 10.8707 14.4141 10.8327 14.3837C10.7774 14.3394 10.7141 14.318 10.6504 14.3222ZM12 14.8178C11.9116 14.8178 11.8268 14.8666 11.7643 14.9534C11.7018 15.0403 11.6667 15.1581 11.6667 15.2809C11.6667 15.4037 11.7018 15.5215 11.7643 15.6083C11.8268 15.6951 11.9116 15.7439 12 15.7439C12.0884 15.7439 12.1732 15.6951 12.2357 15.6083C12.2982 15.5215 12.3333 15.4037 12.3333 15.2809C12.3333 15.1581 12.2982 15.0403 12.2357 14.9534C12.1732 14.8666 12.0884 14.8178 12 14.8178ZM18.3483 15.743C18.2812 15.7419 18.2154 15.7691 18.1595 15.8208C18.0861 15.8891 18.0351 15.9951 18.0179 16.1155C18.0007 16.2359 18.0186 16.3609 18.0677 16.4629C18.1168 16.565 18.1931 16.6357 18.2798 16.6596C18.3665 16.6835 18.4565 16.6587 18.5299 16.5905C18.6034 16.5222 18.6543 16.4162 18.6715 16.2958C18.6888 16.1754 18.6708 16.0504 18.6217 15.9483C18.5916 15.8858 18.551 15.8345 18.5033 15.7987C18.4557 15.7629 18.4025 15.7438 18.3483 15.743ZM5.66211 15.7439C5.60631 15.7425 5.55113 15.7605 5.50165 15.7964C5.45217 15.8323 5.40996 15.8848 5.37891 15.9492C5.32981 16.0513 5.3119 16.1763 5.32911 16.2967C5.34632 16.4171 5.39725 16.5231 5.4707 16.5914C5.54418 16.6596 5.63415 16.6844 5.72083 16.6605C5.80751 16.6366 5.8838 16.5659 5.93294 16.4638C5.98204 16.3618 5.99995 16.2368 5.98274 16.1164C5.96552 15.996 5.91459 15.89 5.84115 15.8217C5.78806 15.7725 5.72592 15.7455 5.66211 15.7439ZM12 16.67C11.9116 16.67 11.8268 16.7188 11.7643 16.8057C11.7018 16.8925 11.6667 17.0103 11.6667 17.1331C11.6667 17.2559 11.7018 17.3737 11.7643 17.4605C11.8268 17.5474 11.9116 17.5962 12 17.5962C12.0884 17.5962 12.1732 17.5474 12.2357 17.4605C12.2982 17.3737 12.3333 17.2559 12.3333 17.1331C12.3333 17.0103 12.2982 16.8925 12.2357 16.8057C12.1732 16.7188 12.0884 16.67 12 16.67ZM4.91406 17.0065C4.86953 17.0056 4.82532 17.0172 4.78406 17.0405C4.7428 17.0638 4.70532 17.0984 4.67383 17.1421C4.61133 17.229 4.57622 17.3467 4.57622 17.4695C4.57622 17.5923 4.61133 17.7101 4.67383 17.7969C4.73634 17.8837 4.82111 17.9325 4.90951 17.9325C4.9979 17.9325 5.08267 17.8837 5.14518 17.7969C5.20768 17.7101 5.24279 17.5923 5.24279 17.4695C5.24279 17.3467 5.20768 17.229 5.14518 17.1421C5.0838 17.0568 5.00088 17.0082 4.91406 17.0065ZM19.0951 17.0074C19.0505 17.0066 19.0063 17.0181 18.965 17.0414C18.9238 17.0647 18.8863 17.0993 18.8548 17.143C18.7923 17.2299 18.7572 17.3476 18.7572 17.4704C18.7572 17.5932 18.7923 17.711 18.8548 17.7978C18.9173 17.8847 19.0021 17.9334 19.0905 17.9334C19.1789 17.9334 19.2637 17.8847 19.3262 17.7978C19.3887 17.711 19.4238 17.5932 19.4238 17.4704C19.4238 17.3476 19.3887 17.2299 19.3262 17.143C19.2648 17.0577 19.1819 17.0091 19.0951 17.0074ZM20.0065 18.042C19.9506 18.0407 19.8954 18.0588 19.8459 18.0949C19.7965 18.1309 19.7543 18.1836 19.7233 18.2482C19.6742 18.3503 19.6563 18.4753 19.6735 18.5957C19.6907 18.7161 19.7417 18.8221 19.8151 18.8904C19.8886 18.9586 19.9785 18.9834 20.0652 18.9595C20.1519 18.9356 20.2282 18.8649 20.2773 18.7628C20.3264 18.6608 20.3444 18.5358 20.3271 18.4154C20.3099 18.295 20.259 18.189 20.1855 18.1207C20.1325 18.0712 20.0704 18.0439 20.0065 18.042ZM4.00391 18.0429C3.9367 18.0421 3.87089 18.0695 3.8151 18.1216C3.74166 18.1899 3.69073 18.2959 3.67351 18.4163C3.6563 18.5367 3.67421 18.6617 3.72331 18.7637C3.77245 18.8658 3.84874 18.9365 3.93542 18.9604C4.0221 18.9844 4.11207 18.9595 4.18555 18.8913C4.259 18.823 4.30993 18.717 4.32714 18.5966C4.34435 18.4762 4.32644 18.3512 4.27734 18.2491C4.24727 18.1865 4.20665 18.1349 4.15901 18.099C4.11136 18.0631 4.05812 18.0438 4.00391 18.0429ZM12 18.5223C11.9116 18.5223 11.8268 18.5711 11.7643 18.6579C11.7018 18.7447 11.6667 18.8625 11.6667 18.9853C11.6667 19.1081 11.7018 19.2259 11.7643 19.3128C11.8268 19.3996 11.9116 19.4484 12 19.4484C12.0884 19.4484 12.1732 19.3996 12.2357 19.3128C12.2982 19.2259 12.3333 19.1081 12.3333 18.9853C12.3333 18.8625 12.2982 18.7447 12.2357 18.6579C12.1732 18.5711 12.0884 18.5223 12 18.5223ZM21.0443 18.8126C20.9771 18.8106 20.9111 18.8368 20.8549 18.8878C20.7987 18.9388 20.7549 19.0122 20.7292 19.0984C20.7124 19.1546 20.7038 19.2148 20.7038 19.2756C20.7038 19.3364 20.7124 19.3966 20.7291 19.4528C20.7459 19.509 20.7704 19.56 20.8014 19.603C20.8323 19.646 20.8691 19.6801 20.9095 19.7034C20.9499 19.7267 20.9933 19.7387 21.0371 19.7387C21.0808 19.7387 21.1242 19.7267 21.1646 19.7035C21.2051 19.6802 21.2418 19.6461 21.2728 19.6031C21.3037 19.5601 21.3283 19.5091 21.3451 19.4529C21.3618 19.3967 21.3704 19.3365 21.3704 19.2757C21.3704 19.2149 21.3618 19.1547 21.3451 19.0985C21.3283 19.0423 21.3038 18.9913 21.2728 18.9483C21.2419 18.9052 21.2052 18.8711 21.1647 18.8479C21.1265 18.8258 21.0856 18.8139 21.0443 18.8126ZM2.96549 18.8135C2.92083 18.813 2.87655 18.825 2.83529 18.8488C2.79485 18.872 2.7581 18.9062 2.72716 18.9492C2.69621 18.9922 2.67166 19.0432 2.65491 19.0994C2.63817 19.1556 2.62955 19.2158 2.62956 19.2766C2.62956 19.3374 2.63819 19.3976 2.65495 19.4538C2.67171 19.51 2.69626 19.561 2.72722 19.604C2.75818 19.647 2.79493 19.6811 2.83537 19.7044C2.87582 19.7276 2.91916 19.7396 2.96294 19.7396C3.00671 19.7396 3.05006 19.7276 3.09049 19.7043C3.13093 19.681 3.16768 19.6469 3.19863 19.6039C3.22957 19.5609 3.25412 19.5099 3.27087 19.4537C3.28762 19.3975 3.29623 19.3373 3.29622 19.2765C3.29622 19.2157 3.28759 19.1555 3.27083 19.0993C3.24577 19.0152 3.20345 18.9433 3.14915 18.8925C3.09484 18.8417 3.03097 18.8142 2.96549 18.8135ZM1.83854 19.2883C1.81646 19.2883 1.79444 19.2913 1.77279 19.2973C1.72981 19.3091 1.68894 19.3326 1.65249 19.3663C1.61604 19.4001 1.58474 19.4435 1.56037 19.494C1.53601 19.5446 1.51905 19.6013 1.51048 19.661C1.50191 19.7207 1.50189 19.7821 1.51042 19.8418C1.52771 19.9622 1.5787 20.0681 1.6522 20.1363C1.72569 20.2045 1.81567 20.2293 1.90234 20.2054C1.94532 20.1936 1.98619 20.1701 2.02264 20.1364C2.05909 20.1026 2.09039 20.0592 2.11476 20.0087C2.13912 19.9581 2.15608 19.9014 2.16465 19.8417C2.17322 19.782 2.17324 19.7206 2.16471 19.6609C2.14968 19.556 2.10898 19.4616 2.04952 19.3937C1.99007 19.3258 1.91552 19.2885 1.83854 19.2883ZM22.1719 19.2883C22.0933 19.2856 22.0166 19.3215 21.9553 19.3896C21.8939 19.4578 21.8519 19.5539 21.8366 19.6609C21.8193 19.7813 21.8372 19.9063 21.8863 20.0084C21.9354 20.1105 22.0116 20.1814 22.0983 20.2054C22.185 20.2293 22.275 20.2045 22.3485 20.1363C22.4219 20.0681 22.4729 19.9622 22.4902 19.8418C22.5075 19.7214 22.4896 19.5964 22.4405 19.4943C22.3914 19.3922 22.3152 19.3214 22.2285 19.2973C22.2099 19.2921 22.1909 19.2891 22.1719 19.2883ZM12 20.3745C11.9116 20.3745 11.8268 20.4233 11.7643 20.5101C11.7018 20.597 11.6667 20.7147 11.6667 20.8375C11.6667 20.9604 11.7018 21.0781 11.7643 21.165C11.8268 21.2518 11.9116 21.3006 12 21.3006C12.0884 21.3006 12.1732 21.2518 12.2357 21.165C12.2982 21.0781 12.3333 20.9604 12.3333 20.8375C12.3333 20.7147 12.2982 20.597 12.2357 20.5101C12.1732 20.4233 12.0884 20.3745 12 20.3745Z" fill="#5B5B5B"/>
</svg>
