<svg width="24" height="24" viewBox="0 0 24 24" fill="none" xmlns="http://www.w3.org/2000/svg">
<path d="M11.9795 0.000396153C11.895 0.00372648 11.8137 0.0274894 11.7463 0.0685551C11.4027 0.278435 10.9206 0.630566 10.5042 1.17286C10.2993 1.43982 10.1507 1.70459 10.0353 1.958C9.77913 1.78299 9.48671 1.61154 9.14423 1.45992C8.44862 1.15181 7.8123 1.03532 7.38495 0.988046C7.35731 0.984948 7.32935 0.98407 7.30149 0.985424C7.22399 0.989302 7.14935 1.01035 7.08592 1.04623C7.02249 1.0821 6.97276 1.13139 6.94227 1.18859C6.77304 1.50618 6.56917 2.00272 6.54049 2.63894C6.52506 2.98183 6.5655 3.29685 6.63132 3.58267C6.27555 3.52661 5.88329 3.49057 5.45547 3.49879H5.45465C4.66041 3.5142 4.03774 3.671 3.63891 3.80288C3.55408 3.83103 3.48316 3.88072 3.43703 3.94431C3.39091 4.00789 3.37214 4.08185 3.3836 4.15482C3.43721 4.49829 3.57478 5.00885 3.95067 5.56977C4.15075 5.86823 4.38049 6.12084 4.61428 6.33918C4.27495 6.43382 3.91756 6.55949 3.55708 6.73699C2.87975 7.07021 2.44023 7.45612 2.17829 7.7312C2.12262 7.78967 2.09247 7.86116 2.09247 7.93469C2.09247 8.00822 2.12262 8.07972 2.17829 8.13818C2.44034 8.41338 2.87999 8.79958 3.55708 9.13304C3.89037 9.29705 4.22085 9.41614 4.53737 9.50857C4.31883 9.71381 4.10461 9.94804 3.91548 10.2223C3.5308 10.7794 3.38535 11.2891 3.32633 11.6313C3.31393 11.7041 3.33171 11.7782 3.37694 11.8421C3.42218 11.9061 3.49236 11.9563 3.57672 11.9852C3.97384 12.1213 4.59417 12.2841 5.38837 12.307C5.78228 12.3184 6.14575 12.2911 6.47994 12.2461C6.41531 12.5127 6.37256 12.8031 6.37684 13.119C6.38549 13.7557 6.57305 14.2561 6.73279 14.5772C6.76669 14.6457 6.82776 14.7033 6.90657 14.7412C6.98539 14.7791 7.07757 14.7952 7.16893 14.787C7.59819 14.7484 8.23716 14.6443 8.94212 14.3505C9.34728 14.1816 9.6893 13.9845 9.97887 13.7849C10.0991 14.0752 10.265 14.3849 10.5042 14.6965C10.6093 14.8336 10.7188 14.9585 10.8291 15.072C10.8028 15.1176 10.7897 15.1674 10.7906 15.2175V20.8026C9.90487 18.714 8.28445 17.4269 7.82273 17.0893C4.7747 14.8602 1.2242 14.7941 0.41819 14.7955C0.360065 14.7956 0.302599 14.8053 0.249446 14.8242C0.196292 14.843 0.148614 14.8705 0.109442 14.9049C0.0702698 14.9393 0.040461 14.9798 0.0219107 15.024C0.00336048 15.0681 -0.0035255 15.1148 0.00169048 15.1612C0.368916 18.4541 2.93121 20.4242 3.52598 20.859C6.57444 23.0881 10.1257 23.1539 10.9305 23.1528C10.9779 23.1526 11.025 23.146 11.0696 23.1332C11.1145 23.146 11.1619 23.1527 11.2095 23.1528H12.7904C12.8381 23.1527 12.8855 23.146 12.9304 23.1332C12.975 23.146 13.0221 23.1526 13.0695 23.1528C13.8743 23.1539 17.4256 23.0881 20.474 20.859C21.0688 20.4242 23.6311 18.4541 23.9983 15.1612C24.0035 15.1148 23.9966 15.0681 23.9781 15.024C23.9595 14.9798 23.9297 14.9393 23.8906 14.9049C23.8514 14.8705 23.8037 14.843 23.7506 14.8242C23.6974 14.8053 23.6399 14.7956 23.5818 14.7955C22.7758 14.7941 19.2253 14.8602 16.1773 17.0893C15.7156 17.4269 14.0951 18.714 13.2094 20.8026V15.2175C13.21 15.1675 13.1965 15.118 13.1701 15.0727C13.2807 14.959 13.3904 14.8345 13.4958 14.6972C13.4958 14.697 13.4958 14.6967 13.4958 14.6965C13.7004 14.4298 13.8493 14.1653 13.9647 13.912C14.2209 14.0871 14.5134 14.2586 14.8558 14.4101V14.4095C15.5514 14.7176 16.1877 14.8341 16.615 14.8813C16.7061 14.8914 16.7987 14.8772 16.8787 14.841C16.9587 14.8048 17.0216 14.7485 17.0577 14.6808C17.2277 14.3627 17.43 13.8665 17.4587 13.2304C17.4741 12.8875 17.4336 12.5726 17.3679 12.2867C17.724 12.3429 18.117 12.3789 18.5453 12.3706C19.3396 12.3552 19.9624 12.1991 20.3611 12.0672C20.4459 12.039 20.5168 11.9893 20.563 11.9257C20.6091 11.8621 20.6279 11.7882 20.6164 11.7152C20.5628 11.3718 20.4252 10.8612 20.0493 10.3003C19.8493 10.0019 19.6194 9.74924 19.3857 9.53086C19.7251 9.43622 20.0825 9.31042 20.4429 9.13304C21.12 8.79958 21.5597 8.41338 21.8217 8.13818C21.8774 8.07972 21.9075 8.00822 21.9075 7.93469C21.9075 7.86116 21.8774 7.78967 21.8217 7.7312C21.5598 7.45612 21.1202 7.07021 20.4429 6.73699C20.1095 6.57283 19.7792 6.45325 19.4626 6.36081C19.6812 6.15558 19.8953 5.9213 20.0845 5.64711C20.4692 5.08997 20.6146 4.58033 20.6737 4.23805C20.6861 4.16524 20.6683 4.09118 20.6231 4.02725C20.5778 3.96332 20.5076 3.91304 20.4233 3.88415C20.0268 3.74861 19.406 3.58533 18.6116 3.56236C18.2176 3.55098 17.8543 3.5783 17.5201 3.62331C17.5847 3.35678 17.6276 3.06602 17.6232 2.75035C17.6141 2.11396 17.4262 1.61348 17.2664 1.29214C17.2351 1.22938 17.1808 1.17565 17.1107 1.13799C17.0407 1.10034 16.958 1.08051 16.8736 1.08111C16.8594 1.08119 16.8452 1.08184 16.8311 1.08308C16.4018 1.1216 15.762 1.22511 15.0571 1.5189C14.652 1.68765 14.3105 1.8849 14.0211 2.08449C13.9009 1.79418 13.7348 1.48443 13.4958 1.17286C13.0794 0.630566 12.5973 0.278435 12.2537 0.0685551C12.1752 0.0206957 12.0781 -0.00344109 11.9795 0.000396153ZM12 0.828135C12.2504 1.00525 12.517 1.17969 12.7814 1.52414C13.0801 1.91343 13.2475 2.30289 13.3461 2.6409C13.1804 2.80112 13.0396 2.94908 12.95 3.05706C12.938 3.07103 12.9273 3.08571 12.9181 3.10097C12.6179 3.06452 12.3127 3.03937 12 3.03937C11.7396 3.03937 11.4844 3.05719 11.2325 3.08262C11.2238 3.0674 11.2136 3.05272 11.2022 3.03871C11.0964 2.90397 10.9182 2.70873 10.6989 2.49934C10.802 2.19598 10.961 1.85961 11.2186 1.52414C11.483 1.17969 11.7496 1.00525 12 0.828135ZM7.63125 1.74959C7.95806 1.80505 8.2974 1.85181 8.73837 2.04713C9.1682 2.23743 9.51374 2.46693 9.78985 2.69005C9.72762 2.95928 9.69274 3.2 9.68347 3.35919C9.68264 3.37493 9.68318 3.3907 9.68511 3.40638C9.17996 3.57262 8.71121 3.79349 8.28423 4.05651C8.26603 4.04658 8.24687 4.03781 8.22695 4.0303C8.06868 3.96432 7.82617 3.8794 7.54942 3.79567C7.43924 3.47514 7.35918 3.09025 7.3784 2.66318C7.39659 2.2597 7.5223 2.00258 7.63125 1.74959ZM16.561 1.83938C16.6621 2.09438 16.7795 2.35424 16.7852 2.75821C16.7908 3.15433 16.7103 3.51024 16.6028 3.81402C16.2837 3.90252 16.0079 3.99572 15.832 4.067C15.8131 4.07485 15.7951 4.08383 15.778 4.09387C15.3349 3.81377 14.8443 3.58062 14.3149 3.40638C14.3168 3.3907 14.3174 3.37493 14.3165 3.35919C14.309 3.22963 14.284 3.04453 14.2445 2.83882C14.5456 2.58989 14.9388 2.32512 15.4441 2.11464C15.8915 1.92818 16.2327 1.88822 16.561 1.83938ZM12 3.71047C14.5451 3.71047 16.662 5.14683 17.1617 7.06468C17.1185 7.05274 17.0731 7.04655 17.0275 7.04633C16.9163 7.04633 16.8098 7.08168 16.7312 7.14461C16.6526 7.20754 16.6085 7.29289 16.6085 7.38188C16.6085 7.47088 16.6526 7.55623 16.7312 7.61915C16.8098 7.68208 16.9163 7.71743 17.0275 7.71743C17.1092 7.71743 17.1891 7.6983 17.2574 7.66238C17.2646 7.75296 17.2746 7.84295 17.2746 7.93502C17.2746 10.272 14.9178 12.1589 12 12.1589C9.08216 12.1589 6.72542 10.272 6.72542 7.93502C6.72542 7.84273 6.73537 7.75252 6.74261 7.66173C6.81082 7.69787 6.89075 7.71724 6.97254 7.71743C7.08366 7.71743 7.19022 7.68208 7.26879 7.61915C7.34736 7.55623 7.3915 7.47088 7.3915 7.38188C7.3915 7.29289 7.34736 7.20754 7.26879 7.14461C7.19022 7.08168 7.08366 7.04633 6.97254 7.04633C6.92686 7.04655 6.88153 7.05274 6.83835 7.06468C7.33795 5.14683 9.45487 3.71047 12 3.71047ZM5.47511 4.16989C6.00852 4.15957 6.48762 4.22842 6.88662 4.32063C6.98787 4.54316 7.09082 4.73832 7.17138 4.8659C7.18032 4.88136 7.19071 4.89626 7.20248 4.91046C6.85361 5.26469 6.56377 5.65713 6.34656 6.08031C6.3365 6.07958 6.3264 6.07914 6.31629 6.079C6.30674 6.07895 6.29718 6.07917 6.28765 6.07965C6.10646 6.08642 5.8384 6.11128 5.54057 6.15174C5.24625 5.92063 4.93831 5.62418 4.68875 5.25191C4.44996 4.89558 4.39632 4.62303 4.33116 4.3606C4.64834 4.2764 4.97091 4.1796 5.47511 4.16989ZM18.5814 4.23346C19.0849 4.24802 19.4062 4.34811 19.722 4.43532C19.6528 4.69708 19.5952 4.96947 19.3513 5.32269C19.1136 5.66723 18.8266 5.94377 18.5478 6.16485C18.2115 6.11501 17.9111 6.08708 17.7124 6.07965C17.6985 6.07888 17.6845 6.07866 17.6706 6.079C17.6649 6.07912 17.6592 6.07934 17.6534 6.07965C17.4557 5.69458 17.196 5.33616 16.8884 5.00746C16.9012 4.99376 16.9127 4.9793 16.9227 4.9642C17.0162 4.82503 17.1395 4.60636 17.2582 4.35274C17.6402 4.27441 18.0868 4.21926 18.5814 4.23346ZM9.48627 4.36192C9.37516 4.36192 9.26859 4.39727 9.19002 4.4602C9.11146 4.52312 9.06732 4.60847 9.06732 4.69747C9.06732 4.78646 9.11146 4.87181 9.19002 4.93474C9.26859 4.99767 9.37516 5.03302 9.48627 5.03302C9.59738 5.03302 9.70395 4.99767 9.78252 4.93474C9.86109 4.87181 9.90523 4.78646 9.90523 4.69747C9.90523 4.60847 9.86109 4.52312 9.78252 4.4602C9.70395 4.39727 9.59738 4.36192 9.48627 4.36192ZM12 4.36192C11.8889 4.36192 11.7823 4.39727 11.7038 4.4602C11.6252 4.52312 11.581 4.60847 11.581 4.69747C11.581 4.78646 11.6252 4.87181 11.7038 4.93474C11.7823 4.99767 11.8889 5.03302 12 5.03302C12.1111 5.03302 12.2177 4.99767 12.2962 4.93474C12.3748 4.87181 12.419 4.78646 12.419 4.69747C12.419 4.60847 12.3748 4.52312 12.2962 4.4602C12.2177 4.39727 12.1111 4.36192 12 4.36192ZM14.5137 4.36192C14.4026 4.36192 14.2961 4.39727 14.2175 4.4602C14.1389 4.52312 14.0948 4.60847 14.0948 4.69747C14.0948 4.78646 14.1389 4.87181 14.2175 4.93474C14.2961 4.99767 14.4026 5.03302 14.5137 5.03302C14.6248 5.03302 14.7314 4.99767 14.81 4.93474C14.8885 4.87181 14.9327 4.78646 14.9327 4.69747C14.9327 4.60847 14.8885 4.52312 14.81 4.4602C14.7314 4.39727 14.6248 4.36192 14.5137 4.36192ZM8.22941 5.70412C8.11829 5.70412 8.01173 5.73948 7.93316 5.8024C7.85459 5.86533 7.81045 5.95068 7.81045 6.03967C7.81045 6.12867 7.85459 6.21402 7.93316 6.27695C8.01173 6.33987 8.11829 6.37523 8.22941 6.37523C8.34052 6.37523 8.44708 6.33987 8.52565 6.27695C8.60422 6.21402 8.64836 6.12867 8.64836 6.03967C8.64836 5.95068 8.60422 5.86533 8.52565 5.8024C8.44708 5.73948 8.34052 5.70412 8.22941 5.70412ZM10.7431 5.70412C10.632 5.70412 10.5255 5.73948 10.4469 5.8024C10.3683 5.86533 10.3242 5.95068 10.3242 6.03967C10.3242 6.12867 10.3683 6.21402 10.4469 6.27695C10.5255 6.33987 10.632 6.37523 10.7431 6.37523C10.8542 6.37523 10.9608 6.33987 11.0394 6.27695C11.118 6.21402 11.1621 6.12867 11.1621 6.03967C11.1621 5.95068 11.118 5.86533 11.0394 5.8024C10.9608 5.73948 10.8542 5.70412 10.7431 5.70412ZM13.2569 5.70412C13.1458 5.70412 13.0392 5.73948 12.9606 5.8024C12.882 5.86533 12.8379 5.95068 12.8379 6.03967C12.8379 6.12867 12.882 6.21402 12.9606 6.27695C13.0392 6.33987 13.1458 6.37523 13.2569 6.37523C13.368 6.37523 13.4745 6.33987 13.5531 6.27695C13.6317 6.21402 13.6758 6.12867 13.6758 6.03967C13.6758 5.95068 13.6317 5.86533 13.5531 5.8024C13.4745 5.73948 13.368 5.70412 13.2569 5.70412ZM15.7706 5.70412C15.6595 5.70412 15.5529 5.73948 15.4743 5.8024C15.3958 5.86533 15.3516 5.95068 15.3516 6.03967C15.3516 6.12867 15.3958 6.21402 15.4743 6.27695C15.5529 6.33987 15.6595 6.37523 15.7706 6.37523C15.8817 6.37523 15.9883 6.33987 16.0668 6.27695C16.1454 6.21402 16.1895 6.12867 16.1895 6.03967C16.1895 5.95068 16.1454 5.86533 16.0668 5.8024C15.9883 5.73948 15.8817 5.70412 15.7706 5.70412ZM5.29672 6.87331C5.52907 7.02842 5.74561 7.15819 5.89815 7.23704C5.91533 7.24663 5.93338 7.25518 5.95216 7.2626C5.91412 7.48296 5.88751 7.70641 5.88751 7.93502C5.88751 8.14361 5.90976 8.34797 5.94152 8.54976C5.92282 8.55655 5.90477 8.56444 5.88751 8.57335C5.71918 8.65815 5.47514 8.80116 5.21326 8.97706C4.83473 8.89443 4.41501 8.76675 3.99649 8.5609H3.99567C3.56585 8.34913 3.34771 8.13481 3.12667 7.93436C3.34782 7.7338 3.56594 7.51989 3.99567 7.30848C3.99594 7.30848 3.99622 7.30848 3.99649 7.30848C4.44601 7.08714 4.89751 6.95442 5.29672 6.87331ZM18.7876 6.89232C19.1659 6.97476 19.5849 7.10238 20.0035 7.30848C20.0038 7.30848 20.0041 7.30848 20.0043 7.30848C20.4341 7.51989 20.6522 7.7338 20.8733 7.93436C20.6522 8.13492 20.4337 8.34904 20.0035 8.5609C19.5541 8.78193 19.1017 8.91407 18.7025 8.99541C18.4707 8.84055 18.2548 8.7111 18.1027 8.63234C18.0852 8.62317 18.0668 8.61506 18.0478 8.60809C18.086 8.38753 18.1125 8.16385 18.1125 7.93502C18.1125 7.72599 18.0904 7.52117 18.0585 7.31897C18.0772 7.31238 18.0952 7.30472 18.1125 7.29603C18.281 7.21116 18.5255 7.0684 18.7876 6.89232ZM9.48627 7.04633C9.37516 7.04633 9.26859 7.08168 9.19002 7.14461C9.11146 7.20754 9.06732 7.29289 9.06732 7.38188C9.06732 7.47088 9.11146 7.55623 9.19002 7.61915C9.26859 7.68208 9.37516 7.71743 9.48627 7.71743C9.59738 7.71743 9.70395 7.68208 9.78252 7.61915C9.86109 7.55623 9.90523 7.47088 9.90523 7.38188C9.90523 7.29289 9.86109 7.20754 9.78252 7.14461C9.70395 7.08168 9.59738 7.04633 9.48627 7.04633ZM12 7.04633C11.8889 7.04633 11.7823 7.08168 11.7038 7.14461C11.6252 7.20754 11.581 7.29289 11.581 7.38188C11.581 7.47088 11.6252 7.55623 11.7038 7.61915C11.7823 7.68208 11.8889 7.71743 12 7.71743C12.1111 7.71743 12.2177 7.68208 12.2962 7.61915C12.3748 7.55623 12.419 7.47088 12.419 7.38188C12.419 7.29289 12.3748 7.20754 12.2962 7.14461C12.2177 7.08168 12.1111 7.04633 12 7.04633ZM14.5137 7.04633C14.4026 7.04633 14.2961 7.08168 14.2175 7.14461C14.1389 7.20754 14.0948 7.29289 14.0948 7.38188C14.0948 7.47088 14.1389 7.55623 14.2175 7.61915C14.2961 7.68208 14.4026 7.71743 14.5137 7.71743C14.6248 7.71743 14.7314 7.68208 14.81 7.61915C14.8885 7.55623 14.9327 7.47088 14.9327 7.38188C14.9327 7.29289 14.8885 7.20754 14.81 7.14461C14.7314 7.08168 14.6248 7.04633 14.5137 7.04633ZM8.22941 8.38854C8.11829 8.38854 8.01173 8.42389 7.93316 8.48682C7.85459 8.54975 7.81045 8.6351 7.81045 8.72409C7.81045 8.81308 7.85459 8.89843 7.93316 8.96136C8.01173 9.02429 8.11829 9.05964 8.22941 9.05964C8.34052 9.05964 8.44708 9.02429 8.52565 8.96136C8.60422 8.89843 8.64836 8.81308 8.64836 8.72409C8.64836 8.6351 8.60422 8.54975 8.52565 8.48682C8.44708 8.42389 8.34052 8.38854 8.22941 8.38854ZM10.7431 8.38854C10.632 8.38854 10.5255 8.42389 10.4469 8.48682C10.3683 8.54975 10.3242 8.6351 10.3242 8.72409C10.3242 8.81308 10.3683 8.89843 10.4469 8.96136C10.5255 9.02429 10.632 9.05964 10.7431 9.05964C10.8542 9.05964 10.9608 9.02429 11.0394 8.96136C11.118 8.89843 11.1621 8.81308 11.1621 8.72409C11.1621 8.6351 11.118 8.54975 11.0394 8.48682C10.9608 8.42389 10.8542 8.38854 10.7431 8.38854ZM13.2569 8.38854C13.1458 8.38854 13.0392 8.42389 12.9606 8.48682C12.882 8.54975 12.8379 8.6351 12.8379 8.72409C12.8379 8.81308 12.882 8.89843 12.9606 8.96136C13.0392 9.02429 13.1458 9.05964 13.2569 9.05964C13.368 9.05964 13.4745 9.02429 13.5531 8.96136C13.6317 8.89843 13.6758 8.81308 13.6758 8.72409C13.6758 8.6351 13.6317 8.54975 13.5531 8.48682C13.4745 8.42389 13.368 8.38854 13.2569 8.38854ZM15.7706 8.38854C15.6595 8.38854 15.5529 8.42389 15.4743 8.48682C15.3958 8.54975 15.3516 8.6351 15.3516 8.72409C15.3516 8.81308 15.3958 8.89843 15.4743 8.96136C15.5529 9.02429 15.6595 9.05964 15.7706 9.05964C15.8817 9.05964 15.9883 9.02429 16.0668 8.96136C16.1454 8.89843 16.1895 8.81308 16.1895 8.72409C16.1895 8.6351 16.1454 8.54975 16.0668 8.48682C15.9883 8.42389 15.8817 8.38854 15.7706 8.38854ZM5.45219 9.70453C5.78853 9.75443 6.08895 9.78296 6.28765 9.79038C6.30703 9.79103 6.32644 9.79059 6.34575 9.78907C6.54343 10.1744 6.80389 10.5324 7.11165 10.8613C7.09848 10.8754 7.08671 10.8903 7.07646 10.9058C6.98307 11.0449 6.8602 11.2634 6.74179 11.5166C6.35982 11.595 5.91318 11.6502 5.41864 11.6359C4.91477 11.6213 4.59361 11.5213 4.27798 11.4341C4.34721 11.1723 4.40476 10.8999 4.64865 10.5467C4.88633 10.202 5.17326 9.92566 5.45219 9.70453ZM18.4602 9.71764C18.7545 9.94867 19.0617 10.2452 19.3113 10.6175C19.5499 10.9736 19.6037 11.2464 19.6688 11.5088C19.3518 11.593 19.0291 11.6904 18.5249 11.7001C17.9915 11.7105 17.5123 11.6411 17.1134 11.5488C17.0122 11.3261 16.9092 11.1311 16.8286 11.0035C16.8193 10.9884 16.8087 10.974 16.7967 10.9602C17.1461 10.6056 17.4368 10.2128 17.6543 9.78907C17.6736 9.79059 17.693 9.79103 17.7124 9.79038C17.8936 9.78361 18.162 9.75823 18.4602 9.71764ZM9.48627 9.73075C9.37516 9.73075 9.26859 9.7661 9.19002 9.82903C9.11146 9.89195 9.06732 9.9773 9.06732 10.0663C9.06732 10.1553 9.11146 10.2406 9.19002 10.3036C9.26859 10.3665 9.37516 10.4018 9.48627 10.4018C9.59738 10.4018 9.70395 10.3665 9.78252 10.3036C9.86109 10.2406 9.90523 10.1553 9.90523 10.0663C9.90523 9.9773 9.86109 9.89195 9.78252 9.82903C9.70395 9.7661 9.59738 9.73075 9.48627 9.73075ZM12 9.73075C11.8889 9.73075 11.7823 9.7661 11.7038 9.82903C11.6252 9.89195 11.581 9.9773 11.581 10.0663C11.581 10.1553 11.6252 10.2406 11.7038 10.3036C11.7823 10.3665 11.8889 10.4018 12 10.4018C12.1111 10.4018 12.2177 10.3665 12.2962 10.3036C12.3748 10.2406 12.419 10.1553 12.419 10.0663C12.419 9.9773 12.3748 9.89195 12.2962 9.82903C12.2177 9.7661 12.1111 9.73075 12 9.73075ZM14.5137 9.73075C14.4026 9.73075 14.2961 9.7661 14.2175 9.82903C14.1389 9.89195 14.0948 9.9773 14.0948 10.0663C14.0948 10.1553 14.1389 10.2406 14.2175 10.3036C14.2961 10.3665 14.4026 10.4018 14.5137 10.4018C14.6248 10.4018 14.7314 10.3665 14.81 10.3036C14.8885 10.2406 14.9327 10.1553 14.9327 10.0663C14.9327 9.9773 14.8885 9.89195 14.81 9.82903C14.7314 9.7661 14.6248 9.73075 14.5137 9.73075ZM10.7431 11.073C10.632 11.073 10.5255 11.1083 10.4469 11.1712C10.3683 11.2342 10.3242 11.3195 10.3242 11.4085C10.3242 11.4975 10.3683 11.5828 10.4469 11.6458C10.5255 11.7087 10.632 11.7441 10.7431 11.7441C10.8542 11.7441 10.9608 11.7087 11.0394 11.6458C11.118 11.5828 11.1621 11.4975 11.1621 11.4085C11.1621 11.3195 11.118 11.2342 11.0394 11.1712C10.9608 11.1083 10.8542 11.073 10.7431 11.073ZM13.2569 11.073C13.1458 11.073 13.0392 11.1083 12.9606 11.1712C12.882 11.2342 12.8379 11.3195 12.8379 11.4085C12.8379 11.4975 12.882 11.5828 12.9606 11.6458C13.0392 11.7087 13.1458 11.7441 13.2569 11.7441C13.368 11.7441 13.4745 11.7087 13.5531 11.6458C13.6317 11.5828 13.6758 11.4975 13.6758 11.4085C13.6758 11.3195 13.6317 11.2342 13.5531 11.1712C13.4745 11.1083 13.368 11.073 13.2569 11.073ZM8.22204 11.7755C8.66493 12.0555 9.155 12.2888 9.68429 12.463C9.68264 12.4787 9.68236 12.4945 9.68347 12.5102C9.69103 12.6399 9.716 12.8252 9.75548 13.0312C9.45443 13.2803 9.06095 13.5449 8.5559 13.7554C8.10813 13.942 7.76658 13.9819 7.43814 14.0307C7.33695 13.7756 7.22024 13.5158 7.21475 13.1118C7.20938 12.7153 7.28975 12.3593 7.39722 12.0554C7.71635 11.9669 7.99206 11.8737 8.16804 11.8024C8.18686 11.7945 8.20492 11.7856 8.22204 11.7755ZM15.7174 11.8122C15.7351 11.8223 15.7537 11.8313 15.773 11.8391C15.9311 11.905 16.1735 11.9894 16.4498 12.0731C16.5603 12.3938 16.6408 12.779 16.6216 13.2062C16.6034 13.61 16.4777 13.8669 16.3687 14.1198C16.0419 14.0643 15.7019 14.0176 15.2608 13.8222C14.8307 13.632 14.4854 13.4026 14.2093 13.1793C14.2716 12.9101 14.3073 12.6693 14.3165 12.5102C14.3174 12.4944 14.3168 12.4787 14.3149 12.463C14.8207 12.2966 15.29 12.0756 15.7174 11.8122ZM11.0803 12.7684C11.381 12.805 11.6867 12.83 12 12.83C12.2607 12.83 12.5161 12.8122 12.7684 12.7868C12.7765 12.8019 12.7861 12.8166 12.797 12.8307C12.9029 12.9656 13.0812 13.1614 13.3011 13.3714C13.1979 13.6745 13.0384 14.0102 12.7814 14.3452C12.517 14.6897 12.2504 14.8641 12 15.0412C11.7495 14.8641 11.4826 14.6895 11.2186 14.3452C10.9199 13.9562 10.7524 13.5669 10.6539 13.2291C10.8197 13.069 10.9604 12.9209 11.05 12.813C11.0615 12.7987 11.0716 12.7839 11.0803 12.7684ZM1.57932 15.5308C2.93553 15.6493 5.18245 16.0674 7.25812 17.5854C7.7811 17.9678 9.90581 19.673 10.4036 22.4594C9.21955 22.4162 6.53084 22.1473 4.09059 20.3629C3.60539 20.0082 1.74359 18.5137 1.07935 16.0748C1.37639 16.2937 1.67338 16.5125 1.97045 16.7315C2.00798 16.7592 2.05152 16.7812 2.09892 16.7963C2.10166 16.7972 2.10434 16.7981 2.1071 16.799C2.15315 16.8129 2.2019 16.8202 2.25112 16.8206C2.25253 16.8206 2.2538 16.8212 2.25521 16.8212C2.25661 16.8212 2.2579 16.8206 2.2593 16.8206C2.34339 16.8199 2.42527 16.7989 2.49428 16.7604C2.56329 16.7219 2.61624 16.6677 2.64626 16.6048C2.67627 16.5419 2.68194 16.4732 2.66255 16.4076C2.64316 16.3421 2.59959 16.2827 2.53751 16.2373C2.21799 16.0018 1.89878 15.7662 1.57932 15.5308ZM22.4207 15.5308C22.1012 15.7663 21.782 16.002 21.4625 16.2373C21.4217 16.2671 21.3886 16.303 21.3652 16.343C21.3418 16.383 21.3285 16.4264 21.326 16.4705C21.3236 16.5147 21.3321 16.5588 21.351 16.6003C21.3698 16.6418 21.3988 16.68 21.4361 16.7125C21.4735 16.745 21.5185 16.7713 21.5685 16.7899C21.6186 16.8085 21.6728 16.819 21.7279 16.8207C21.7831 16.8225 21.8381 16.8155 21.8899 16.8002C21.9416 16.7849 21.9891 16.7615 22.0295 16.7315C22.3267 16.5126 22.6236 16.2936 22.9206 16.0748C22.2564 18.5137 20.3946 20.0082 19.9094 20.3629C17.701 21.9778 15.3011 22.3487 13.9851 22.4372C13.9707 22.3784 13.9431 22.3217 13.8894 22.274C13.8265 22.2181 13.7437 22.189 13.6578 22.1763C14.2435 19.5593 16.237 17.9545 16.7419 17.5854C18.8175 16.0674 21.0645 15.6493 22.4207 15.5308ZM11.6285 15.7241C11.6673 15.7493 11.7103 15.7795 11.7463 15.8015C11.8193 15.8459 11.9084 15.87 12 15.87C12.0916 15.87 12.1807 15.8459 12.2537 15.8015C12.2897 15.7795 12.3327 15.7493 12.3715 15.7241V22.4817H11.6285V15.7241ZM20.9993 16.7125C20.8925 16.7091 20.7833 16.7389 20.6974 16.8009C20.5256 16.9284 20.517 17.1399 20.672 17.2741C20.7558 17.3479 20.869 17.3849 20.9822 17.3849C21.0827 17.3849 21.1832 17.3542 21.2628 17.2938C21.4346 17.1696 21.4474 16.9588 21.2882 16.8212C21.2107 16.7525 21.1062 16.7158 20.9993 16.7125ZM3.46952 17.0585C3.36217 17.0618 3.25618 17.0978 3.17658 17.1666C3.02157 17.3008 3.03437 17.5157 3.20195 17.6398C3.28574 17.7002 3.38616 17.727 3.48671 17.727C3.59982 17.727 3.71304 17.6933 3.79683 17.6195C3.95184 17.4819 3.93905 17.2705 3.77147 17.1463C3.68558 17.0842 3.57688 17.0551 3.46952 17.0585ZM19.7646 17.6221C19.6577 17.6188 19.5497 17.6479 19.4659 17.7099C19.2941 17.8341 19.2813 18.0489 19.4405 18.1831C19.5201 18.2569 19.6335 18.2939 19.7466 18.2939C19.8513 18.2939 19.9517 18.2638 20.0313 18.2034C20.2031 18.0793 20.2117 17.8678 20.0567 17.7302C19.9771 17.6615 19.8714 17.6255 19.7646 17.6221ZM4.70184 17.9662C4.59501 17.97 4.4905 18.0068 4.41299 18.0756C4.25379 18.2099 4.26577 18.4213 4.43754 18.5488C4.51714 18.6092 4.61766 18.636 4.7182 18.636C4.83132 18.636 4.94454 18.603 5.02833 18.5292C5.18334 18.3916 5.17555 18.1801 5.00378 18.056C4.9179 17.9922 4.80867 17.9624 4.70184 17.9662ZM18.5323 18.5305C18.4249 18.5267 18.3154 18.5558 18.2295 18.6196C18.0619 18.7437 18.0499 18.9586 18.2049 19.0928C18.2887 19.1632 18.402 19.2003 18.5151 19.2003C18.6156 19.2003 18.716 19.1735 18.7998 19.1131C18.9674 18.9856 18.9794 18.7741 18.8244 18.6399C18.7448 18.5711 18.6396 18.5342 18.5323 18.5305ZM5.93743 18.8758C5.83007 18.8796 5.72409 18.9165 5.64449 18.9853C5.48947 19.1195 5.49808 19.331 5.66985 19.4585C5.74946 19.5155 5.85406 19.5456 5.95461 19.5456C6.06773 19.5456 6.18104 19.5086 6.26065 19.4382C6.41985 19.3006 6.40695 19.0891 6.23937 18.965C6.15349 18.9012 6.04479 18.8721 5.93743 18.8758ZM17.2999 19.4388C17.1931 19.4355 17.0839 19.4648 16.998 19.5286C16.8262 19.6528 16.8176 19.8642 16.9726 20.0018C17.0564 20.0722 17.1696 20.1093 17.2828 20.1093C17.3833 20.1093 17.4838 20.0791 17.5634 20.0221C17.7352 19.8946 17.748 19.6832 17.5888 19.5456C17.5113 19.4785 17.4068 19.4422 17.2999 19.4388ZM7.16975 19.7842C7.06291 19.788 6.95758 19.8239 6.88008 19.891C6.72087 20.0286 6.73377 20.24 6.90135 20.3642C6.98514 20.4246 7.08556 20.4553 7.18611 20.4553C7.29923 20.4553 7.41244 20.4183 7.49624 20.3478C7.65125 20.2102 7.64264 19.9989 7.47087 19.8714C7.38498 19.8093 7.27658 19.7804 7.16975 19.7842ZM16.0644 20.3478C15.957 20.344 15.8483 20.3729 15.7624 20.435H15.7665C15.5947 20.5625 15.5819 20.7739 15.7411 20.9114C15.8207 20.9819 15.9341 21.0189 16.0472 21.0189C16.1477 21.0189 16.2523 20.9888 16.3319 20.9318C16.4995 20.8042 16.5123 20.5929 16.3573 20.4553C16.2777 20.3882 16.1717 20.3516 16.0644 20.3478ZM8.40288 20.6925C8.29552 20.6959 8.1899 20.7319 8.11239 20.8007C7.95319 20.9383 7.96517 21.1497 8.13694 21.2739C8.21654 21.3343 8.31706 21.3643 8.41761 21.3643C8.53073 21.3643 8.64394 21.3274 8.72773 21.2535C8.88275 21.1193 8.87496 20.9045 8.70319 20.7804C8.61939 20.7183 8.51024 20.6892 8.40288 20.6925ZM14.832 21.2562C14.7252 21.2528 14.616 21.2819 14.5301 21.344C14.3583 21.4715 14.3505 21.6829 14.5055 21.8172C14.5893 21.891 14.7026 21.9279 14.8157 21.9279C14.9162 21.9279 15.0166 21.8979 15.1004 21.8375C15.268 21.7133 15.2801 21.5019 15.1209 21.3643C15.0434 21.2955 14.9389 21.2595 14.832 21.2562ZM9.63683 21.6015C9.52948 21.6049 9.42349 21.6409 9.34389 21.7097C9.18888 21.8473 9.19749 22.0587 9.36926 22.1829C9.44886 22.2433 9.55347 22.274 9.65402 22.274C9.76713 22.274 9.88035 22.237 9.96414 22.1632C10.1192 22.029 10.1064 21.8142 9.93878 21.69C9.85289 21.6279 9.74419 21.5982 9.63683 21.6015Z" fill="#5B5B5B"/>
</svg>
