<svg width="24" height="24" viewBox="0 0 24 24" fill="none" xmlns="http://www.w3.org/2000/svg">
<path d="M11.2113 0.00301056C11.1094 -0.00344999 11.0054 0.0030107 10.8995 0.0223918C10.2962 0.136526 9.88655 0.659819 9.78872 1.24556C9.78872 1.24556 9.78872 1.24556 9.78872 1.24772L8.37228 9.7324L6.65421 12.9475C6.65421 12.9497 6.65421 12.9497 6.65421 12.9497C6.5625 13.1241 6.38927 13.2296 6.20177 13.2296H4.17391C4.17391 12.926 3.93954 12.6783 3.65217 12.6783H0.521739C0.234375 12.6783 0 12.926 0 13.2296V22.6015C0 22.9052 0.234375 23.1528 0.521739 23.1528H3.65217C3.93954 23.1528 4.17391 22.9052 4.17391 22.6015V20.9477H7.36957C9.39334 20.9477 11.1298 19.4079 11.4803 17.304L12 14.1965L12.5197 17.304C12.8702 19.4079 14.6067 20.9477 16.6304 20.9477H19.8261V22.6015C19.8261 22.9052 20.0605 23.1528 20.3478 23.1528H23.4783C23.7656 23.1528 24 22.9052 24 22.6015V13.2296C24 12.926 23.7656 12.6783 23.4783 12.6783H20.3478C20.0605 12.6783 19.8261 12.926 19.8261 13.2296H17.7982C17.6107 13.2296 17.4375 13.1241 17.3458 12.9497C17.3458 12.9497 17.3458 12.9497 17.3458 12.9475L15.6277 9.7324L14.2113 1.24772C14.2113 1.24556 14.2113 1.24556 14.2113 1.24556C14.1135 0.659819 13.7038 0.136526 13.1005 0.0223918C12.6909 -0.0551332 12.2976 0.074075 12 0.326031C11.7799 0.138679 11.5068 0.0180844 11.2113 0.00301056ZM11.0829 1.10774C11.3193 1.06252 11.4783 1.22834 11.4783 1.45014V10.9749L10.4531 17.1123C10.1902 18.6973 8.89402 19.8451 7.36957 19.8451H4.17391V14.3322H6.20177C6.76427 14.3322 7.28804 14.0092 7.56522 13.4902H7.56318L9.32405 10.1932C9.35258 10.1394 9.37296 10.0791 9.38315 10.0167L10.8159 1.43722C10.8444 1.26279 10.9667 1.12928 11.0829 1.10774ZM12.9171 1.10774C13.0333 1.12928 13.1556 1.26279 13.1841 1.43722L14.6168 10.0167C14.627 10.0791 14.6474 10.1394 14.676 10.1932L16.4368 13.4902H16.4348C16.712 14.0092 17.2357 14.3322 17.7982 14.3322H19.8261V19.8451H16.6304C15.106 19.8451 13.8098 18.6973 13.5469 17.1123L12.5217 10.9749V1.45014C12.5217 1.22834 12.6807 1.06252 12.9171 1.10774ZM1.04348 13.7809H3.13043V22.0503H1.04348V13.7809ZM20.8696 13.7809H22.9565V22.0503H20.8696V13.7809Z" fill="#5B5B5B"/>
</svg>
