<svg width="24" height="24" viewBox="0 0 24 24" fill="none" xmlns="http://www.w3.org/2000/svg">
<path d="M12 0C11.6746 0 11.4098 0.264105 11.4098 0.588644C11.4098 0.616827 11.4144 0.643517 11.4183 0.670655L7.9772 3.52726C7.97561 3.52859 7.9749 3.53049 7.97336 3.53186H1.34554C0.603904 3.53186 0 4.13344 0 4.87317V21.8112C0 22.551 0.603904 23.1533 1.34554 23.1533H22.6552C23.3969 23.1533 24 22.551 24 21.8112V4.87317C24 4.13344 23.3969 3.53186 22.6552 3.53186H16.1043C16.103 3.53074 16.1025 3.52913 16.1012 3.52803L12.5879 0.611638C12.5882 0.603807 12.5902 0.596548 12.5902 0.588644C12.5902 0.264105 12.3254 0 12 0ZM12 0.392429C12.1082 0.392429 12.1967 0.480726 12.1967 0.588644C12.1967 0.696562 12.1082 0.784858 12 0.784858C11.8918 0.784858 11.8033 0.696562 11.8033 0.588644C11.8033 0.480726 11.8918 0.392429 12 0.392429ZM12.4288 0.99027L15.4903 3.53186H8.58735L11.6081 1.02476C11.7126 1.11811 11.849 1.17729 12 1.17729C12.1692 1.17729 12.3211 1.10443 12.4288 0.99027ZM1.34554 4.31672H22.6552C22.9629 4.31672 23.2131 4.56629 23.2131 4.87317V21.8112C23.2131 22.1181 22.9629 22.3685 22.6552 22.3685H1.34554C1.03787 22.3685 0.786885 22.1181 0.786885 21.8112V4.87317C0.786885 4.56629 1.03787 4.31672 1.34554 4.31672ZM2.55738 5.88644C2.44879 5.88644 2.36066 5.97434 2.36066 6.08265V20.6025C2.36066 20.7108 2.44879 20.7987 2.55738 20.7987H21.4426C21.5512 20.7987 21.6393 20.7112 21.6393 20.6025V20.171C21.6872 20.1051 21.6917 20.0145 21.6424 19.9441L21.6393 19.9395V12.8091C21.6872 12.7424 21.6919 12.6518 21.6409 12.5815L21.6393 12.5792V6.08265C21.6393 5.97434 21.5512 5.88644 21.4426 5.88644H2.55738ZM2.7541 6.27887H21.2459V12.0396L19.5715 9.74175C19.4641 9.59419 19.2961 9.50397 19.1112 9.49495C18.9207 9.48984 18.749 9.55994 18.6271 9.69729L16.2795 12.3362L14.4767 9.77777C14.3709 9.62669 14.196 9.53633 14.0087 9.53633C14.0075 9.53633 14.0064 9.53671 14.0049 9.5371C13.816 9.53828 13.6408 9.63082 13.5353 9.78544L9.29508 16.0221L6.78074 12.6505C6.65641 12.4837 6.46445 12.3825 6.25435 12.3722C6.03875 12.3648 5.84154 12.4445 5.70108 12.5991L2.7541 15.8374V6.27887ZM8.06557 7.45615C7.08944 7.45615 6.29508 8.24847 6.29508 9.22208C6.29508 10.1957 7.08944 10.988 8.06557 10.988C9.04171 10.988 9.83607 10.1957 9.83607 9.22208C9.83607 8.24847 9.04171 7.45615 8.06557 7.45615ZM8.06557 7.84858C8.82452 7.84858 9.44262 8.4647 9.44262 9.22208C9.44262 9.97947 8.82492 10.5956 8.06557 10.5956C7.30623 10.5956 6.68852 9.97947 6.68852 9.22208C6.68852 8.4647 7.30623 7.84858 8.06557 7.84858ZM19.092 9.88737C19.1573 9.89051 19.216 9.92181 19.2533 9.97322L21.2459 12.7064V19.3816L16.5123 12.6658L18.9214 9.95789C18.9639 9.91041 19.0266 9.88188 19.092 9.88737ZM14.0079 9.92876C14.0677 9.92876 14.1217 9.95564 14.1547 10.0023L16.0312 12.665C16.0208 12.7291 16.0397 12.7971 16.092 12.8436C16.1199 12.8681 16.1529 12.8796 16.1872 12.8858L21.2459 20.0637V20.4063H6.78996L13.8604 10.0054C13.8934 9.95714 13.947 9.92955 14.0079 9.92876ZM6.23514 12.7639C6.32721 12.7686 6.41101 12.8124 6.46491 12.885L9.06071 16.3671L6.31429 20.4063H2.7541V16.4207L5.99155 12.8628C6.05253 12.7957 6.14387 12.7568 6.23514 12.7639Z" fill="#5B5B5B"/>
</svg>
