<svg width="24" height="24" viewBox="0 0 24 24" fill="none" xmlns="http://www.w3.org/2000/svg">
<path d="M5.46095 0.000394544C4.11203 0.000394544 3.026 1.36724 3.026 2.49844L3.00941 14.7605L0.304295 14.7531C0.139585 14.7531 0.00400981 14.8785 0.000369813 15.0356C-0.000540185 15.0842 -0.000838779 21.0256 0.0128112 21.1587C0.175398 22.7515 1.8148 23.1528 2.8613 23.1528C2.96959 23.1528 3.07151 23.1485 3.16463 23.141L20.8427 23.1398C22.0144 23.2477 22.6583 21.3719 22.7284 21.1581C22.7375 21.1301 22.7426 21.1012 22.7426 21.0717V2.87807L23.6959 2.87637C23.86 2.87608 23.9941 2.75152 23.9986 2.59504C24.0202 1.86762 23.7897 1.27394 23.3138 0.830253C22.3504 -0.0681137 20.7316 -0.000513851 20.678 0.00208956L5.46095 0.000394544ZM5.46155 0.578866L20.6928 0.580562C20.7061 0.579115 22.1197 0.52411 22.8913 1.24547C23.1795 1.51503 23.3448 1.8681 23.3843 2.2979L12.1254 2.31598C11.9576 2.31627 11.8223 2.44612 11.8226 2.60578C11.823 2.76544 11.9585 2.89445 12.126 2.89445L22.136 2.87863V21.0259C21.9467 21.5743 21.4223 22.6186 20.8705 22.5625L3.13856 22.5636C3.04271 22.5723 0.783334 22.7367 0.617107 21.1135C0.608311 20.9128 0.606443 16.5039 0.606443 15.3322L3.00882 15.3384L3.00111 20.8344C3.00111 20.855 3.00308 20.8749 3.00763 20.8949C3.00884 20.8992 3.10185 21.3568 2.81035 21.5344C2.66899 21.6203 2.62783 21.7993 2.71792 21.9337C2.77586 22.0202 2.87376 22.0676 2.97386 22.0676C3.02967 22.0676 3.08613 22.0528 3.13678 22.0219C3.63607 21.7179 3.67056 21.1307 3.60837 20.8067L3.61607 15.1288C3.62362 15.1037 3.63261 15.0788 3.63266 15.0514C3.63277 15.0235 3.62372 14.9984 3.61607 14.9729L3.63266 2.49901C3.63266 1.63477 4.47662 0.578866 5.46155 0.578866ZM9.09265 2.31598C8.92521 2.31598 8.78932 2.44555 8.78932 2.60521C8.78932 2.76487 8.92521 2.89445 9.09265 2.89445H10.6093C10.7768 2.89445 10.9127 2.76487 10.9127 2.60521C10.9127 2.44555 10.7768 2.31598 10.6093 2.31598H9.09265ZM4.99766 4.9191C4.91394 4.9191 4.84599 4.98389 4.84599 5.06372C4.84599 5.14355 4.91394 5.20834 4.99766 5.20834H11.9743C12.058 5.20834 12.126 5.14355 12.126 5.06372C12.126 4.98389 12.058 4.9191 11.9743 4.9191H4.99766ZM12.8843 4.9191C12.8006 4.9191 12.7326 4.98389 12.7326 5.06372C12.7326 5.14355 12.8006 5.20834 12.8843 5.20834H17.131C17.2147 5.20834 17.2826 5.14355 17.2826 5.06372C17.2826 4.98389 17.2147 4.9191 17.131 4.9191H12.8843ZM18.041 4.9191C17.9573 4.9191 17.8893 4.98389 17.8893 5.06372C17.8893 5.14355 17.9573 5.20834 18.041 5.20834H21.3776C21.4614 5.20834 21.5293 5.14355 21.5293 5.06372C21.5293 4.98389 21.4614 4.9191 21.3776 4.9191H18.041ZM4.99766 6.65452C4.91394 6.65452 4.84599 6.71931 4.84599 6.79913C4.84599 6.87896 4.91394 6.94375 4.99766 6.94375H10.4577C10.5414 6.94375 10.6093 6.87896 10.6093 6.79913C10.6093 6.71931 10.5414 6.65452 10.4577 6.65452H4.99766ZM11.3677 6.65452C11.2839 6.65452 11.216 6.71931 11.216 6.79913C11.216 6.87896 11.2839 6.94375 11.3677 6.94375H21.3776C21.4614 6.94375 21.5293 6.87896 21.5293 6.79913C21.5293 6.71931 21.4614 6.65452 21.3776 6.65452H11.3677ZM4.99766 8.9684C4.91394 8.9684 4.84599 9.03319 4.84599 9.11302V13.7408C4.84599 13.8206 4.91394 13.8854 4.99766 13.8854H10.1543C10.238 13.8854 10.306 13.8206 10.306 13.7408V9.98073C10.306 9.9009 10.238 9.83611 10.1543 9.83611C10.0706 9.83611 10.0027 9.9009 10.0027 9.98073V13.5962H5.14933V9.25764H9.24432C9.32804 9.25764 9.39599 9.19285 9.39599 9.11302C9.39599 9.03319 9.32804 8.9684 9.24432 8.9684H4.99766ZM11.9743 9.54688C11.8906 9.54688 11.8226 9.61167 11.8226 9.69149C11.8226 9.77132 11.8906 9.83611 11.9743 9.83611H21.3776C21.4614 9.83611 21.5293 9.77132 21.5293 9.69149C21.5293 9.61167 21.4614 9.54688 21.3776 9.54688H11.9743ZM11.9743 11.5715C11.8906 11.5715 11.8226 11.6363 11.8226 11.7161C11.8226 11.796 11.8906 11.8608 11.9743 11.8608H21.3776C21.4614 11.8608 21.5293 11.796 21.5293 11.7161C21.5293 11.6363 21.4614 11.5715 21.3776 11.5715H11.9743ZM11.9743 13.5962C11.8906 13.5962 11.8226 13.661 11.8226 13.7408C11.8226 13.8206 11.8906 13.8854 11.9743 13.8854H21.3776C21.4614 13.8854 21.5293 13.8206 21.5293 13.7408C21.5293 13.661 21.4614 13.5962 21.3776 13.5962H11.9743ZM4.99766 15.9101C4.91394 15.9101 4.84599 15.9749 4.84599 16.0547C4.84599 16.1345 4.91394 16.1993 4.99766 16.1993H14.401C14.4847 16.1993 14.5526 16.1345 14.5526 16.0547C14.5526 15.9749 14.4847 15.9101 14.401 15.9101H4.99766ZM15.9176 15.9101C15.8339 15.9101 15.766 15.9749 15.766 16.0547V20.104C15.766 20.1838 15.8339 20.2486 15.9176 20.2486C16.0014 20.2486 16.0693 20.1838 16.0693 20.104V16.1993H20.9226V20.5378H17.131C17.0473 20.5378 16.9793 20.6026 16.9793 20.6825C16.9793 20.7623 17.0473 20.8271 17.131 20.8271H21.0743C21.158 20.8271 21.226 20.7623 21.226 20.6825V16.0547C21.226 15.9749 21.158 15.9101 21.0743 15.9101H15.9176ZM4.99766 17.9347C4.91394 17.9347 4.84599 17.9995 4.84599 18.0793C4.84599 18.1592 4.91394 18.224 4.99766 18.224H14.401C14.4847 18.224 14.5526 18.1592 14.5526 18.0793C14.5526 17.9995 14.4847 17.9347 14.401 17.9347H4.99766ZM4.99766 19.9594C4.91394 19.9594 4.84599 20.0242 4.84599 20.104C4.84599 20.1838 4.91394 20.2486 4.99766 20.2486H14.401C14.4847 20.2486 14.5526 20.1838 14.5526 20.104C14.5526 20.0242 14.4847 19.9594 14.401 19.9594H4.99766Z" fill="#5B5B5B"/>
</svg>
