<svg width="24" height="24" viewBox="0 0 24 24" fill="none" xmlns="http://www.w3.org/2000/svg">
<path d="M21.5397 0C20.582 0 19.6805 0.360543 19.0031 1.01403L13.8925 5.94294L2.08151 3.41163C1.67977 3.3245 1.26556 3.44018 0.975934 3.7211L0.23473 4.43617C0.0603284 4.60443 -0.0237581 4.83578 0.0058279 5.07163C0.0354139 5.30748 0.172443 5.51329 0.382659 5.63648L9.0124 10.7141L5.68321 14.6035L2.09708 13.7577C1.69378 13.6631 1.26089 13.7787 0.966591 14.0612L0.530588 14.4833C0.353073 14.656 0.270544 14.8919 0.306358 15.1338C0.340616 15.3756 0.486988 15.5814 0.708104 15.7001L5.22073 18.1173L7.72619 22.4708C7.84921 22.6841 8.06254 22.8253 8.31324 22.8584C8.56083 22.8914 8.80841 22.8133 8.98749 22.6421L9.42505 22.2199C9.71779 21.9375 9.83769 21.5199 9.73959 21.1293L8.86292 17.6711L12.8944 14.4578L18.1576 22.7848C18.2852 22.9861 18.4986 23.1198 18.7431 23.1468C18.7758 23.1513 18.8069 23.1528 18.838 23.1528C19.0483 23.1528 19.2491 23.0747 19.4017 22.929L20.1429 22.2139C20.4326 21.933 20.554 21.5349 20.4637 21.1473L17.8399 9.75117L22.9489 4.82075C23.6263 4.16727 24 3.29896 24 2.37357V1.15374C24 0.51828 23.4628 0 22.8041 0H21.5397ZM21.5397 0.769157H22.8041C23.0237 0.769157 23.2027 0.941917 23.2027 1.15374V2.37357C23.2027 3.09315 22.9116 3.76917 22.3852 4.27693L17.1221 9.35608C17.0255 9.44771 16.985 9.58292 17.0131 9.71061L19.6867 21.3141C19.7163 21.4433 19.6758 21.5755 19.5792 21.6686L18.838 22.3837L13.4986 13.938L14.6867 12.7932C14.8424 12.6415 14.8424 12.3997 14.6867 12.2479C14.531 12.0977 14.2787 12.0977 14.123 12.2479L12.7262 13.5955L8.1622 17.2324C8.04385 17.3256 7.99247 17.4773 8.02984 17.62L8.96569 21.3141C8.99839 21.4433 8.9579 21.583 8.8598 21.6761L8.4238 22.0982L6.0071 17.9024L7.93797 16.0396C8.09368 15.8894 8.09368 15.646 7.93797 15.4958C7.78225 15.3456 7.53155 15.3456 7.37583 15.4958L5.44496 17.3586L1.09428 15.0271L1.53184 14.6065C1.62994 14.5118 1.77164 14.4728 1.90711 14.5058L5.73771 15.4072C5.88408 15.4432 6.04135 15.3937 6.1379 15.2795L9.90932 10.8764L11.0803 9.74666C11.236 9.59494 11.236 9.35307 11.0803 9.20134C10.9246 9.05112 10.6723 9.05112 10.5166 9.20134L9.55273 10.1312L0.798419 4.97999L1.53962 4.26492C1.63617 4.17178 1.7732 4.13272 1.90711 4.16126L13.9346 6.74064C14.0669 6.76918 14.2071 6.73012 14.3021 6.63699L19.5668 1.55784C20.0947 1.05008 20.7938 0.769157 21.5397 0.769157ZM15.7736 7.00804C15.6723 7.00804 15.5696 7.0456 15.4917 7.12071C15.336 7.27094 15.336 7.51431 15.4917 7.66453L16.0554 8.20835C16.1333 8.28346 16.2345 8.32102 16.3372 8.32102C16.44 8.32102 16.5412 8.28346 16.6191 8.20835C16.7748 8.05812 16.7748 7.81476 16.6191 7.66453L16.0554 7.12071C15.9775 7.0456 15.8748 7.00804 15.7736 7.00804ZM14.3643 8.36609C14.2631 8.36609 14.1603 8.40515 14.0825 8.48026C13.9268 8.63048 13.9268 8.87385 14.0825 9.02408L14.6462 9.56789C14.724 9.64301 14.8253 9.68056 14.928 9.68056C15.0308 9.68056 15.132 9.64301 15.2099 9.56789C15.3656 9.41767 15.3656 9.1743 15.2099 9.02408L14.6462 8.48026C14.5683 8.40515 14.4656 8.36609 14.3643 8.36609ZM12.9551 9.72713C12.8523 9.72713 12.7511 9.76469 12.6733 9.8398C12.5176 9.99003 12.5176 10.2334 12.6733 10.3836L13.237 10.9274C13.3148 11.0026 13.416 11.0401 13.5188 11.0401C13.6216 11.0401 13.7228 11.0026 13.8006 10.9274C13.9564 10.7772 13.9564 10.5338 13.8006 10.3836L13.237 9.8398C13.1591 9.76469 13.0579 9.72713 12.9551 9.72713ZM11.5459 11.0867C11.4447 11.0867 11.3419 11.1242 11.264 11.1993C11.1083 11.3496 11.1083 11.5929 11.264 11.7432L11.8277 12.287C11.9056 12.3621 12.0068 12.3997 12.1096 12.3997C12.2124 12.3997 12.3136 12.3621 12.3914 12.287C12.5471 12.1368 12.5471 11.8934 12.3914 11.7432L11.8277 11.1993C11.7499 11.1242 11.6471 11.0867 11.5459 11.0867ZM9.44996 13.6525C9.34875 13.6525 9.24597 13.6901 9.16812 13.7652L8.57017 14.3421C8.41446 14.4923 8.41446 14.7357 8.57017 14.8859C8.64803 14.961 8.74924 14.9986 8.85202 14.9986C8.95479 14.9986 9.056 14.961 9.13386 14.8859L9.73181 14.309C9.88752 14.1588 9.88752 13.9154 9.73181 13.7652C9.65395 13.6901 9.55118 13.6525 9.44996 13.6525Z" fill="#5B5B5B"/>
</svg>
