<svg width="24" height="24" viewBox="0 0 24 24" fill="none" xmlns="http://www.w3.org/2000/svg">
<path d="M8.79911 0C7.43973 0 6.26786 1.05107 6 2.51034L5.76786 3.75451H2.85714C1.27902 3.75451 0 5.15512 0 6.88327V20.0241C0 21.7522 1.27902 23.1528 2.85714 23.1528H21.1429C22.721 23.1528 24 21.7522 24 20.0241V6.88327C24 5.15512 22.721 3.75451 21.1429 3.75451H18.2321L18 2.51034C17.7321 1.04862 16.5603 0 15.2009 0H8.79911ZM8.79911 1.2515H15.2009C16.0134 1.2515 16.721 1.88459 16.8817 2.75722L17.1094 4.00139C17.2188 4.58559 17.6875 5.00602 18.2321 5.00602H21.1429C22.0871 5.00602 22.8571 5.84932 22.8571 6.88327V20.0241C22.8571 21.058 22.0871 21.9013 21.1429 21.9013H2.85714C1.91295 21.9013 1.14286 21.058 1.14286 20.0241V6.88327C1.14286 5.84932 1.91295 5.00602 2.85714 5.00602H5.76786C6.3125 5.00602 6.78125 4.58559 6.89063 4.00139L7.1183 2.75722C7.27902 1.88459 7.98661 1.2515 8.79911 1.2515ZM12 6.88327C8.84375 6.88327 6.28571 9.68449 6.28571 13.1408C6.28571 16.5971 8.84375 19.3983 12 19.3983C15.1563 19.3983 17.7143 16.5971 17.7143 13.1408C17.7143 9.68449 15.1563 6.88327 12 6.88327ZM12 8.13478C14.5201 8.13478 16.5714 10.3811 16.5714 13.1408C16.5714 15.9005 14.5201 18.1468 12 18.1468C9.47991 18.1468 7.42857 15.9005 7.42857 13.1408C7.42857 10.3811 9.47991 8.13478 12 8.13478Z" fill="#5B5B5B"/>
</svg>
