<svg width="24" height="24" viewBox="0 0 24 24" fill="none" xmlns="http://www.w3.org/2000/svg">
<path d="M9.81997 0.00814812C9.74255 0.0238714 9.67124 0.055318 9.60809 0.102488L0.219928 6.64338C0.0406407 6.76523 -0.0388165 6.98339 0.0182296 7.1878C0.0773135 7.3922 0.262713 7.53961 0.480711 7.55533L6.21792 8.05847C6.23422 8.05847 6.25052 8.05847 6.26681 8.05847H9.3962V17.1151H10.4393V8.05847H13.5687C13.585 8.05847 13.6013 8.05847 13.6176 8.05847L19.3548 7.55533C19.5728 7.53961 19.7582 7.3922 19.8173 7.1878C19.8743 6.98339 19.7949 6.76523 19.6156 6.64338L10.2274 0.102488C10.1113 0.0179751 9.96259 -0.0174021 9.81997 0.00814812ZM9.91776 1.64337L12.7212 7.05218H7.11436L9.91776 1.64337ZM8.49976 2.11507L5.95714 7.02074L1.98021 6.67482L8.49976 2.11507ZM11.3521 2.13079L17.8553 6.67482L13.8784 7.02074L11.3521 2.13079ZM22.9243 13.0742C22.8795 13.0801 22.8367 13.0899 22.7939 13.1057C22.7491 13.1155 22.7042 13.1312 22.6635 13.1528L13.4383 17.6182H0.529607C0.513308 17.6182 0.497009 17.6182 0.480711 17.6182C0.211779 17.6418 0.00600571 17.86 0.00804294 18.1214V20.134C0.00804294 20.4111 0.24234 20.6371 0.529607 20.6371H1.57274V22.6497C1.57274 22.9268 1.80703 23.1528 2.0943 23.1528H4.18056C4.46782 23.1528 4.70212 22.9268 4.70212 22.6497V20.6371H19.3059V22.6497C19.3059 22.9268 19.5402 23.1528 19.8275 23.1528H21.9137C22.201 23.1528 22.4353 22.9268 22.4353 22.6497V20.6371H23.4784C23.7657 20.6371 24 20.4111 24 20.134V18.1214C24 17.8443 23.7657 17.6182 23.4784 17.6182H22.3049L21.49 14.8509L23.1199 14.0648C23.3929 14.0019 23.566 13.7444 23.5131 13.4791C23.4601 13.2137 23.2014 13.0349 22.9243 13.0742ZM20.5283 15.3226L21.2129 17.6182H15.7854L20.5283 15.3226ZM1.05117 18.6245H22.9569V19.6308H1.05117V18.6245ZM2.61586 20.6371H3.65899V22.1465H2.61586V20.6371ZM20.3491 20.6371H21.3922V22.1465H20.3491V20.6371Z" fill="#5B5B5B"/>
</svg>
