<svg width="24" height="24" viewBox="0 0 24 24" fill="none" xmlns="http://www.w3.org/2000/svg">
<path d="M2.18182 0V13.8917H0V17.3646C0 19.2794 1.46836 20.8375 3.27273 20.8375H12V18.5223H3.27273C2.67164 18.5223 2.18182 18.0025 2.18182 17.3646V16.207H14.1818L12 13.8917H4.36364V2.31528H18.5455V6.94585H20.7273V0H2.18182ZM6.54545 4.63057V6.94585H8.72727V4.63057H6.54545ZM10.9091 4.63057V6.94585H16.3636V4.63057H10.9091ZM6.54545 9.26113V11.5764H8.72727V9.26113H6.54545ZM14.1818 9.26113V11.5764H15.2727V13.7922L17.5483 16.207L15.2727 18.6218V20.8375H14.1818V23.1528H24V20.8375H22.9091V18.6218L20.6335 16.207L22.9091 13.7922V11.5764H24V9.26113H14.1818ZM17.4545 11.5764H20.7273V12.8335L19.0909 14.57L17.4545 12.8335V11.5764ZM19.0909 17.844L20.7273 19.5804V20.8375H17.4545V19.5804L19.0909 17.844Z" fill="#5B5B5B"/>
</svg>
