<svg width="25" height="24" viewBox="0 0 25 24" fill="none" xmlns="http://www.w3.org/2000/svg">
<path d="M0.103047 4.59137C0.102889 4.61235 0.105397 4.63328 0.110514 4.65367C0.299152 5.40239 0.98735 6.27982 1.90393 7.25095C2.82051 8.22208 3.97352 9.26477 5.10931 10.2291C6.68221 11.5646 8.16912 12.7074 8.98957 13.3258C8.9909 13.3398 8.99344 13.3538 8.99715 13.3675C9.41049 14.8885 10.1044 17.1702 10.276 17.7372C9.96131 17.6254 9.63069 17.5465 9.27657 17.5447C7.65174 17.5363 6.32009 18.7977 6.31143 20.3574C6.30277 21.9171 7.62034 23.1922 9.24517 23.2006C10.87 23.209 12.2016 21.9476 12.2103 20.3879L12.2117 20.1439C12.2122 20.1352 12.2122 20.1264 12.2118 20.1177C12.2117 20.1158 12.2114 20.1137 12.2113 20.1117C12.2106 20.0989 12.209 20.0861 12.2063 20.0735C12.1441 18.8781 11.8793 17.622 11.5716 16.4754L11.5696 16.4669C11.3529 15.5254 11.145 14.7036 11.1476 14.2267C11.148 14.1637 11.149 14.0797 11.163 13.9933C11.1652 13.9823 11.1666 13.9713 11.1673 13.9602C11.2799 13.898 11.3938 13.82 11.5072 13.7204C11.5075 13.7202 11.5079 13.7201 11.5082 13.7199C11.5691 13.666 11.6209 13.6489 11.7435 13.6614C11.8661 13.6738 12.0461 13.7334 12.2607 13.8403C12.69 14.054 13.2555 14.4468 13.9178 14.9053C15.275 15.8537 16.8394 16.9373 18.3777 17.0765C18.3857 17.0772 18.3937 17.0776 18.4017 17.0776L18.6699 17.079C19.6116 17.0839 20.4525 16.6608 20.9967 16.0019C21.8452 16.5006 22.5931 16.4833 23.1113 16.2981C23.6682 16.0989 23.9827 15.7251 23.9827 15.7251C24.0273 15.6722 24.0483 15.6044 24.0411 15.5365C24.0338 15.4687 23.9989 15.4064 23.9441 15.3634C23.8892 15.3203 23.8188 15.3001 23.7485 15.3071C23.6781 15.314 23.6135 15.3477 23.5689 15.4006C23.5689 15.4006 23.3435 15.6667 22.9259 15.8161C22.5403 15.9539 22.0067 15.9956 21.2897 15.5741C21.5066 15.1833 21.6324 14.7389 21.635 14.2663C21.6437 12.7066 20.3261 11.4315 18.7013 11.4231C17.0765 11.4147 15.7443 12.6761 15.7356 14.2358C15.7355 14.2557 15.7423 14.2738 15.7426 14.2936C15.2272 13.9092 14.3917 13.2713 13.8669 12.7303C13.8662 12.7296 13.8655 12.729 13.8648 12.7283C13.1127 11.9697 12.4961 11.302 12.0022 10.9602C11.996 10.9559 11.9896 10.9518 11.983 10.948L11.9602 10.9349C11.9595 10.9327 11.9588 10.9305 11.9581 10.9283C11.4207 9.17257 10.5979 6.70961 9.69654 4.56612C9.24586 3.49436 8.77591 2.50296 8.30766 1.71484C7.83942 0.92671 7.39207 0.33593 6.8793 0.0659699C6.83808 0.044236 6.79163 0.0333872 6.74466 0.0345217C6.69769 0.0356542 6.65187 0.048729 6.61182 0.0724253C6.57178 0.0961198 6.53894 0.129594 6.51663 0.169458C6.49432 0.209321 6.48333 0.25416 6.48477 0.299435C6.48527 0.312253 6.48677 0.325017 6.48924 0.337621L8.06418 8.70232L0.505832 4.37201C0.465473 4.34892 0.419508 4.3365 0.37258 4.33602C0.325652 4.33554 0.279422 4.347 0.238561 4.36925C0.197699 4.39151 0.163652 4.42376 0.139858 4.46276C0.116065 4.50176 0.103367 4.54612 0.103047 4.59137ZM1.0186 5.26344L11.6947 11.3809C12.0831 11.6506 12.7218 12.3195 13.4774 13.0818C14.2777 13.9068 15.9226 15.0809 15.9226 15.0809C15.9667 15.1126 16.0199 15.1304 16.075 15.1318C16.13 15.1332 16.1841 15.1182 16.2299 15.0888C16.2757 15.0594 16.3109 15.017 16.3308 14.9675C16.3506 14.9181 16.3541 14.8639 16.3408 14.8124C16.2932 14.6292 16.2679 14.4368 16.269 14.2386C16.2761 12.9585 17.3601 11.9304 18.6984 11.9373C20.0368 11.9442 21.1088 12.9835 21.1017 14.2636C21.0946 15.5437 20.0114 16.5718 18.6727 16.5649L18.4238 16.5636C17.1184 16.4437 15.5803 15.4321 14.2295 14.4882C14.2297 14.4883 14.2294 14.488 14.2295 14.4882C13.5685 14.0305 12.9989 13.6288 12.5054 13.3831C12.2587 13.2602 12.03 13.1734 11.8 13.15C11.5702 13.1266 11.3258 13.1839 11.1484 13.3404L11.1473 13.3409C10.7706 13.6712 10.5186 13.6674 10.3275 13.6179C10.2319 13.5931 10.1503 13.549 10.0927 13.5097C10.0352 13.4704 10.0222 13.4555 9.99784 13.4319C9.98891 13.4235 9.97938 13.4157 9.96933 13.4087C9.92184 13.3741 7.71598 11.757 5.46198 9.84329C4.33498 8.88641 3.19256 7.85276 2.29804 6.90501C1.71991 6.29247 1.31643 5.74726 1.0186 5.26344ZM6.84476 20.3602C6.85186 19.0801 7.93538 18.0519 9.27371 18.0589C9.74248 18.0613 10.1769 18.1904 10.5457 18.4124C10.5916 18.4399 10.645 18.4533 10.6989 18.4509C10.7528 18.4485 10.8047 18.4304 10.8477 18.399C10.8908 18.3675 10.9229 18.3242 10.9398 18.2748C10.9567 18.2254 10.9577 18.1722 10.9427 18.1222C10.9427 18.1222 10.1796 15.6007 9.68769 13.8531C9.71575 13.8768 9.74619 13.9031 9.78466 13.9294C9.88077 13.9951 10.016 14.0695 10.1888 14.1143C10.3145 14.1468 10.4596 14.1585 10.6163 14.1411C10.6155 14.1709 10.6144 14.2037 10.6143 14.2239C10.6109 14.8365 10.8359 15.6506 11.0512 16.5867C11.0518 16.5898 11.0525 16.5928 11.0532 16.5958C11.3602 17.7386 11.6227 18.9846 11.6783 20.1371L11.677 20.3851C11.6699 21.6652 10.5863 22.6933 9.24802 22.6864C7.90969 22.6795 6.83765 21.6403 6.84476 20.3602ZM7.15487 0.995846C7.37381 1.24874 7.6086 1.57165 7.8453 1.97004C8.29398 2.72523 8.75706 3.70023 9.20223 4.75889C10.0099 6.67949 10.7486 8.85112 11.2795 10.5447L8.67163 9.05093L7.15487 0.995846ZM7.70985 20.3646C7.70711 20.8578 7.90761 21.2614 8.21279 21.5242C8.51798 21.7869 8.9153 21.9134 9.30959 21.9155C9.70388 21.9175 10.1021 21.7951 10.4102 21.5355C10.7182 21.2759 10.9232 20.8744 10.9259 20.3812C10.9307 19.5315 10.2109 18.835 9.32672 18.8304C8.44256 18.8259 7.71457 19.5149 7.70985 20.3646ZM8.24317 20.3674C8.24634 19.7973 8.72616 19.3415 9.32386 19.3446C9.92157 19.3477 10.3958 19.8084 10.3926 20.3785C10.3906 20.7423 10.2571 20.9817 10.0597 21.1481C9.86231 21.3144 9.58895 21.4027 9.31245 21.4013C9.03595 21.3999 8.76358 21.3087 8.56805 21.1403C8.37253 20.972 8.24115 20.7312 8.24317 20.3674ZM9.13003 11.7593C9.12807 12.1128 9.42647 12.4036 9.79312 12.4055C10.1598 12.4074 10.4614 12.1197 10.4633 11.7662C10.4653 11.4127 10.1669 11.1219 9.80026 11.12C9.4336 11.1181 9.132 11.4058 9.13003 11.7593ZM9.3967 11.7607C9.39789 11.546 9.57617 11.376 9.79883 11.3771C10.0215 11.3783 10.1979 11.5502 10.1967 11.7648C10.1955 11.9795 10.0172 12.1495 9.79455 12.1484C9.57188 12.1472 9.39551 11.9754 9.3967 11.7607ZM17.0773 14.2428C17.0745 14.7359 17.275 15.1395 17.5802 15.4023C17.8854 15.665 18.2827 15.7916 18.677 15.7936C19.0713 15.7956 19.4695 15.6732 19.7776 15.4136C20.0857 15.1541 20.2906 14.7525 20.2934 14.2594C20.2981 13.4097 19.5783 12.7131 18.6942 12.7086C17.81 12.704 17.082 13.393 17.0773 14.2428ZM17.6106 14.2455C17.6138 13.6754 18.0936 13.2196 18.6913 13.2227C19.289 13.2258 19.7632 13.6865 19.7601 14.2566C19.758 14.6204 19.6245 14.8599 19.4271 15.0262C19.2298 15.1925 18.9564 15.2809 18.6799 15.2794C18.4034 15.278 18.131 15.1868 17.9355 15.0185C17.74 14.8502 17.6086 14.6093 17.6106 14.2455Z" fill="#5B5B5B"/>
</svg>
