<svg width="24" height="23" viewBox="0 0 24 23" fill="none" xmlns="http://www.w3.org/2000/svg">
<path d="M4.36364 0V0.961089H0V22.105H24V0.961089H19.6364V0H17.4545V0.961089H6.54545V0H4.36364ZM2.18182 2.88327H4.36364V3.84436H6.54545V2.88327H17.4545V3.84436H19.6364V2.88327H21.8182V4.80544H2.18182V2.88327ZM2.18182 6.72762H21.8182V20.1829H2.18182V6.72762ZM8.72727 8.6498V10.572H10.9091V8.6498H8.72727ZM13.0909 8.6498V10.572H15.2727V8.6498H13.0909ZM17.4545 8.6498V10.572H19.6364V8.6498H17.4545ZM4.36364 12.4942V14.4163H6.54545V12.4942H4.36364ZM8.72727 12.4942V14.4163H10.9091V12.4942H8.72727ZM13.0909 12.4942V14.4163H15.2727V12.4942H13.0909ZM17.4545 12.4942V14.4163H19.6364V12.4942H17.4545ZM4.36364 16.3385V18.2607H6.54545V16.3385H4.36364ZM8.72727 16.3385V18.2607H10.9091V16.3385H8.72727ZM13.0909 16.3385V18.2607H15.2727V16.3385H13.0909Z" fill="black"/>
</svg>
