<svg width="20" height="20" viewBox="0 0 20 20" fill="none" xmlns="http://www.w3.org/2000/svg">
<path fill-rule="evenodd" clip-rule="evenodd" d="M5.665 0C2.276 0 0 2.378 0 5.916L0 14.084C0 17.622 2.276 20 5.665 20H14.334C17.723 20 20 17.622 20 14.084L20 5.916C20 2.378 17.723 0 14.334 0L5.665 0ZM5.665 1.5L14.334 1.5C16.864 1.5 18.5 3.233 18.5 5.916L18.5 14.084C18.5 16.767 16.864 18.5 14.334 18.5H5.665C3.135 18.5 1.5 16.767 1.5 14.084L1.5 5.916C1.5 3.233 3.135 1.5 5.665 1.5ZM10 5.1639C9.586 5.1639 9.25 5.4999 9.25 5.9139L9.25 12.27L6.783 9.7929C6.49 9.4979 6.016 9.4999 5.723 9.7909C5.43 10.0829 5.428 10.5579 5.721 10.8519L9.469 14.6159C9.49351 14.6399 9.51885 14.6621 9.5456 14.6825L9.469 14.6159C9.50837 14.6558 9.55184 14.6908 9.59843 14.7204C9.60979 14.7265 9.62088 14.7332 9.63215 14.7395C9.65348 14.7526 9.67617 14.764 9.69937 14.7741C9.7059 14.776 9.7119 14.7785 9.71794 14.781C9.74117 14.7914 9.76544 14.7998 9.7901 14.807C9.8054 14.8105 9.82061 14.8145 9.836 14.8179C9.85478 14.823 9.87366 14.8265 9.89269 14.8292C9.908 14.8305 9.92399 14.8323 9.94012 14.8335C9.96027 14.8361 9.9801 14.8369 10 14.8369L10.059 14.832L10.1017 14.829C10.1038 14.8288 10.1058 14.8285 10.1078 14.8282L10 14.8369C10.0555 14.8369 10.1105 14.8308 10.1639 14.8188C10.1794 14.8145 10.1946 14.8105 10.2096 14.8062C10.2346 14.7998 10.2588 14.7914 10.2826 14.7817C10.2881 14.7785 10.2941 14.776 10.3001 14.7734C10.3238 14.764 10.3465 14.7526 10.3686 14.7402C10.3791 14.7332 10.3902 14.7265 10.4011 14.7196C10.4199 14.7088 10.4377 14.6963 10.4549 14.6831C10.484 14.6599 10.5118 14.6352 10.5377 14.6086L14.279 10.8519C14.572 10.5579 14.57 10.0829 14.277 9.7909C13.983 9.4999 13.509 9.4979 13.217 9.7929L10.75 12.27L10.75 5.9139C10.75 5.4999 10.414 5.1639 10 5.1639Z" fill="black" fill-opacity="0.25"/>
</svg>
