<svg width="24" height="23" viewBox="0 0 24 23" fill="none" xmlns="http://www.w3.org/2000/svg">
<path d="M12.1297 1.98856e-06C12.0578 -0.000125098 11.9854 0.00584279 11.9133 0.0168874C11.6247 0.0610655 11.34 0.195753 11.105 0.431785V0.432991L6.06967 5.49499H2.45687C1.10969 5.49499 0 6.7501 0 8.27384V13.8315C0 15.3553 1.10969 16.6104 2.45687 16.6104H6.06967L11.105 21.6724C11.575 22.145 12.2415 22.2145 12.7461 21.9582C13.2507 21.702 13.6493 21.092 13.6493 20.3807V1.72472C13.6493 1.01367 13.2518 0.403499 12.7472 0.147146C12.5579 0.0510135 12.3457 0.000383309 12.1297 1.98856e-06ZM20.8664 1.16147C20.7244 1.16796 20.5864 1.2161 20.4658 1.30116C20.3453 1.38622 20.2464 1.50528 20.1789 1.64665C20.1113 1.78801 20.0774 1.94682 20.0806 2.10747C20.0837 2.26812 20.1237 2.42509 20.1967 2.56296C23.1355 8.29677 23.1461 13.8093 20.1978 19.5412C20.1392 19.6465 20.1 19.764 20.0824 19.8868C20.0649 20.0095 20.0694 20.135 20.0956 20.2558C20.1219 20.3766 20.1693 20.4901 20.2352 20.5897C20.3011 20.6893 20.3841 20.7728 20.4791 20.8353C20.5741 20.8979 20.6793 20.9381 20.7884 20.9537C20.8975 20.9693 21.0083 20.9598 21.1141 20.926C21.2199 20.8921 21.3186 20.8345 21.4042 20.7565C21.4899 20.6786 21.5609 20.5819 21.6128 20.4723C24.8012 14.2737 24.7899 7.83099 21.6139 1.63427C21.54 1.48511 21.431 1.362 21.2991 1.27855C21.1672 1.19511 21.0174 1.15459 20.8664 1.16147ZM12.0114 1.99971V20.1057L6.92489 14.9918C6.77503 14.8412 6.58154 14.7579 6.38105 14.7578H2.45687C1.99471 14.7578 1.63792 14.3543 1.63792 13.8315V8.27384C1.63792 7.75111 1.99471 7.34755 2.45687 7.34755H6.38105C6.58154 7.34747 6.77503 7.26422 6.92489 7.11357L12.0114 1.99971ZM18.4297 3.63036C18.2877 3.6297 18.1479 3.67085 18.0241 3.74978C17.9004 3.8287 17.7969 3.94268 17.7238 4.08052C17.6508 4.21836 17.6107 4.37532 17.6076 4.53598C17.6044 4.69664 17.6382 4.85547 17.7057 4.99687C19.5944 9.08779 19.5944 13.0176 17.7057 17.1085C17.6539 17.2166 17.6216 17.3352 17.6108 17.4575C17.5999 17.5798 17.6107 17.7034 17.6425 17.8209C17.6743 17.9385 17.7264 18.0477 17.7959 18.1422C17.8653 18.2367 17.9507 18.3147 18.0471 18.3715C18.1435 18.4283 18.2489 18.4629 18.3572 18.4732C18.4655 18.4835 18.5745 18.4693 18.6779 18.4314C18.7813 18.3936 18.877 18.3328 18.9595 18.2527C19.0419 18.1726 19.1094 18.0748 19.1581 17.9648C21.255 13.4228 21.255 8.68258 19.1581 4.14054C19.0901 3.98775 18.9861 3.85921 18.8576 3.76916C18.729 3.67911 18.581 3.63107 18.4297 3.63036ZM15.927 6.72762C15.7919 6.73414 15.6603 6.77842 15.544 6.85649C15.4276 6.93457 15.3302 7.04401 15.2604 7.17505C15.1906 7.30609 15.1506 7.45464 15.1439 7.60744C15.1372 7.76024 15.1641 7.91253 15.2222 8.05071C16.0502 10.0999 16.049 12.0159 15.2179 14.0655C15.1723 14.1762 15.1465 14.2959 15.142 14.4179C15.1375 14.5399 15.1543 14.6617 15.1916 14.7763C15.2288 14.8909 15.2857 14.996 15.359 15.0856C15.4322 15.1753 15.5205 15.2476 15.6186 15.2986C15.7166 15.3495 15.8227 15.378 15.9305 15.3825C16.0384 15.3869 16.146 15.3672 16.2471 15.3245C16.3482 15.2817 16.4408 15.2168 16.5197 15.1334C16.5985 15.05 16.662 14.9499 16.7065 14.8386C17.7099 12.3643 17.7118 9.75477 16.7119 7.28001C16.6454 7.10926 16.535 6.96518 16.3949 6.86662C16.2549 6.76805 16.0918 6.71961 15.927 6.72762Z" fill="black"/>
</svg>
