<svg width="23" height="23" viewBox="0 0 23 23" fill="none" xmlns="http://www.w3.org/2000/svg">
<path d="M18.223 0C16.5161 0 15.0198 0.904282 14.175 2.25703C12.9806 1.77148 11.6764 1.49922 10.3091 1.49922C4.61895 1.49922 0 6.13438 0 11.8438C0 17.5533 4.61895 22.1885 10.3091 22.1885C15.9993 22.1885 20.6182 17.5533 20.6182 11.8438C20.6182 11.3412 20.5786 10.8486 20.5091 10.3663C20.574 10.2797 20.6383 10.197 20.7034 10.1074C21.8379 8.54852 23 6.57615 23 4.78521C23 2.14583 20.857 0 18.223 0ZM18.223 0.599689C20.5345 0.599689 22.4024 2.47056 22.4024 4.78521C22.4024 6.30485 21.3252 8.23617 20.2208 9.75372C20.1157 9.89807 20.0212 10.0155 19.9202 10.1484L19.8729 10.1566C19.8755 10.1714 19.8774 10.1864 19.88 10.2011C19.0998 11.2223 18.4538 11.9147 18.223 12.1536C17.9584 11.8796 17.1611 11.0388 16.2259 9.75372C15.1215 8.23617 14.0443 6.30485 14.0443 4.78521C14.0443 2.47056 15.9116 0.599689 18.223 0.599689ZM18.2277 1.19938C16.2522 1.19938 14.6419 2.81515 14.6419 4.79751C14.6419 6.77987 16.2522 8.39564 18.2277 8.39564C20.1507 8.39564 21.7233 6.86379 21.8059 4.95387C21.8076 4.91412 21.7935 4.87532 21.7667 4.84601C21.7398 4.8167 21.7025 4.79928 21.6629 4.79757C21.6233 4.79586 21.5846 4.81001 21.5554 4.8369C21.5262 4.8638 21.5088 4.90124 21.5071 4.94099C21.4313 6.69337 19.9927 8.09579 18.2277 8.09579C16.4143 8.09579 14.9407 6.61718 14.9407 4.79751C14.9407 2.97784 16.4143 1.49922 18.2277 1.49922C18.6842 1.49922 19.1182 1.59328 19.5134 1.76276C19.5315 1.77053 19.5509 1.77465 19.5705 1.7749C19.5902 1.77515 19.6097 1.77151 19.6279 1.76419C19.6461 1.75688 19.6628 1.74603 19.6768 1.73227C19.6909 1.71851 19.7021 1.70211 19.7098 1.68399C19.7176 1.66588 19.7217 1.64642 19.7219 1.62671C19.7222 1.607 19.7185 1.58744 19.7113 1.56914C19.704 1.55084 19.6932 1.53416 19.6794 1.52005C19.6657 1.50595 19.6494 1.49469 19.6313 1.48692C19.2 1.30198 18.7251 1.19938 18.2277 1.19938ZM20.1706 1.80492C20.1383 1.80442 20.1068 1.81441 20.0806 1.8334C20.0545 1.85239 20.0352 1.87936 20.0256 1.91028C20.016 1.94119 20.0167 1.97439 20.0274 2.0049C20.0382 2.03542 20.0585 2.06162 20.0854 2.07958C20.3183 2.24055 20.5289 2.43146 20.7139 2.64648C20.7263 2.66268 20.7419 2.67617 20.7596 2.68612C20.7774 2.69608 20.797 2.70229 20.8173 2.70437C20.8375 2.70646 20.858 2.70437 20.8774 2.69824C20.8968 2.69211 20.9147 2.68207 20.9301 2.66873C20.9455 2.65539 20.9581 2.63903 20.9669 2.62066C20.9758 2.60229 20.9809 2.58229 20.9818 2.5619C20.9827 2.5415 20.9794 2.52113 20.9722 2.50204C20.965 2.48295 20.954 2.46554 20.9398 2.45088C20.7388 2.21733 20.5094 2.0085 20.2546 1.83245C20.23 1.81498 20.2007 1.80538 20.1706 1.80492ZM10.3091 2.09891C10.5559 2.09891 10.8355 2.32082 11.1098 2.80108C11.3842 3.28135 11.6403 3.9956 11.8546 4.88243C11.931 5.19871 11.9705 5.63909 12.0361 5.99689H8.58218C8.64774 5.63909 8.68727 5.19871 8.76368 4.88243C8.97793 3.9956 9.23407 3.28135 9.50839 2.80108C9.78271 2.32082 10.0623 2.09891 10.3091 2.09891ZM18.2277 2.09891C16.7464 2.09891 15.5384 3.31109 15.5384 4.79751C15.5384 6.28393 16.7464 7.49611 18.2277 7.49611C19.709 7.49611 20.917 6.28393 20.917 4.79751C20.917 3.31109 19.709 2.09891 18.2277 2.09891ZM10.9826 2.12526C12.003 2.19583 12.979 2.42465 13.8885 2.78703C13.6077 3.39602 13.4467 4.07131 13.4467 4.78521C13.4467 6.57615 14.6087 8.54852 15.7432 10.1074C16.8777 11.6664 18.0118 12.8055 18.0118 12.8055C18.0395 12.8334 18.0725 12.8555 18.1088 12.8706C18.1451 12.8858 18.184 12.8935 18.2233 12.8935C18.2626 12.8935 18.3016 12.8858 18.3379 12.8706C18.3742 12.8555 18.4071 12.8334 18.4349 12.8055C18.4349 12.8055 19.1366 12.098 19.9862 11.0415C20.0083 11.3062 20.0206 11.5736 20.0206 11.8438C20.0206 13.9062 19.3819 15.8167 18.2942 17.391H16.1629C16.7528 16.118 17.1453 14.644 17.2787 13.0555C17.2811 13.0355 17.2794 13.0153 17.2738 12.9959C17.2682 12.9766 17.2587 12.9586 17.246 12.943C17.2333 12.9274 17.2176 12.9145 17.1999 12.9052C17.1821 12.8958 17.1626 12.8901 17.1426 12.8885C17.1226 12.8868 17.1025 12.8892 17.0834 12.8956C17.0644 12.9019 17.0468 12.912 17.0317 12.9253C17.0166 12.9386 17.0044 12.9548 16.9957 12.9729C16.987 12.9911 16.982 13.0108 16.9811 13.0309C16.8459 14.6407 16.4344 16.1237 15.8267 17.391H12.3868C12.6494 15.8233 12.8337 14.032 12.8415 11.9938H16.2854C16.3052 11.9941 16.3249 11.9904 16.3432 11.983C16.3616 11.9756 16.3783 11.9646 16.3924 11.9506C16.4065 11.9367 16.4177 11.92 16.4254 11.9017C16.433 11.8834 16.437 11.8637 16.437 11.8438C16.437 11.824 16.433 11.8043 16.4254 11.786C16.4177 11.7677 16.4065 11.751 16.3924 11.7371C16.3783 11.7231 16.3616 11.7121 16.3432 11.7047C16.3249 11.6973 16.3052 11.6936 16.2854 11.6939H12.8415C12.8337 9.65573 12.6494 7.86438 12.3868 6.29673H12.9985C13.0183 6.29701 13.0379 6.29334 13.0563 6.28593C13.0747 6.27852 13.0914 6.26753 13.1055 6.25358C13.1196 6.23963 13.1308 6.223 13.1384 6.20468C13.1461 6.18635 13.15 6.16668 13.15 6.14681C13.15 6.12694 13.1461 6.10727 13.1384 6.08894C13.1308 6.07061 13.1196 6.05399 13.1055 6.04004C13.0914 6.02609 13.0747 6.01509 13.0563 6.00768C13.0379 6.00027 13.0183 5.9966 12.9985 5.99689H12.3378C12.2685 5.61394 12.2264 5.14994 12.1446 4.81156C11.9263 3.90777 11.6667 3.1729 11.369 2.65175C11.249 2.44169 11.1201 2.26442 10.9826 2.12526ZM9.60643 2.15279C9.47971 2.28741 9.36089 2.45632 9.24926 2.65175C8.95158 3.1729 8.69197 3.90777 8.47362 4.81156C8.39187 5.14994 8.3497 5.61394 8.28044 5.99689H4.93278C5.12833 5.61988 5.34168 5.26418 5.57185 4.93279C6.63743 3.39861 8.04511 2.38817 9.60643 2.15279ZM7.91626 2.39758C6.92915 2.9086 6.04679 3.72449 5.32673 4.7612C5.06102 5.14375 4.81825 5.55799 4.59837 5.99689H2.53759C3.84863 4.24448 5.73488 2.95143 7.91626 2.39758ZM18.2277 2.39875C19.5469 2.39875 20.6182 3.47379 20.6182 4.79751C20.6182 6.12123 19.5469 7.19626 18.2277 7.19626C16.9085 7.19626 15.8372 6.12123 15.8372 4.79751C15.8372 3.47379 16.9085 2.39875 18.2277 2.39875ZM21.3851 3.29653C21.3605 3.29695 21.3364 3.30348 21.3149 3.31552C21.2933 3.32756 21.2751 3.34475 21.2619 3.36556C21.2486 3.38637 21.2406 3.41015 21.2387 3.43478C21.2368 3.45942 21.241 3.48415 21.2509 3.50677C21.2907 3.60037 21.3266 3.69634 21.3577 3.79373C21.3637 3.8125 21.3733 3.8299 21.3859 3.84494C21.3986 3.85999 21.4141 3.87238 21.4316 3.8814C21.449 3.89043 21.4681 3.89592 21.4876 3.89756C21.5072 3.8992 21.5269 3.89696 21.5456 3.89096C21.5643 3.88496 21.5817 3.87532 21.5966 3.8626C21.6116 3.84988 21.624 3.83431 21.633 3.8168C21.642 3.79929 21.6474 3.78017 21.6491 3.76054C21.6507 3.7409 21.6485 3.72114 21.6425 3.70237C21.6085 3.59588 21.5691 3.49155 21.5258 3.38965C21.5144 3.36173 21.4949 3.33791 21.4698 3.3213C21.4447 3.30468 21.4152 3.29605 21.3851 3.29653ZM2.32399 6.29673H4.45304C3.73354 7.84894 3.3097 9.70154 3.2893 11.6939H0.601715C0.631911 9.68912 1.26282 7.8326 2.32399 6.29673ZM4.78396 6.29673H8.23142C7.96882 7.86438 7.78449 9.65573 7.77678 11.6939H3.58811C3.60916 9.6888 4.04881 7.83127 4.78396 6.29673ZM8.53374 6.29673H12.0845C12.3486 7.85363 12.5348 9.64836 12.5426 11.6939H8.07559C8.08344 9.64836 8.26965 7.85363 8.53374 6.29673ZM0.601715 11.9938H3.2893C3.3097 13.9862 3.73354 15.8388 4.45304 17.391H2.32399C1.26282 15.8551 0.631911 13.9986 0.601715 11.9938ZM3.58811 11.9938H7.77678C7.78449 14.032 7.96882 15.8233 8.23142 17.391H4.78396C4.04881 15.8564 3.60916 13.9989 3.58811 11.9938ZM8.07559 11.9938H12.5426C12.5348 14.0393 12.3486 15.8341 12.0845 17.391H8.53374C8.26965 15.8341 8.08344 14.0393 8.07559 11.9938ZM2.53759 17.6908H4.59837C4.81825 18.1297 5.06102 18.5439 5.32673 18.9265C6.04679 19.9632 6.92915 20.7791 7.91626 21.2901C5.73488 20.7363 3.84863 19.4432 2.53759 17.6908ZM4.93278 17.6908H8.28044C8.3497 18.0738 8.39187 18.5378 8.47362 18.8761C8.69197 19.7799 8.95158 20.5148 9.24926 21.0359C9.36089 21.2314 9.47971 21.4003 9.60643 21.5349C8.04511 21.2995 6.63743 20.2891 5.57185 18.7549C5.34168 18.4235 5.12833 18.0678 4.93278 17.6908ZM8.58218 17.6908H12.0361C11.9705 18.0486 11.931 18.489 11.8546 18.8053C11.6403 19.6921 11.3842 20.4063 11.1098 20.8866C10.8355 21.3669 10.5559 21.5888 10.3091 21.5888C10.0623 21.5888 9.78271 21.3669 9.50839 20.8866C9.23407 20.4063 8.97793 19.6921 8.76368 18.8053C8.68727 18.489 8.64774 18.0486 8.58218 17.6908ZM12.3378 17.6908H15.6779C15.4058 18.2148 15.1024 18.7019 14.7651 19.1356C13.7381 20.4559 12.4397 21.3182 11.0124 21.5337C11.1388 21.3993 11.2576 21.2309 11.369 21.0359C11.6667 20.5148 11.9263 19.7799 12.1446 18.8761C12.2264 18.5378 12.2685 18.0738 12.3378 17.6908ZM16.0193 17.6908H18.0806C16.7681 19.4452 14.879 20.7391 12.6944 21.2919C13.5555 20.8473 14.3372 20.1725 15.0003 19.32C15.3801 18.8317 15.7218 18.285 16.0193 17.6908Z" fill="#5B5B5B"/>
</svg>
