<svg width="24" height="24" viewBox="0 0 24 24" fill="none" xmlns="http://www.w3.org/2000/svg">
<path d="M9.77637 0C9.3999 0 9.04834 0.222621 8.84033 0.594816L7.67432 2.67145H1.125C0.503906 2.67145 0 3.26975 0 4.00718V8.3709C0 9.09442 0.290039 9.73619 0.75 10.1449V21.3716C0.75 22.356 1.4209 23.1526 2.25 23.1526H21.75C22.5791 23.1526 23.25 22.356 23.25 21.3716V10.1449C23.71 9.73619 24 9.09442 24 8.3709V4.00718C24 3.26975 23.4961 2.67145 22.875 2.67145H16.3257L15.1597 0.594816C14.9517 0.222621 14.6001 0 14.2236 0H9.77637ZM9.77637 0.890484H14.2236C14.3496 0.890484 14.4653 0.965271 14.5356 1.08876L15.4233 2.67145H8.57666L9.46436 1.08876C9.53467 0.965271 9.65039 0.890484 9.77637 0.890484ZM1.125 3.56194H22.875C23.0815 3.56194 23.25 3.76195 23.25 4.00718V4.45242C23.0435 4.45242 22.875 4.65069 22.875 4.89766V5.78815C22.875 6.03512 23.0435 6.23339 23.25 6.23339V8.3709C23.25 9.0005 22.8896 9.53618 22.3726 9.67532L13.5 12.0528V12.0215C13.5 11.5311 13.1631 11.1311 12.75 11.1311H11.25C10.8369 11.1311 10.5 11.5311 10.5 12.0215V12.0528L1.62744 9.67532C1.11035 9.53618 0.75 9.0005 0.75 8.3709V6.23339C0.956543 6.23339 1.125 6.03512 1.125 5.78815V4.89766C1.125 4.65069 0.956543 4.45242 0.75 4.45242V4.00718C0.75 3.76195 0.918457 3.56194 1.125 3.56194ZM2.625 4.45242C2.41846 4.45242 2.25 4.65069 2.25 4.89766V5.78815C2.25 6.03512 2.41846 6.23339 2.625 6.23339C2.83154 6.23339 3 6.03512 3 5.78815V4.89766C3 4.65069 2.83154 4.45242 2.625 4.45242ZM4.5 4.45242C4.29346 4.45242 4.125 4.65069 4.125 4.89766V5.78815C4.125 6.03512 4.29346 6.23339 4.5 6.23339C4.70654 6.23339 4.875 6.03512 4.875 5.78815V4.89766C4.875 4.65069 4.70654 4.45242 4.5 4.45242ZM6.375 4.45242C6.16846 4.45242 6 4.65069 6 4.89766V5.78815C6 6.03512 6.16846 6.23339 6.375 6.23339C6.58154 6.23339 6.75 6.03512 6.75 5.78815V4.89766C6.75 4.65069 6.58154 4.45242 6.375 4.45242ZM8.25 4.45242C8.04346 4.45242 7.875 4.65069 7.875 4.89766V5.78815C7.875 6.03512 8.04346 6.23339 8.25 6.23339C8.45654 6.23339 8.625 6.03512 8.625 5.78815V4.89766C8.625 4.65069 8.45654 4.45242 8.25 4.45242ZM10.125 4.45242C9.91846 4.45242 9.75 4.65069 9.75 4.89766V5.78815C9.75 6.03512 9.91846 6.23339 10.125 6.23339C10.3315 6.23339 10.5 6.03512 10.5 5.78815V4.89766C10.5 4.65069 10.3315 4.45242 10.125 4.45242ZM12 4.45242C11.7935 4.45242 11.625 4.65069 11.625 4.89766V5.78815C11.625 6.03512 11.7935 6.23339 12 6.23339C12.2065 6.23339 12.375 6.03512 12.375 5.78815V4.89766C12.375 4.65069 12.2065 4.45242 12 4.45242ZM13.875 4.45242C13.6685 4.45242 13.5 4.65069 13.5 4.89766V5.78815C13.5 6.03512 13.6685 6.23339 13.875 6.23339C14.0815 6.23339 14.25 6.03512 14.25 5.78815V4.89766C14.25 4.65069 14.0815 4.45242 13.875 4.45242ZM15.75 4.45242C15.5435 4.45242 15.375 4.65069 15.375 4.89766V5.78815C15.375 6.03512 15.5435 6.23339 15.75 6.23339C15.9565 6.23339 16.125 6.03512 16.125 5.78815V4.89766C16.125 4.65069 15.9565 4.45242 15.75 4.45242ZM17.625 4.45242C17.4185 4.45242 17.25 4.65069 17.25 4.89766V5.78815C17.25 6.03512 17.4185 6.23339 17.625 6.23339C17.8315 6.23339 18 6.03512 18 5.78815V4.89766C18 4.65069 17.8315 4.45242 17.625 4.45242ZM19.5 4.45242C19.2935 4.45242 19.125 4.65069 19.125 4.89766V5.78815C19.125 6.03512 19.2935 6.23339 19.5 6.23339C19.7065 6.23339 19.875 6.03512 19.875 5.78815V4.89766C19.875 4.65069 19.7065 4.45242 19.5 4.45242ZM21.375 4.45242C21.1685 4.45242 21 4.65069 21 4.89766V5.78815C21 6.03512 21.1685 6.23339 21.375 6.23339C21.5815 6.23339 21.75 6.03512 21.75 5.78815V4.89766C21.75 4.65069 21.5815 4.45242 21.375 4.45242ZM22.5 10.5536V21.3716C22.5 21.8638 22.1646 22.2621 21.75 22.2621H2.25C1.83545 22.2621 1.5 21.8638 1.5 21.3716V10.5536L10.5 12.9677V14.693C10.5 15.1852 10.8354 15.5835 11.25 15.5835H12.75C13.1646 15.5835 13.5 15.1852 13.5 14.693V12.9659L22.5 10.5536ZM11.25 12.0215H12.75V14.693H11.25V12.0215ZM2.625 19.5907C2.41846 19.5907 2.25 19.7889 2.25 20.0359C2.25 20.2829 2.41846 20.4811 2.625 20.4811H18.375C18.5815 20.4811 18.75 20.2829 18.75 20.0359C18.75 19.7889 18.5815 19.5907 18.375 19.5907H2.625ZM19.875 19.5907C19.6685 19.5907 19.5 19.7889 19.5 20.0359C19.5 20.2829 19.6685 20.4811 19.875 20.4811H21.375C21.5815 20.4811 21.75 20.2829 21.75 20.0359C21.75 19.7889 21.5815 19.5907 21.375 19.5907H19.875Z" fill="#5B5B5B"/>
</svg>
