<svg width="24" height="24" viewBox="0 0 24 24" fill="none" xmlns="http://www.w3.org/2000/svg">
<path d="M11.978 0C9.39641 0 6.32193 0.51733 3.9633 2.49007C1.60467 4.46281 0 7.80853 0 13.3744V23.1528H5.6367H6.34128H22.5468H23.956H24L23.956 22.6348V13.2093C23.956 12.0564 23.7406 9.12868 22.3748 6.41048C21.6918 5.05138 20.7189 3.74054 19.2922 2.7496C17.9717 1.83243 16.1954 1.26024 14.0656 1.1718L13.211 0H11.978ZM11.978 1.00664H12.3564L13.1615 2.11159H13.5881C15.6064 2.11159 17.1017 2.63215 18.3096 3.47116C19.5176 4.31016 20.4125 5.48466 21.0482 6.74963C22.3194 9.27957 22.5468 12.1525 22.5468 13.2093V19.8468C22.5228 19.826 22.501 19.8033 22.4766 19.7829C21.6648 19.1062 20.6385 18.683 19.6431 18.3487C19.4309 18.2774 19.2323 18.2201 19.0239 18.155V9.93275L18.9303 9.81577C16.674 7.00688 12.4775 4.01478 12.4775 4.01478L12.0385 3.70021L11.5459 3.97251C11.5459 3.97251 4.93211 7.51947 4.93211 12.0797V22.1462H1.40917V13.3744C1.40917 7.94724 2.98517 4.85853 5.03532 3.1438C7.08547 1.42907 9.64788 1.00664 11.978 1.00664ZM11.9573 5.09909C12.3745 5.4064 13.6506 6.36338 15.0124 7.5754C13.8805 7.68621 13.0005 8.13574 13.0005 8.13574L13.7739 8.97723C13.7739 8.97723 14.781 8.55648 15.5009 8.55648H16.0693C16.6192 9.09244 17.1526 9.65421 17.6147 10.2178V10.2719C17.6147 11.4188 16.7057 12.8047 15.494 13.865C14.2823 14.9253 12.727 15.603 11.978 15.603C11.3044 15.603 9.9661 15.066 8.83486 14.1756C7.73703 13.3115 6.8044 12.1585 6.47615 11.0878C6.69929 10.1776 7.19701 9.32227 7.81789 8.55648H8.45505C9.17493 8.55648 10.1821 8.97723 10.1821 8.97723L10.9555 8.13574C10.9555 8.13574 9.95957 7.63299 8.72615 7.5636C10.0695 6.25096 11.5563 5.33902 11.9573 5.09909ZM9.15963 9.56313C8.73688 9.56313 8.45505 9.76445 8.45505 10.0664C8.45505 10.3684 8.73688 10.5698 9.15963 10.5698C9.58239 10.5698 9.86422 10.3181 9.86422 10.0664C9.86422 9.76445 9.58239 9.56313 9.15963 9.56313ZM14.7963 9.56313C14.3736 9.56313 14.0917 9.76445 14.0917 10.0664C14.0917 10.3684 14.3736 10.5698 14.7963 10.5698C15.2191 10.5698 15.5009 10.3684 15.5009 10.0664C15.5009 9.76445 15.2191 9.56313 14.7963 9.56313ZM11.2734 13.0864C10.5688 13.0864 9.86422 13.5897 9.86422 13.5897C9.86422 13.5897 10.7097 14.5964 11.978 14.5964C13.2462 14.5964 14.0917 13.5897 14.0917 13.5897C14.0917 13.5897 13.2462 13.0864 12.6826 13.0864C12.1189 13.0864 11.978 13.5897 11.978 13.5897C11.978 13.5897 11.978 13.0864 11.2734 13.0864ZM6.34128 13.457C6.76765 13.961 7.26041 14.4337 7.79174 14.8519C8.01105 15.0246 8.23664 15.1855 8.46468 15.3405C8.47972 15.7758 8.51518 15.9432 8.4578 16.4671C8.26425 16.8081 7.93595 17.0681 7.41193 17.3096C7.10663 17.4503 6.73785 17.581 6.34128 17.7107V13.457ZM17.6147 13.4609V17.7116C17.3701 17.6322 17.1353 17.5519 16.9225 17.4688C16.2018 17.1876 15.7378 16.8914 15.4982 16.4779C15.4388 15.9464 15.4753 15.7786 15.4913 15.3533C15.8702 15.0946 16.2368 14.8082 16.5867 14.502C16.9572 14.1778 17.3028 13.8276 17.6147 13.4609ZM9.90688 16.1447C10.582 16.4342 11.2769 16.6096 11.978 16.6096C12.6776 16.6096 13.3733 16.4335 14.0491 16.1466C14.054 16.2788 14.067 16.438 14.0945 16.6549L14.1028 16.7217L14.1358 16.7856C14.5236 17.5303 15.3553 18.0047 16.2468 18.3526C16.4962 18.4499 16.7538 18.5383 17.0147 18.6239C16.9819 18.6484 16.971 18.6635 16.9362 18.6888C16.4373 19.0516 15.7384 19.4919 15.0317 19.9422C14.3249 20.3925 13.61 20.8522 13.0472 21.285C12.6669 21.5776 12.3165 21.8321 12.1266 22.1462H11.8294C11.6394 21.8321 11.2891 21.5776 10.9087 21.285C10.346 20.8522 9.63105 20.3925 8.92431 19.9422C8.21757 19.4919 7.51863 19.0516 7.01972 18.6888C6.98436 18.6631 6.97316 18.6478 6.93991 18.6229C7.36696 18.4834 7.78594 18.3346 8.17569 18.155C8.87487 17.8328 9.50146 17.3975 9.82018 16.7856L9.85321 16.7217L9.86147 16.6549C9.88912 16.4368 9.90208 16.2773 9.90688 16.1447ZM18.3784 19.0525C18.6006 19.121 18.8268 19.1873 19.0431 19.2599C19.9592 19.5677 20.7907 19.9236 21.4073 20.4376C21.8996 20.848 22.221 21.4203 22.3982 22.1462H13.8771C13.9412 22.0878 14.0006 22.0308 14.0794 21.9702C14.5735 21.5901 15.2677 21.1408 15.9702 20.6932C16.6726 20.2457 17.3829 19.7994 17.9408 19.3936C18.1016 19.2767 18.2451 19.1642 18.3784 19.0525ZM6.34128 19.6158C6.84149 19.9612 7.40635 20.324 7.98578 20.6932C8.68821 21.1408 9.38246 21.5901 9.87661 21.9702C9.95541 22.0308 10.0148 22.0878 10.0789 22.1462H6.34128V19.6158Z" fill="#5B5B5B"/>
</svg>
