<svg width="24" height="24" viewBox="0 0 24 24" fill="none" xmlns="http://www.w3.org/2000/svg">
<path d="M18.3788 0C16.8864 0 15.6761 1.20556 15.6761 2.69219C15.6761 4.17882 16.8864 5.38438 18.3788 5.38438C19.8713 5.38438 21.0816 4.17882 21.0816 2.69219C21.0816 1.20556 19.8713 0 18.3788 0ZM18.3788 1.07688C19.2729 1.07688 20.0005 1.80161 20.0005 2.69219C20.0005 3.58277 19.2729 4.3075 18.3788 4.3075C17.4848 4.3075 16.7572 3.58277 16.7572 2.69219C16.7572 1.80161 17.4848 1.07688 18.3788 1.07688ZM9.57794 2.28415C9.11625 2.26997 8.65816 2.40471 8.27301 2.67326L4.32971 5.42329C3.62375 5.91488 3.38211 6.86497 3.76699 7.63278C3.99186 8.08022 4.39911 8.4106 4.88399 8.53929C5.37049 8.6669 5.88772 8.58261 6.30611 8.30477L9.79226 5.98907L11.5121 6.67369L8.68159 9.80651C8.18266 10.3579 7.93913 11.07 7.99534 11.8109C8.00724 11.9703 8.03931 12.1245 8.07769 12.2758L3.28767 19.9117C3.10118 20.2084 3.02089 20.5413 3.029 20.8697L1.49708 19.0388C1.30573 18.8105 0.965632 18.7794 0.734816 18.9694C0.505621 19.16 0.475375 19.4999 0.666191 19.7287L2.62887 22.076H0V23.1528H3.78388H4.86499H7.0272C7.32613 23.1528 7.56776 22.9122 7.56776 22.6144C7.56776 22.3166 7.32613 22.076 7.0272 22.076H5.94293C6.00455 22.0178 6.06732 21.9613 6.1203 21.894L11.1774 15.4832L12.7695 16.782L11.0539 19.0599C10.6771 19.5601 10.5857 20.2082 10.81 20.793C11.0338 21.3777 11.5362 21.8002 12.153 21.9235C12.2697 21.9466 12.3888 21.9582 12.5056 21.9582C13.0159 21.9582 13.5131 21.7432 13.8612 21.3587L16.772 18.1365C17.2595 17.597 17.5046 16.9016 17.4614 16.1763C17.4181 15.451 17.0915 14.7883 16.5429 14.3096L14.2085 12.2758L15.7077 9.78758L18.3736 11.262C18.7806 11.4876 19.2287 11.6027 19.6817 11.6027C19.9346 11.6027 20.1889 11.5671 20.4376 11.4954C21.1349 11.2941 21.7101 10.8331 22.0582 10.1977L23.8044 7.00916C24.199 6.29034 23.9799 5.40501 23.2966 4.9511C22.5863 4.47782 21.6386 4.65142 21.1407 5.34547L19.3343 7.86414L15.996 5.48849C15.9781 5.46965 15.9637 5.44896 15.9453 5.43065L14.7428 4.23179C14.12 3.61151 13.3375 3.16989 12.4824 2.9572L10.0383 2.3483C9.88596 2.30994 9.73184 2.28888 9.57794 2.28415ZM9.54416 3.36208C9.62122 3.36434 9.69875 3.37479 9.77537 3.39363L12.2205 4.00253C12.8854 4.16837 13.4925 4.51019 13.9773 4.99317L15.1809 6.19204C15.7085 6.71755 15.8086 7.52847 15.4248 8.16491L13.0493 12.1075C12.9158 12.3304 12.9613 12.6182 13.1581 12.79L15.8323 15.1204C16.161 15.4069 16.3575 15.8043 16.3834 16.2394C16.4099 16.6744 16.262 17.092 15.9696 17.4162L13.0588 20.6384C12.8858 20.8301 12.6214 20.9182 12.3662 20.8676C12.1122 20.817 11.9128 20.6493 11.8204 20.4081C11.728 20.1668 11.7645 19.9118 11.9196 19.7056L13.9467 17.0144C14.1202 16.7834 14.0803 16.4582 13.8559 16.2751L9.66452 12.8594C9.31748 12.5767 9.10839 12.1747 9.07434 11.73C9.04029 11.2857 9.18662 10.8591 9.48609 10.5279L12.8339 6.82197C12.9523 6.69113 12.9991 6.51103 12.9585 6.33927C12.918 6.1675 12.7966 6.02637 12.6323 5.96068L9.92951 4.8838C9.86573 4.85796 9.79808 4.84594 9.72997 4.84594C9.6251 4.84594 9.52041 4.87662 9.43013 4.93638L5.70643 7.40878C5.54373 7.51647 5.35245 7.5493 5.16271 7.49922C4.97352 7.44915 4.8211 7.3261 4.73407 7.15218C4.58434 6.85281 4.67539 6.49676 4.94945 6.30561L8.89275 3.55558C9.08532 3.42151 9.31297 3.35532 9.54416 3.36208ZM22.3348 5.77349C22.4566 5.75127 22.5861 5.77412 22.6969 5.84815C22.9115 5.98976 22.9801 6.26825 22.8564 6.49386L21.1101 9.68242C20.9015 10.0636 20.5567 10.3406 20.1378 10.4606C19.7194 10.5829 19.2799 10.5313 18.8993 10.3208L16.2652 8.86425L16.3528 8.71912C16.6117 8.28891 16.7318 7.81007 16.7318 7.33517L19.1464 9.05354C19.3896 9.22692 19.7267 9.17069 19.9002 8.9284L22.0202 5.97224C22.0986 5.86375 22.213 5.7957 22.3348 5.77349ZM8.66365 13.3768C8.76149 13.4877 8.86202 13.5965 8.97932 13.6923L10.3402 14.8007L5.27146 21.2294C5.15416 21.3769 4.98556 21.4652 4.79636 21.4765C4.60338 21.4846 4.42944 21.4192 4.29593 21.2862C4.08025 21.0713 4.04191 20.7412 4.20407 20.4838L8.66365 13.3768Z" fill="#5B5B5B"/>
</svg>
