<svg width="24" height="24" viewBox="0 0 24 24" fill="none" xmlns="http://www.w3.org/2000/svg">
<path d="M12 0C10.9444 0 10.08 1.60358 10.08 3.56197C10.0781 3.882 10.1681 4.18115 10.3181 4.34463C10.4681 4.50465 10.6519 4.50465 10.8019 4.34463C10.9519 4.18115 11.0419 3.882 11.04 3.56197C11.04 2.56713 11.4637 1.78099 12 1.78099C12.5363 1.78099 12.96 2.56713 12.96 3.56197C12.96 4.62987 12.7537 4.96728 12.42 5.4821C12.2531 5.73951 12.0487 5.983 11.865 6.37259C11.6812 6.76219 11.52 7.35005 11.52 8.01444V9.23887C11.2594 9.45454 9.14625 11.2042 6.72 13.2461C4.1475 15.4132 1.56 17.6012 1.23 17.8934C0.995625 18.1021 0.73125 18.3212 0.48 18.7004C0.22875 19.0795 0 19.7265 0 20.4813C0 21.9458 0.650625 23.1528 1.44 23.1528H22.56C23.3494 23.1528 24 21.9458 24 20.4813C24 19.7126 23.7731 19.0517 23.52 18.6725C23.2669 18.2934 22.9969 18.0916 22.77 17.8934C22.155 17.3611 12.9919 9.6702 12.48 9.23887V8.01444C12.48 7.80921 12.4988 7.72225 12.585 7.54137C12.6713 7.36049 12.8269 7.14482 13.02 6.84567C13.4062 6.24737 13.92 5.21078 13.92 3.56197C13.92 1.60358 13.0556 0 12 0ZM12 10.7694C12.3581 11.072 21.84 19.0656 22.35 19.5074C22.5881 19.7126 22.8094 19.9004 22.92 20.0639C23.0306 20.2274 23.04 20.2657 23.04 20.4813C23.04 20.9857 22.8319 21.3718 22.56 21.3718H1.44C1.16813 21.3718 0.96 20.9857 0.96 20.4813C0.96 20.2761 0.969375 20.2587 1.08 20.0918C1.19063 19.9248 1.40625 19.723 1.65 19.5074C1.8675 19.3126 4.55437 17.0516 7.125 14.8879C9.59813 12.8078 11.8181 10.9225 12 10.7694Z" fill="#5B5B5B"/>
</svg>
