<svg width="24" height="24" viewBox="0 0 24 24" fill="none" xmlns="http://www.w3.org/2000/svg">
<path d="M8.26667 11.5764C8.70833 11.5764 9.06667 12.0085 9.06667 12.5411C9.06667 13.0737 8.70833 13.5058 8.26667 13.5058C7.825 13.5058 7.46667 13.0737 7.46667 12.5411C7.46667 12.0085 7.825 11.5764 8.26667 11.5764ZM15.7333 11.5764C16.175 11.5764 16.5333 12.0085 16.5333 12.5411C16.5333 13.0737 16.175 13.5058 15.7333 13.5058C15.2917 13.5058 14.9333 13.0737 14.9333 12.5411C14.9333 12.0085 15.2917 11.5764 15.7333 11.5764ZM12 10.9333C10.6771 10.9333 9.6 12.2321 9.6 13.8274V17.0431C9.6 18.6383 10.6771 19.9372 12 19.9372C13.3229 19.9372 14.4 18.6383 14.4 17.0431V13.8274C14.4 12.2321 13.3229 10.9333 12 10.9333ZM21.0708 6.75542C21.2417 6.39868 21.3333 5.98919 21.3333 5.57467C21.3333 5.16015 21.2417 4.75065 21.0708 4.39643C20.6396 3.49453 19.7208 3.02977 18.8854 3.29104C18.7146 3.3438 18.55 3.4267 18.3979 3.53221C18.1437 3.71058 18.0563 4.10501 18.2063 4.4115C18.3521 4.72051 18.6813 4.82351 18.9354 4.64514C19.0021 4.5974 19.0771 4.55972 19.1542 4.53711C19.5312 4.41904 19.95 4.62755 20.1479 5.03956C20.225 5.20034 20.2667 5.38625 20.2667 5.57467C20.2667 5.76309 20.225 5.94899 20.1479 6.10978C20 6.41627 20.0875 6.81069 20.3417 6.98906C20.425 7.04684 20.5187 7.07448 20.6083 7.07448C20.7917 7.07448 20.9708 6.96143 21.0708 6.75542ZM3.65833 6.98906C3.9125 6.81069 4 6.41627 3.85208 6.10978C3.775 5.94899 3.73333 5.76309 3.73333 5.57467C3.73333 5.38625 3.775 5.20034 3.85208 5.03956C4.04792 4.62755 4.47083 4.41904 4.84583 4.53711C4.92292 4.55972 4.99792 4.5974 5.06667 4.64514C5.32083 4.82099 5.64792 4.71548 5.79583 4.40899C5.94167 4.09998 5.85417 3.70807 5.6 3.5297C5.44792 3.42419 5.28333 3.3438 5.11458 3.29104C4.27917 3.03228 3.36042 3.49453 2.92917 4.39391C2.75833 4.75065 2.66667 5.16015 2.66667 5.57467C2.66667 5.98919 2.75833 6.39617 2.92917 6.75542C3.02708 6.95891 3.20625 7.07448 3.39167 7.07448C3.48125 7.07448 3.57292 7.04684 3.65833 6.98906ZM12 23.1528C6.67917 23.1528 2.66667 19.5578 2.66667 14.7921C2.66667 12.8752 6.08958 6.31578 7.13958 4.35372C7.875 3.03479 10.2167 2.57254 12 2.57254C13.7854 2.57254 16.125 3.03479 16.8542 4.33864L16.8458 4.34618C17.3729 5.30837 21.3333 12.7923 21.3333 14.7921C21.3333 19.5578 17.3208 23.1528 12 23.1528ZM8.03333 5.05212C5.94792 8.95615 3.73333 13.6967 3.73333 14.7921C3.73333 19.387 7.99167 21.8666 12 21.8666C16.0083 21.8666 20.2667 19.387 20.2667 14.7921C20.2667 13.6013 17.7021 8.27784 15.9667 5.05212C15.6833 4.55721 14.2708 3.85881 12 3.85881C9.73125 3.85881 8.31875 4.5547 8.03333 5.05212ZM3.78125 14.2896L3.225 13.5812C1.20625 11.0212 0 7.93618 0 5.32847C0 2.39166 2.17292 0 4.84583 0C6.86875 0 8.69583 1.40686 9.39167 3.49955L9.60417 4.13515L9.06458 4.34869C8.31458 4.64765 8.0875 4.95917 8.03333 5.05212C7.89792 5.30586 5.13958 10.4861 4.1 13.3928L3.78125 14.2896ZM4.84583 1.28627C2.7625 1.28627 1.06667 3.10011 1.06667 5.32847C1.06667 7.38348 1.95208 9.81785 3.46667 11.9809C4.66875 9.00137 6.86875 4.86119 7.13958 4.35372L7.14792 4.33864C7.34792 3.97688 7.6875 3.66285 8.16042 3.39655C7.50625 2.1128 6.2375 1.28627 4.84583 1.28627ZM20.2167 14.2871L19.8979 13.3953C18.8396 10.4409 16.0479 5.20788 15.9667 5.05463C15.9146 4.96168 15.6896 4.65016 14.9354 4.34869L14.3958 4.13515L14.6083 3.49955C15.3042 1.40686 17.1313 0 19.1542 0C21.8271 0 24 2.39166 24 5.32847C24 7.93618 22.7938 11.0212 20.7729 13.5837L20.2167 14.2871ZM16.8333 4.35372C17.5229 5.41137 19.5792 9.71736 20.525 11.9909C22.0438 9.82538 22.9333 7.38851 22.9333 5.32847C22.9333 3.10011 21.2375 1.28627 19.1542 1.28627C17.7625 1.28627 16.4958 2.1128 15.8396 3.39655C16.3125 3.66285 16.6521 3.97688 16.8521 4.33864L16.8333 4.35372Z" fill="#5B5B5B"/>
</svg>
