<svg width="24" height="24" viewBox="0 0 24 24" fill="none" xmlns="http://www.w3.org/2000/svg">
<path d="M7.27273 0C7.07984 0 6.89486 0.0739185 6.75847 0.205494C6.62208 0.33707 6.54545 0.515525 6.54545 0.701601C6.54545 0.887677 6.62208 1.06613 6.75847 1.19771C6.89486 1.32928 7.07984 1.4032 7.27273 1.4032C7.33628 1.40318 7.39956 1.39511 7.46094 1.37922L11.1222 4.91121H4.36364C1.95801 4.91121 0 6.8001 0 9.12081V18.9432C0 21.2639 1.95801 23.1528 4.36364 23.1528H19.6364C22.042 23.1528 24 21.2639 24 18.9432V9.12081C24 6.8001 22.042 4.91121 19.6364 4.91121H12.8778L14.7216 3.13254C14.7827 3.1486 14.8457 3.1569 14.9091 3.1572C15.102 3.1572 15.287 3.08329 15.4234 2.95171C15.5597 2.82013 15.6364 2.64168 15.6364 2.4556C15.6364 2.26953 15.5597 2.09107 15.4234 1.9595C15.287 1.82792 15.102 1.754 14.9091 1.754C14.7162 1.754 14.5312 1.82792 14.3948 1.9595C14.2584 2.09107 14.1818 2.26953 14.1818 2.4556C14.1818 2.51691 14.1902 2.57796 14.2067 2.63717L12 4.76595L7.97443 0.882482C7.99108 0.82352 7.99968 0.762712 8 0.701601C8 0.515525 7.92338 0.33707 7.78699 0.205494C7.6506 0.0739185 7.46561 0 7.27273 0V0ZM4.36364 5.61281H12.0057H19.6364C21.6489 5.61281 23.2727 7.1793 23.2727 9.12081V18.9432C23.2727 20.8847 21.6489 22.4512 19.6364 22.4512H4.36364C2.35108 22.4512 0.727273 20.8847 0.727273 18.9432V9.12081C0.727273 7.1793 2.35108 5.61281 4.36364 5.61281ZM5.81818 7.71761C4.21584 7.71761 2.90909 8.97823 2.90909 10.524V17.54C2.90909 19.0858 4.21584 20.3464 5.81818 20.3464H16.7273C18.3296 20.3464 19.6364 19.0858 19.6364 17.54V10.524C19.6364 8.97823 18.3296 7.71761 16.7273 7.71761H5.81818ZM5.81818 8.41921H16.7273C17.9366 8.41921 18.9091 9.35741 18.9091 10.524V17.54C18.9091 18.7066 17.9366 19.6448 16.7273 19.6448H5.81818C4.60889 19.6448 3.63636 18.7066 3.63636 17.54V10.524C3.63636 9.35741 4.60889 8.41921 5.81818 8.41921ZM5.81818 10.1732C5.72174 10.1732 5.62925 10.2102 5.56105 10.276C5.49286 10.3417 5.45455 10.431 5.45455 10.524C5.45455 10.6171 5.49286 10.7063 5.56105 10.7721C5.62925 10.8379 5.72174 10.8748 5.81818 10.8748C5.91462 10.8748 6.00712 10.8379 6.07531 10.7721C6.14351 10.7063 6.18182 10.6171 6.18182 10.524C6.18182 10.431 6.14351 10.3417 6.07531 10.276C6.00712 10.2102 5.91462 10.1732 5.81818 10.1732ZM21.4545 11.2256C21.2617 11.2256 21.0767 11.2995 20.9403 11.4311C20.8039 11.5627 20.7273 11.7411 20.7273 11.9272C20.7273 12.1133 20.8039 12.2917 20.9403 12.4233C21.0767 12.5549 21.2617 12.6288 21.4545 12.6288C21.6474 12.6288 21.8324 12.5549 21.9688 12.4233C22.1052 12.2917 22.1818 12.1133 22.1818 11.9272C22.1818 11.7411 22.1052 11.5627 21.9688 11.4311C21.8324 11.2995 21.6474 11.2256 21.4545 11.2256ZM5.81818 11.5764C5.72174 11.5764 5.62925 11.6134 5.56105 11.6792C5.49286 11.745 5.45455 11.8342 5.45455 11.9272C5.45455 12.0203 5.49286 12.1095 5.56105 12.1753C5.62925 12.2411 5.72174 12.278 5.81818 12.278C5.91462 12.278 6.00712 12.2411 6.07531 12.1753C6.14351 12.1095 6.18182 12.0203 6.18182 11.9272C6.18182 11.8342 6.14351 11.745 6.07531 11.6792C6.00712 11.6134 5.91462 11.5764 5.81818 11.5764ZM5.81818 12.9796C5.72174 12.9796 5.62925 13.0166 5.56105 13.0824C5.49286 13.1482 5.45455 13.2374 5.45455 13.3304C5.45455 13.4235 5.49286 13.5127 5.56105 13.5785C5.62925 13.6443 5.72174 13.6812 5.81818 13.6812C5.91462 13.6812 6.00712 13.6443 6.07531 13.5785C6.14351 13.5127 6.18182 13.4235 6.18182 13.3304C6.18182 13.2374 6.14351 13.1482 6.07531 13.0824C6.00712 13.0166 5.91462 12.9796 5.81818 12.9796ZM21.4545 14.032C21.3581 14.032 21.2656 14.069 21.1974 14.1348C21.1292 14.2006 21.0909 14.2898 21.0909 14.3828C21.0909 14.4759 21.1292 14.5651 21.1974 14.6309C21.2656 14.6967 21.3581 14.7336 21.4545 14.7336C21.551 14.7336 21.6435 14.6967 21.7117 14.6309C21.7799 14.5651 21.8182 14.4759 21.8182 14.3828C21.8182 14.2898 21.7799 14.2006 21.7117 14.1348C21.6435 14.069 21.551 14.032 21.4545 14.032ZM5.81818 14.3828C5.72174 14.3828 5.62925 14.4198 5.56105 14.4856C5.49286 14.5514 5.45455 14.6406 5.45455 14.7336C5.45455 14.8267 5.49286 14.9159 5.56105 14.9817C5.62925 15.0475 5.72174 15.0844 5.81818 15.0844C5.91462 15.0844 6.00712 15.0475 6.07531 14.9817C6.14351 14.9159 6.18182 14.8267 6.18182 14.7336C6.18182 14.6406 6.14351 14.5514 6.07531 14.4856C6.00712 14.4198 5.91462 14.3828 5.81818 14.3828ZM21.4545 15.4352C21.3581 15.4352 21.2656 15.4722 21.1974 15.538C21.1292 15.6038 21.0909 15.693 21.0909 15.786C21.0909 15.8791 21.1292 15.9683 21.1974 16.0341C21.2656 16.0999 21.3581 16.1368 21.4545 16.1368C21.551 16.1368 21.6435 16.0999 21.7117 16.0341C21.7799 15.9683 21.8182 15.8791 21.8182 15.786C21.8182 15.693 21.7799 15.6038 21.7117 15.538C21.6435 15.4722 21.551 15.4352 21.4545 15.4352ZM5.81818 15.786C5.72174 15.786 5.62925 15.823 5.56105 15.8888C5.49286 15.9546 5.45455 16.0438 5.45455 16.1368C5.45455 16.2299 5.49286 16.3191 5.56105 16.3849C5.62925 16.4507 5.72174 16.4876 5.81818 16.4876C5.91462 16.4876 6.00712 16.4507 6.07531 16.3849C6.14351 16.3191 6.18182 16.2299 6.18182 16.1368C6.18182 16.0438 6.14351 15.9546 6.07531 15.8888C6.00712 15.823 5.91462 15.786 5.81818 15.786ZM5.81818 17.1892C5.72174 17.1892 5.62925 17.2262 5.56105 17.292C5.49286 17.3578 5.45455 17.447 5.45455 17.54C5.45455 17.6331 5.49286 17.7223 5.56105 17.7881C5.62925 17.8539 5.72174 17.8908 5.81818 17.8908C5.91462 17.8908 6.00712 17.8539 6.07531 17.7881C6.14351 17.7223 6.18182 17.6331 6.18182 17.54C6.18182 17.447 6.14351 17.3578 6.07531 17.292C6.00712 17.2262 5.91462 17.1892 5.81818 17.1892Z" fill="#5B5B5B"/>
</svg>
