<svg width="24" height="24" viewBox="0 0 24 24" fill="none" xmlns="http://www.w3.org/2000/svg">
<path d="M7.86835 0.00108166C7.75463 -0.00679521 7.63963 0.0284049 7.54596 0.104836C7.42057 0.207286 7.34698 0.369193 7.34698 0.541027V10.5681C7.34698 10.799 7.48012 11.0052 7.67702 11.0805L14.6939 13.7676V14.8697L13.5651 14.5023C13.4754 14.4725 13.3787 14.4725 13.2886 14.5023L9.96145 15.5864C9.7528 15.6542 9.60941 15.8661 9.60941 16.1063C9.60941 16.3464 9.7528 16.5583 9.96145 16.6261L16.6158 18.7943C16.6608 18.809 16.707 18.8166 16.7535 18.8166C16.8001 18.8166 16.8472 18.809 16.8922 18.7943L20.2194 17.7102C20.4281 17.6425 20.5714 17.4305 20.5714 17.1904C20.5714 16.9503 20.4281 16.7383 20.2194 16.6706L18.0526 15.9644V15.0539L23.3504 17.0835C23.4024 17.103 23.4563 17.1131 23.5102 17.1131C23.6106 17.1131 23.7101 17.0792 23.7943 17.0125C23.9236 16.9112 24 16.7461 24 16.571V5.88437C24 5.64694 23.8604 5.43606 23.6547 5.36559L7.98123 0.0233147C7.94449 0.0108473 7.90625 0.0037073 7.86835 0.00108166ZM8.32657 1.27578L23.0204 6.28456V15.8098L8.32657 10.1817V1.27578ZM15.6735 14.1434L17.073 14.6791V15.6457L15.6735 15.1894V14.1434ZM13.4264 15.5875L18.3473 17.1904L16.7535 17.7092L11.8336 16.1063L13.4264 15.5875ZM5.88525 16.1063C5.83939 16.1054 5.79327 16.1118 5.74845 16.1253L0.360711 17.7515C0.150589 17.8149 0.00349011 18.0243 6.15453e-05 18.265C-0.00336702 18.5067 0.136753 18.7212 0.345405 18.7922L13.0801 23.1287C13.1271 23.1444 13.1755 23.1531 13.2245 23.1531C13.2681 23.1531 13.3115 23.1465 13.3537 23.134L18.7414 21.5078C18.9515 21.4444 19.0986 21.235 19.1021 20.9944C19.1055 20.7526 18.9654 20.5381 18.7567 20.4671L6.02205 16.1306C5.97748 16.1157 5.93111 16.1071 5.88525 16.1063ZM5.86994 17.2126L16.8549 20.9531L13.2331 22.0467L2.24814 18.3063L5.86994 17.2126Z" fill="#5B5B5B"/>
</svg>
