<svg width="24" height="23" viewBox="0 0 24 23" fill="none" xmlns="http://www.w3.org/2000/svg">
<path d="M12 0.493731C11.1203 0.493731 9.85938 0.751925 9.075 1.24351C7.5875 1.29311 6.56875 2.27191 6.4 3.81816C6.3 4.77362 6.39219 5.4563 6.45625 5.90851C6.47656 6.06605 6.5 6.24401 6.49219 6.29653L6.45625 6.5095C6.4 6.5095 6.34063 6.51679 6.28438 6.53284C5.62031 6.69622 5.34375 7.59625 5.63906 8.62756C5.85625 9.37005 6.30469 9.9302 6.79531 10.1023C7.03594 10.785 7.37969 11.4619 7.80781 12.0818L2.5 14.4522C0.984375 15.132 0 16.5849 0 18.1574V21.0325C0 21.6481 0.540625 22.1528 1.2 22.1528H22.8C23.4594 22.1528 24 21.6481 24 21.0325V18.1574C24 16.5849 23.0156 15.132 21.5 14.4522L16.1922 12.0818C16.6234 11.4619 16.9672 10.785 17.2078 10.1023C17.6953 9.9302 18.1438 9.37005 18.3609 8.62756C18.6562 7.59625 18.3797 6.69622 17.7156 6.53284C17.6594 6.51679 17.6031 6.5095 17.5438 6.5095C17.4875 6.10689 17.3797 5.73638 17.175 5.22582C17.1719 5.20978 17.1688 5.19519 17.1641 5.18498C17.3406 5.19957 17.5875 5.26959 17.7156 5.31918C17.7641 5.33669 17.8125 5.34836 17.8641 5.34836C18.0844 5.35273 18.275 5.18352 18.275 4.97493C18.275 4.91949 18.2641 4.8699 18.2391 4.82176C17.5766 2.10999 15.3953 0.493731 12.4 0.493731H12ZM12 1.2406H12.4C14.8281 1.2406 16.5844 2.39882 17.3 4.44833C17.2406 4.44103 17.175 4.43812 17.1156 4.43812C16.7437 4.43812 16.5562 4.58691 16.4609 4.71381C16.3156 4.90782 16.3047 5.16893 16.4281 5.48256C16.6719 6.10981 16.7609 6.48033 16.7875 7.00255C16.7969 7.13675 16.8766 7.25637 17.0047 7.32055C17.1313 7.3789 17.2844 7.37306 17.4047 7.29721C17.4766 7.25637 17.5125 7.25199 17.5125 7.25199C17.6078 7.27825 17.7875 7.73483 17.5875 8.43355C17.4875 8.77635 17.3438 9.02288 17.2078 9.18042C17.0766 9.3365 16.9516 9.4109 16.8922 9.4109C16.7156 9.4109 16.5594 9.51884 16.5078 9.6793C16.2797 10.397 15.9234 11.122 15.4719 11.7609C15.3234 11.9768 15.1641 12.1825 14.9875 12.3736C14.1719 13.2984 13.1313 13.9373 12 13.9373C10.8688 13.9373 9.82813 13.2984 9.0125 12.3736C8.83594 12.1825 8.67656 11.9768 8.52812 11.7609C8.07187 11.122 7.71563 10.397 7.4875 9.6793C7.44063 9.51884 7.28438 9.4109 7.10781 9.4109C6.9875 9.4109 6.6125 9.12061 6.4125 8.43355C6.2125 7.73483 6.39219 7.27825 6.48438 7.25199C6.48438 7.25199 6.52031 7.25637 6.59531 7.29721C6.71563 7.37306 6.86875 7.3789 6.99531 7.32055C7.12344 7.25637 7.20313 7.13675 7.2125 7.00255C7.22031 6.80854 7.24375 6.61453 7.27969 6.42781C7.31094 6.26735 7.28438 6.08793 7.24844 5.81515C7.19219 5.3965 7.10469 4.76195 7.2 3.89109C7.32344 2.70078 8.07656 1.98746 9.20781 1.98746C9.29219 1.98746 9.375 1.96121 9.44844 1.91307C9.99531 1.52796 11.0922 1.2406 12 1.2406ZM9.81094 3.52787C9.525 3.50453 9.2375 3.62561 9.07344 3.86046L8.43125 4.76925C8.30938 4.94137 8.36094 5.17331 8.54531 5.28709C8.61406 5.32939 8.68906 5.34836 8.76406 5.34836C8.89531 5.34836 9.02188 5.29001 9.1 5.1806L9.74063 4.27182L10.3656 4.55627C11.5047 5.07412 12.7781 5.34836 14.0453 5.34836H15.0672C15.2875 5.34836 15.4672 5.1806 15.4672 4.97493C15.4672 4.76925 15.2875 4.60149 15.0672 4.60149H14.0453C12.8984 4.60149 11.7469 4.35351 10.7172 3.8838L10.0922 3.59935C10.0016 3.55851 9.90625 3.53517 9.81094 3.52787ZM21.2 5.72179C20.7578 5.72179 20.4 6.05584 20.4 6.46866C20.4 6.88147 20.7578 7.21552 21.2 7.21552C21.6422 7.21552 22 6.88147 22 6.46866C22 6.05584 21.6422 5.72179 21.2 5.72179ZM8.27969 12.7003C9.25938 13.8629 10.5641 14.6842 12 14.6842C13.4359 14.6842 14.7406 13.8629 15.7203 12.7003L21.1516 15.1247C22.3969 15.6805 23.2 16.8723 23.2 18.1574V21.0325C23.2 21.2382 23.0203 21.406 22.8 21.406H1.2C0.979688 21.406 0.8 21.2382 0.8 21.0325V18.1574C0.8 16.8723 1.60313 15.6805 2.84688 15.1247L8.27969 12.7003ZM9.425 14.7469C9.1 14.7367 8.8 14.989 8.8 15.3041V17.0517C8.8 17.412 9.19063 17.6891 9.56406 17.59L11.45 17.0867C11.8078 16.9904 12.1922 16.9904 12.55 17.0867L14.4359 17.59C14.4891 17.6031 14.5437 17.6118 14.6 17.6118C14.7578 17.6118 14.9078 17.5535 15.0203 17.4499C15.1359 17.3449 15.2 17.2019 15.2 17.0517V15.3041C15.2 14.9438 14.8094 14.6667 14.4359 14.7659L12.55 15.2691C12.1922 15.3654 11.8078 15.3654 11.45 15.2691L9.56406 14.7659C9.51875 14.7542 9.47188 14.7469 9.425 14.7469ZM9.6 15.5521L11.2312 15.9868C11.7312 16.121 12.2687 16.121 12.7687 15.9868L14.4 15.5536V16.8022L12.7687 16.369C12.5187 16.3019 12.2594 16.2669 12 16.2669C11.7406 16.2669 11.4812 16.3019 11.2312 16.369L9.6 16.8022V15.5521ZM12 17.6716C11.7797 17.6716 11.6 17.8394 11.6 18.0451V20.2857C11.6 20.4913 11.7797 20.6591 12 20.6591C12.2203 20.6591 12.4 20.4913 12.4 20.2857V18.0451C12.4 17.8394 12.2203 17.6716 12 17.6716ZM2 19.1654C1.77969 19.1654 1.6 19.3331 1.6 19.5388V20.2857C1.6 20.4913 1.77969 20.6591 2 20.6591C2.22031 20.6591 2.4 20.4913 2.4 20.2857V19.5388C2.4 19.3331 2.22031 19.1654 2 19.1654ZM4 19.1654C3.77969 19.1654 3.6 19.3331 3.6 19.5388V20.2857C3.6 20.4913 3.77969 20.6591 4 20.6591C4.22031 20.6591 4.4 20.4913 4.4 20.2857V19.5388C4.4 19.3331 4.22031 19.1654 4 19.1654ZM6 19.1654C5.77969 19.1654 5.6 19.3331 5.6 19.5388V20.2857C5.6 20.4913 5.77969 20.6591 6 20.6591C6.22031 20.6591 6.4 20.4913 6.4 20.2857V19.5388C6.4 19.3331 6.22031 19.1654 6 19.1654ZM8 19.1654C7.77969 19.1654 7.6 19.3331 7.6 19.5388V20.2857C7.6 20.4913 7.77969 20.6591 8 20.6591C8.22031 20.6591 8.4 20.4913 8.4 20.2857V19.5388C8.4 19.3331 8.22031 19.1654 8 19.1654ZM10 19.1654C9.77969 19.1654 9.6 19.3331 9.6 19.5388V20.2857C9.6 20.4913 9.77969 20.6591 10 20.6591C10.2203 20.6591 10.4 20.4913 10.4 20.2857V19.5388C10.4 19.3331 10.2203 19.1654 10 19.1654ZM14 19.1654C13.7797 19.1654 13.6 19.3331 13.6 19.5388V20.2857C13.6 20.4913 13.7797 20.6591 14 20.6591C14.2203 20.6591 14.4 20.4913 14.4 20.2857V19.5388C14.4 19.3331 14.2203 19.1654 14 19.1654ZM16 19.1654C15.7797 19.1654 15.6 19.3331 15.6 19.5388V20.2857C15.6 20.4913 15.7797 20.6591 16 20.6591C16.2203 20.6591 16.4 20.4913 16.4 20.2857V19.5388C16.4 19.3331 16.2203 19.1654 16 19.1654ZM18 19.1654C17.7797 19.1654 17.6 19.3331 17.6 19.5388V20.2857C17.6 20.4913 17.7797 20.6591 18 20.6591C18.2203 20.6591 18.4 20.4913 18.4 20.2857V19.5388C18.4 19.3331 18.2203 19.1654 18 19.1654ZM20 19.1654C19.7797 19.1654 19.6 19.3331 19.6 19.5388V20.2857C19.6 20.4913 19.7797 20.6591 20 20.6591C20.2203 20.6591 20.4 20.4913 20.4 20.2857V19.5388C20.4 19.3331 20.2203 19.1654 20 19.1654ZM22 19.1654C21.7797 19.1654 21.6 19.3331 21.6 19.5388V20.2857C21.6 20.4913 21.7797 20.6591 22 20.6591C22.2203 20.6591 22.4 20.4913 22.4 20.2857V19.5388C22.4 19.3331 22.2203 19.1654 22 19.1654Z" fill="#5B5B5B"/>
</svg>
