<svg width="24" height="24" viewBox="0 0 24 24" fill="none" xmlns="http://www.w3.org/2000/svg">
<path d="M12 0C5.37754 0 0 3.82265 0 8.53026C0 11.1388 2.95342 14.7043 5.86189 17.6906C8.77036 20.677 11.6769 23.0488 11.6769 23.0488C11.7171 23.0816 11.7668 23.108 11.8225 23.126C11.8783 23.144 11.9388 23.1533 12 23.1533C12.0612 23.1533 12.1217 23.144 12.1775 23.126C12.2332 23.108 12.2829 23.0816 12.3231 23.0488C12.3231 23.0488 15.2296 20.677 18.1381 17.6906C21.0466 14.7043 24 11.1388 24 8.53026C24 3.82265 18.6225 0 12 0ZM12 0.609304C18.1593 0.609304 23.1429 4.15192 23.1429 8.53026C23.1429 10.7961 20.3106 14.39 17.4333 17.3443C14.8144 20.0334 12.4494 22.0004 12 22.3717C11.5506 22.0004 9.18562 20.0334 6.56669 17.3443C3.68944 14.39 0.857143 10.7961 0.857143 8.53026C0.857143 4.15192 5.84075 0.609304 12 0.609304ZM12 2.13256C7.03191 2.13256 3 4.99867 3 8.53026C3 12.0618 7.03191 14.928 12 14.928C16.894 14.928 20.8715 12.1453 20.9891 8.68616C20.9898 8.66615 20.9849 8.64624 20.9747 8.62758C20.9646 8.60891 20.9494 8.59185 20.9299 8.57737C20.9105 8.56289 20.8872 8.55127 20.8615 8.54318C20.8357 8.53509 20.808 8.53068 20.7799 8.53021C20.7517 8.52974 20.7237 8.53322 20.6975 8.54045C20.6712 8.54767 20.6472 8.5585 20.6268 8.57232C20.6065 8.58614 20.5901 8.60267 20.5788 8.62098C20.5674 8.63929 20.5612 8.65901 20.5605 8.67901C20.4952 10.6 19.1787 12.2956 17.173 13.3803C16.8819 12.972 16.3869 12.6461 15.7684 12.4747C15.761 12.4725 15.7534 12.4706 15.7458 12.4687L14.0232 12.0677C14.0221 12.0675 13.8168 11.9958 13.7553 11.8124C14.0533 11.6786 14.369 11.5369 14.6752 11.2912C15.0467 10.9931 15.354 10.6089 15.3976 10.1695C15.631 10.0606 15.8178 9.918 15.8898 9.75541C15.9255 9.67646 16.016 9.4626 16.1032 9.24786C16.147 9.13999 16.1884 9.03429 16.2204 8.94915C16.2364 8.90659 16.25 8.8695 16.2606 8.83729C16.2712 8.80508 16.2857 8.81818 16.2857 8.71531C16.2857 8.54529 16.183 8.36705 16.0497 8.27618C16.0494 8.27598 16.0491 8.27579 16.0488 8.27559C15.9961 8.23984 16.0141 8.25417 16.0086 8.25119C16.0032 8.24821 15.9983 8.24523 15.9927 8.24227C15.9816 8.23634 15.9676 8.22974 15.9517 8.22144C15.925 8.2075 15.8909 8.18951 15.8571 8.17205V7.31165C15.8571 5.80103 14.1251 4.56978 12 4.56978C9.87492 4.56978 8.14286 5.80103 8.14286 7.31165V8.17205C8.10912 8.18951 8.07504 8.20748 8.04827 8.22144C8.03237 8.22974 8.01844 8.23634 8.00725 8.24227C8.00167 8.24522 7.99681 8.24822 7.99135 8.25119C7.98589 8.25418 8.00386 8.23983 7.95117 8.27559C7.81607 8.36725 7.71429 8.54549 7.71429 8.71531C7.71429 8.81818 7.72882 8.80508 7.7394 8.83729C7.74998 8.8695 7.76358 8.90659 7.77958 8.94915C7.81156 9.03429 7.85296 9.13999 7.89676 9.24786C7.98397 9.4626 8.07446 9.67646 8.11021 9.75541C8.18225 9.91819 8.36934 10.0607 8.6024 10.1695C8.64599 10.6089 8.95332 10.9926 9.32478 11.2906C9.63105 11.5363 9.94678 11.6785 10.2447 11.8124C10.1832 11.9958 9.97792 12.0675 9.97684 12.0677L8.25419 12.4687C8.24658 12.4706 8.23904 12.4725 8.23158 12.4747C7.61251 12.6464 7.11738 12.9728 6.82617 13.3815C4.7647 12.2691 3.42857 10.5134 3.42857 8.53026C3.42857 5.16331 7.26352 2.43722 12 2.43722C13.4362 2.43722 14.785 2.69077 15.9718 3.13518C15.9968 3.14535 16.0244 3.15183 16.053 3.15425C16.0816 3.15666 16.1106 3.15495 16.1382 3.14923C16.1659 3.1435 16.1916 3.13387 16.2139 3.12092C16.2362 3.10796 16.2546 3.09195 16.268 3.07382C16.2814 3.0557 16.2895 3.03585 16.2919 3.01545C16.2942 2.99505 16.2908 2.97452 16.2817 2.95509C16.2727 2.93565 16.2582 2.91772 16.2392 2.90235C16.2202 2.88698 16.197 2.87449 16.171 2.86563C14.9252 2.39913 13.5072 2.13256 12 2.13256ZM17.1889 3.34998C17.1444 3.35146 17.1017 3.36275 17.0666 3.38229C17.0316 3.40183 17.006 3.42865 16.9933 3.45902C16.9807 3.48939 16.9817 3.52179 16.9962 3.55173C17.0107 3.58167 17.038 3.60766 17.0742 3.62607C17.7174 3.96437 18.2921 4.36456 18.7801 4.81493C18.7966 4.83204 18.8178 4.84657 18.8425 4.85765C18.8671 4.86872 18.8947 4.87611 18.9235 4.87935C18.9523 4.88259 18.9817 4.88162 19.0099 4.8765C19.0382 4.87138 19.0647 4.86222 19.0878 4.84957C19.1109 4.83692 19.1301 4.82105 19.1443 4.80294C19.1584 4.78483 19.1673 4.76485 19.1702 4.74423C19.1731 4.72361 19.1701 4.70278 19.1613 4.68301C19.1526 4.66325 19.1382 4.64497 19.1191 4.62928C18.6069 4.15656 18.0046 3.73602 17.3295 3.38092C17.2893 3.35913 17.2394 3.34817 17.1889 3.34998ZM12 5.17909C13.6618 5.17909 15 6.13037 15 7.31165V8.32736C15 8.37556 15.0161 8.42308 15.0469 8.466C15.0778 8.50893 15.1225 8.54604 15.1775 8.57429C15.1775 8.57429 15.2554 8.61475 15.3348 8.65581C15.3673 8.67261 15.3972 8.68808 15.4244 8.70222C15.4173 8.72353 15.4067 8.75456 15.3926 8.79207C15.3633 8.87012 15.3224 8.97329 15.2796 9.07887C15.1938 9.29003 15.0966 9.51862 15.0728 9.57096C15.0725 9.57155 15.0723 9.57214 15.072 9.57274C15.0421 9.64028 15.016 9.67489 14.8761 9.70483C14.788 9.72375 14.7108 9.76231 14.656 9.81481C14.6011 9.86732 14.5715 9.93099 14.5714 9.9964V10.0791C14.5714 10.3345 14.3509 10.6316 14.0332 10.8866C13.7155 11.1415 13.3062 11.349 13.0932 11.425C13.0223 11.4504 12.9627 11.4892 12.921 11.5373C12.8793 11.5853 12.8572 11.6406 12.8571 11.697V11.7434C12.8571 12.3809 13.7168 12.6371 13.7168 12.6371C13.7234 12.6388 13.7301 12.6404 13.7369 12.6419L15.4579 13.0429C15.9156 13.17 16.2642 13.4216 16.4506 13.7302C15.1533 14.2933 13.6334 14.6233 12 14.6233C10.3677 14.6233 8.84831 14.2935 7.55022 13.7314C7.73678 13.4222 8.08421 13.1702 8.54213 13.0429L8.54297 13.0423L10.2631 12.6419C10.2699 12.6404 10.2766 12.6388 10.2832 12.6371C10.2832 12.6371 11.1429 12.3809 11.1429 11.7434V11.697C11.1428 11.6406 11.1207 11.5853 11.079 11.5373C11.0373 11.4892 10.9777 11.4504 10.9068 11.425C10.6935 11.3488 10.2845 11.1415 9.9668 10.8866C9.64905 10.6316 9.42857 10.3343 9.42857 10.0791V9.9964C9.42854 9.93099 9.3989 9.86732 9.34402 9.81481C9.28915 9.76231 9.21197 9.72375 9.12388 9.70483C8.98444 9.67492 8.95774 9.63992 8.92801 9.57274C8.92774 9.57214 8.92746 9.57155 8.92718 9.57096C8.90344 9.51862 8.80617 9.29003 8.72042 9.07887C8.67755 8.97329 8.63675 8.87012 8.60742 8.79207C8.59333 8.75456 8.58269 8.72353 8.57561 8.70222C8.60281 8.68808 8.63268 8.67261 8.66518 8.65581C8.7446 8.61475 8.82255 8.57429 8.82255 8.57429C8.87749 8.54604 8.92223 8.50893 8.95308 8.466C8.98393 8.42308 9.00001 8.37556 9 8.32736V7.31165C9 6.13037 10.3382 5.17909 12 5.17909ZM19.7779 5.48195C19.7407 5.48186 19.7041 5.48865 19.6717 5.50165C19.6394 5.51466 19.6123 5.53343 19.5932 5.55612C19.5741 5.57881 19.5637 5.60464 19.5629 5.63107C19.5621 5.6575 19.571 5.68363 19.5887 5.70687C19.7988 5.9918 19.9791 6.28935 20.1244 6.59822C20.1322 6.61815 20.1456 6.63675 20.1638 6.65289C20.182 6.66903 20.2046 6.68237 20.2303 6.69209C20.2559 6.70181 20.2841 6.70772 20.3131 6.70944C20.3421 6.71117 20.3713 6.70868 20.3989 6.70212C20.4265 6.69557 20.4519 6.68509 20.4736 6.67133C20.4953 6.65756 20.5129 6.6408 20.5252 6.62206C20.5375 6.60332 20.5443 6.58299 20.5452 6.56232C20.5461 6.54165 20.5411 6.52107 20.5304 6.50182C20.3775 6.17701 20.189 5.86404 19.9688 5.56526C19.9508 5.54021 19.9235 5.51917 19.8899 5.50447C19.8562 5.48977 19.8174 5.48198 19.7779 5.48195ZM8.5731 8.70341C8.57187 8.68625 8.57143 8.6526 8.57143 8.71531C8.57143 8.70541 8.56969 8.71026 8.56892 8.70579C8.57042 8.70503 8.5718 8.70409 8.5731 8.70341ZM15.4269 8.70341C15.4282 8.70409 15.4296 8.70503 15.4311 8.70579C15.4304 8.71035 15.4286 8.70541 15.4286 8.71531C15.4286 8.6526 15.4281 8.68625 15.4269 8.70341Z" fill="#5B5B5B"/>
</svg>
