<svg width="24" height="24" viewBox="0 0 24 24" fill="none" xmlns="http://www.w3.org/2000/svg">
<path d="M11.9979 0C9.90305 0 8.72238 0.0690489 6.64654 0.184582H6.4561C5.52293 0.230795 4.7038 0.923901 4.32291 1.94059L2.22804 7.57868C2.22804 7.60179 2.20907 7.62507 2.20907 7.64818C1.5806 7.57886 1.04751 7.48634 0.647581 7.44013C0.342872 7.39392 0.0570586 7.67111 0.0189699 8.04081C-0.0191187 8.41052 0.209339 8.75729 0.514048 8.80351C2.47561 9.10389 7.54155 9.75079 11.9979 9.75079C16.4543 9.75079 21.5202 9.1038 23.4818 8.82652C23.8056 8.78031 24.0339 8.43353 23.9959 8.06383C23.9578 7.69412 23.6719 7.41693 23.3672 7.46315C22.9673 7.50936 22.4342 7.60188 21.8058 7.6712C21.8058 7.64809 21.7868 7.6248 21.7868 7.6017L19.6729 1.98707C19.2921 0.970385 18.4729 0.277279 17.5397 0.231066H17.3493C15.2735 0.0693197 14.0928 0 11.9979 0ZM11.9979 1.38639C14.0738 1.38639 15.1785 1.45544 17.2924 1.57097H17.4828C17.978 1.59408 18.416 1.9637 18.6255 2.51825L20.5868 7.78673C18.2063 8.06401 14.9688 8.36439 11.9979 8.36439C9.02701 8.36439 5.78955 8.06401 3.40901 7.78673L5.37035 2.51825C5.57984 1.9637 6.01786 1.59408 6.51301 1.57097H6.70345C8.81737 1.43234 9.92209 1.38639 11.9979 1.38639ZM2.47576 10.675C1.10457 10.675 0 12.0152 0 13.6789V17.8381C0 18.7392 0.476108 19.5018 1.14266 19.8021V22.4594C1.14266 22.8522 1.39024 23.1526 1.71399 23.1526H5.52285C5.84661 23.1526 6.09418 22.8522 6.09418 22.4594V19.9177H17.9017V22.4594C17.9017 22.8522 18.1492 23.1526 18.473 23.1526H22.2819C22.6056 23.1526 22.8532 22.8522 22.8532 22.4594V19.8021C23.5197 19.5249 23.9959 18.7392 23.9959 17.8381V13.6789C23.9959 12.0152 22.8913 10.675 21.5201 10.675C20.1489 10.675 19.0443 12.0152 19.0443 13.6789C19.0443 15.3426 20.1489 16.6828 21.5201 16.6828C22.0152 16.6828 22.4723 16.498 22.8532 16.1976V17.8381C22.8532 18.2309 22.6056 18.5313 22.2819 18.5313H1.71399C1.39024 18.5313 1.14266 18.2309 1.14266 17.8381V16.1976C1.52355 16.498 1.98061 16.6828 2.47576 16.6828C3.84695 16.6828 4.95152 15.3426 4.95152 13.6789C4.95152 12.0152 3.84695 10.675 2.47576 10.675ZM2.47576 12.0614C3.21849 12.0614 3.80887 12.7777 3.80887 13.6789C3.80887 14.5801 3.21849 15.2964 2.47576 15.2964C1.73303 15.2964 1.14266 14.5801 1.14266 13.6789C1.14266 12.7777 1.73303 12.0614 2.47576 12.0614ZM21.5201 12.0614C22.2628 12.0614 22.8532 12.7777 22.8532 13.6789C22.8532 14.5801 22.2628 15.2964 21.5201 15.2964C20.7774 15.2964 20.187 14.5801 20.187 13.6789C20.187 12.7777 20.7774 12.0614 21.5201 12.0614ZM7.80817 14.8342C7.48442 14.8342 7.23684 15.1346 7.23684 15.5274C7.23684 15.9202 7.48442 16.2206 7.80817 16.2206H16.1877C16.5114 16.2206 16.759 15.9202 16.759 15.5274C16.759 15.1346 16.5114 14.8342 16.1877 14.8342H7.80817ZM2.28532 19.9177H4.95152V21.7662H2.28532V19.9177ZM19.0443 19.9177H21.7105V21.7662H19.0443V19.9177Z" fill="#5B5B5B"/>
</svg>
