<svg width="24" height="24" viewBox="0 0 24 24" fill="none" xmlns="http://www.w3.org/2000/svg">
<path d="M5.00051 0L0.128769 4.70008L7.07767 11.4041L7.6326 10.8687L1.23863 4.70008L5.00051 1.07075L11.3945 7.23942L11.9494 6.70404L5.00051 0ZM21.7021 0.158246C21.1533 0.158246 20.606 0.359382 20.1891 0.760176L19.8579 1.08111L19.5207 0.757218L16.6111 3.56425L2.30864 17.3613L0 23.1528L6.0046 20.927L6.06285 20.8693L23.2151 4.32147L22.8794 3.9961L23.2121 3.67665C23.8452 3.06437 23.9877 2.15925 23.6551 1.40647H23.8804L23.2121 0.760176C22.7966 0.360862 22.2494 0.159726 21.7021 0.158246ZM21.7006 0.912507C22.0455 0.912507 22.3904 1.0397 22.6556 1.29703C23.1875 1.80875 23.1875 2.62808 22.6556 3.13979L22.3229 3.4622L20.4113 1.61796L20.7455 1.29703C21.0107 1.0397 21.3556 0.911028 21.7006 0.912507ZM19.5207 1.82797L22.1053 4.32147L20.3332 6.03112L17.7486 3.53763L19.5207 1.82797ZM5.39295 2.80703C5.1768 2.80703 5.00051 2.97711 5.00051 3.18564C5.00051 3.39417 5.1768 3.56425 5.39295 3.56425C5.6091 3.56425 5.78539 3.39417 5.78539 3.18564C5.78539 2.97711 5.6091 2.80703 5.39295 2.80703ZM4.21564 3.94286C3.99949 3.94286 3.8232 4.11294 3.8232 4.32147C3.8232 4.53 3.99949 4.70008 4.21564 4.70008C4.43178 4.70008 4.60807 4.53 4.60807 4.32147C4.60807 4.11294 4.43178 3.94286 4.21564 3.94286ZM6.57026 3.94286C6.35411 3.94286 6.17782 4.11294 6.17782 4.32147C6.17782 4.53 6.35411 4.70008 6.57026 4.70008C6.78641 4.70008 6.9627 4.53 6.9627 4.32147C6.9627 4.11294 6.78641 3.94286 6.57026 3.94286ZM17.1661 4.09963L19.7506 6.59312L6.04292 19.8178C5.97394 19.6093 5.86663 19.3874 5.67041 19.1981C5.38222 18.9201 5.01891 18.8181 4.73378 18.7633C4.64333 18.7456 4.64333 18.7545 4.56975 18.7456C4.56055 18.6746 4.56975 18.6746 4.55135 18.5873C4.49463 18.3123 4.38886 17.9617 4.10066 17.6837C3.90444 17.4944 3.6745 17.3909 3.45835 17.3243L17.1661 4.09963ZM7.74757 5.07869C7.53143 5.07869 7.35514 5.24876 7.35514 5.45729C7.35514 5.66583 7.53143 5.8359 7.74757 5.8359C7.96372 5.8359 8.14001 5.66583 8.14001 5.45729C8.14001 5.24876 7.96372 5.07869 7.74757 5.07869ZM17.1661 5.07869C16.9499 5.07869 16.7736 5.24876 16.7736 5.45729C16.7736 5.66583 16.9499 5.8359 17.1661 5.8359C17.3822 5.8359 17.5585 5.66583 17.5585 5.45729C17.5585 5.24876 17.3822 5.07869 17.1661 5.07869ZM6.57026 6.21451C6.35411 6.21451 6.17782 6.38459 6.17782 6.59312C6.17782 6.80165 6.35411 6.97173 6.57026 6.97173C6.78641 6.97173 6.9627 6.80165 6.9627 6.59312C6.9627 6.38459 6.78641 6.21451 6.57026 6.21451ZM8.92488 6.21451C8.70874 6.21451 8.53245 6.38459 8.53245 6.59312C8.53245 6.80165 8.70874 6.97173 8.92488 6.97173C9.14103 6.97173 9.31732 6.80165 9.31732 6.59312C9.31732 6.38459 9.14103 6.21451 8.92488 6.21451ZM15.9888 6.21451C15.7726 6.21451 15.5963 6.38459 15.5963 6.59312C15.5963 6.80165 15.7726 6.97173 15.9888 6.97173C16.2049 6.97173 16.3812 6.80165 16.3812 6.59312C16.3812 6.38459 16.2049 6.21451 15.9888 6.21451ZM10.1022 7.35034C9.88605 7.35034 9.70976 7.52042 9.70976 7.72895C9.70976 7.93748 9.88605 8.10756 10.1022 8.10756C10.3183 8.10756 10.4946 7.93748 10.4946 7.72895C10.4946 7.52042 10.3183 7.35034 10.1022 7.35034ZM14.8114 7.35034C14.5953 7.35034 14.419 7.52042 14.419 7.72895C14.419 7.93748 14.5953 8.10756 14.8114 8.10756C15.0276 8.10756 15.2039 7.93748 15.2039 7.72895C15.2039 7.52042 15.0276 7.35034 14.8114 7.35034ZM8.92488 8.48617C8.70874 8.48617 8.53245 8.65625 8.53245 8.86478C8.53245 9.07331 8.70874 9.24339 8.92488 9.24339C9.14103 9.24339 9.31732 9.07331 9.31732 8.86478C9.31732 8.65625 9.14103 8.48617 8.92488 8.48617ZM13.6341 8.48617C13.418 8.48617 13.2417 8.65625 13.2417 8.86478C13.2417 9.07331 13.418 9.24339 13.6341 9.24339C13.8503 9.24339 14.0266 9.07331 14.0266 8.86478C14.0266 8.65625 13.8503 8.48617 13.6341 8.48617ZM12.4568 9.62199C12.2407 9.62199 12.0644 9.79207 12.0644 10.0006C12.0644 10.2091 12.2407 10.3792 12.4568 10.3792C12.673 10.3792 12.8493 10.2091 12.8493 10.0006C12.8493 9.79207 12.673 9.62199 12.4568 9.62199ZM11.2795 10.7578C11.0634 10.7578 10.8871 10.9279 10.8871 11.1364C10.8871 11.345 11.0634 11.515 11.2795 11.515C11.4957 11.515 11.6719 11.345 11.6719 11.1364C11.6719 10.9279 11.4957 10.7578 11.2795 10.7578ZM17.0511 11.626L16.4962 12.1613L22.8901 18.33L19.1283 21.9593L12.7343 15.7907L12.1794 16.326L19.1283 23.0301L24 18.33L17.0511 11.626ZM10.1022 11.8936C9.88605 11.8936 9.70976 12.0637 9.70976 12.2723C9.70976 12.4808 9.88605 12.6509 10.1022 12.6509C10.3183 12.6509 10.4946 12.4808 10.4946 12.2723C10.4946 12.0637 10.3183 11.8936 10.1022 11.8936ZM8.92488 13.0295C8.70874 13.0295 8.53245 13.1996 8.53245 13.4081C8.53245 13.6166 8.70874 13.7867 8.92488 13.7867C9.14103 13.7867 9.31732 13.6166 9.31732 13.4081C9.31732 13.1996 9.14103 13.0295 8.92488 13.0295ZM15.9888 13.1522C15.7726 13.1522 15.5963 13.3208 15.5963 13.5308C15.5963 13.7394 15.7726 13.9094 15.9888 13.9094C16.2049 13.9094 16.3812 13.7394 16.3812 13.5308C16.3812 13.3208 16.2049 13.1522 15.9888 13.1522ZM7.74757 14.1653C7.53143 14.1653 7.35514 14.3354 7.35514 14.5439C7.35514 14.7524 7.53143 14.9225 7.74757 14.9225C7.96372 14.9225 8.14001 14.7524 8.14001 14.5439C8.14001 14.3354 7.96372 14.1653 7.74757 14.1653ZM17.1661 14.1653C16.9499 14.1653 16.7736 14.3354 16.7736 14.5439C16.7736 14.7524 16.9499 14.9225 17.1661 14.9225C17.3822 14.9225 17.5585 14.7524 17.5585 14.5439C17.5585 14.3354 17.3822 14.1653 17.1661 14.1653ZM14.8114 14.2881C14.5953 14.2881 14.419 14.4567 14.419 14.6667C14.419 14.8752 14.5953 15.0453 14.8114 15.0453C15.0276 15.0453 15.2039 14.8752 15.2039 14.6667C15.2039 14.4567 15.0276 14.2881 14.8114 14.2881ZM6.57026 15.3011C6.35411 15.3011 6.17782 15.4712 6.17782 15.6797C6.17782 15.8883 6.35411 16.0583 6.57026 16.0583C6.78641 16.0583 6.9627 15.8883 6.9627 15.6797C6.9627 15.4712 6.78641 15.3011 6.57026 15.3011ZM18.3434 15.4239C18.1272 15.4239 17.9509 15.5925 17.9509 15.8025C17.9509 16.011 18.1272 16.1811 18.3434 16.1811C18.5595 16.1811 18.7358 16.011 18.7358 15.8025C18.7358 15.5925 18.5595 15.4239 18.3434 15.4239ZM5.39295 16.437C5.1768 16.437 5.00051 16.607 5.00051 16.8156C5.00051 17.0241 5.1768 17.1942 5.39295 17.1942C5.6091 17.1942 5.78539 17.0241 5.78539 16.8156C5.78539 16.607 5.6091 16.437 5.39295 16.437ZM19.5207 16.437C19.3045 16.437 19.1283 16.607 19.1283 16.8156C19.1283 17.0241 19.3045 17.1942 19.5207 17.1942C19.7368 17.1942 19.9131 17.0241 19.9131 16.8156C19.9131 16.607 19.7368 16.437 19.5207 16.437ZM17.1661 16.5597C16.9499 16.5597 16.7736 16.7283 16.7736 16.9383C16.7736 17.1468 16.9499 17.3169 17.1661 17.3169C17.3822 17.3169 17.5585 17.1468 17.5585 16.9383C17.5585 16.7283 17.3822 16.5597 17.1661 16.5597ZM20.698 17.6955C20.4819 17.6955 20.3056 17.8641 20.3056 18.0741C20.3056 18.2827 20.4819 18.4528 20.698 18.4528C20.9142 18.4528 21.0904 18.2827 21.0904 18.0741C21.0904 17.8641 20.9142 17.6955 20.698 17.6955ZM2.90496 17.9765C2.94175 17.9825 2.96934 17.9839 3.01073 17.9913C3.21615 18.0313 3.44149 18.1185 3.54573 18.2191C3.64997 18.3197 3.74042 18.5371 3.78181 18.7352C3.8232 18.9334 3.8232 19.0872 3.8232 19.0872V19.4658H4.21564C4.21564 19.4658 4.37506 19.4658 4.58048 19.5058C4.7859 19.5457 5.01124 19.6329 5.11548 19.7335C5.21972 19.8341 5.31017 20.0515 5.35156 20.2497C5.35922 20.2896 5.36076 20.3162 5.36689 20.3517L2.64742 21.3604L1.85948 20.6002L2.90496 17.9765ZM19.5207 18.8314C19.3045 18.8314 19.1283 19 19.1283 19.21C19.1283 19.4185 19.3045 19.5886 19.5207 19.5886C19.7368 19.5886 19.9131 19.4185 19.9131 19.21C19.9131 19 19.7368 18.8314 19.5207 18.8314Z" fill="#5B5B5B"/>
</svg>
