<svg width="24" height="24" viewBox="0 0 24 24" fill="none" xmlns="http://www.w3.org/2000/svg">
<path d="M11.9993 0C9.31404 0 6.92677 1.62797 5.99262 4.01824C5.98257 4.03439 5.96918 4.04731 5.96081 4.06507C5.94574 4.10868 5.9357 4.15229 5.91896 4.19428C5.07186 4.06669 4.23816 4.14744 3.43961 4.43815C1.33861 5.20045 -0.0425266 7.11428 0.000999898 9.19931C0.0495492 11.525 1.79899 13.4727 4.07744 13.9443C4.08749 13.9475 4.09753 13.954 4.10925 13.9572C4.12934 13.9621 4.1511 13.9621 4.17287 13.9669C4.2482 13.9799 4.32689 13.9895 4.40389 13.9992C4.48593 14.0122 4.56796 14.0267 4.65166 14.0331C4.65836 14.0348 4.66673 14.0364 4.6751 14.038L3.94352 21.8015C3.91171 22.1471 4.03224 22.4928 4.27331 22.7496C4.51773 23.0064 4.8626 23.1533 5.22253 23.1533H18.7761C19.136 23.1533 19.4809 23.0064 19.7253 22.7496C19.968 22.4928 20.0869 22.1471 20.0551 21.8015L19.3235 14.0364C19.3302 14.0348 19.3386 14.0348 19.3453 14.0331C19.4976 14.0202 19.6483 13.9992 19.7973 13.9734C19.8023 13.9718 19.8073 13.9702 19.8123 13.9685C20.0869 13.9201 20.3581 13.849 20.6243 13.7554C20.6343 13.7521 20.6427 13.7441 20.6528 13.7392C22.5713 13.0399 23.9625 11.2617 23.9993 9.18155C24.0361 7.09975 22.6516 5.19238 20.554 4.43492C19.7554 4.14744 18.9234 4.0683 18.0763 4.19428C17.194 1.70711 14.7499 0 11.9993 0ZM11.9993 0.826904C14.4987 0.826904 16.7069 2.45326 17.3682 4.78054C17.4284 4.99534 17.6528 5.12455 17.8788 5.07448C18.7058 4.88713 19.4825 4.93074 20.2543 5.20853C22.0389 5.85455 23.1723 7.40822 23.1421 9.16701C23.1103 10.9533 21.8815 12.4698 20.2091 13.0124C20.0986 13.048 19.9898 13.0787 19.876 13.1061C19.8274 13.1174 19.7789 13.132 19.7286 13.1416C19.5596 13.1756 19.3871 13.1982 19.213 13.2127C19.1745 13.2159 19.136 13.2175 19.0958 13.2192C18.7275 13.2385 18.3559 13.2175 17.9926 13.1465C17.7599 13.1013 17.5339 13.2466 17.487 13.4695C17.4401 13.6924 17.5891 13.912 17.8218 13.9572C18.0328 13.9992 18.2471 14.0218 18.463 14.038L19.2013 21.8758C19.213 21.9921 19.1745 22.1052 19.0908 22.1908C19.0088 22.2796 18.8966 22.3264 18.7761 22.3264H5.22253C5.102 22.3264 4.98983 22.2796 4.9078 22.1908C4.82409 22.1052 4.78559 21.9921 4.79731 21.8758L5.06684 19.0188H14.1422C14.3782 19.0188 14.5707 18.8347 14.5707 18.6053C14.5707 18.376 14.3782 18.1919 14.1422 18.1919H5.14385L5.53559 14.0412C6.00601 14.0073 6.46639 13.912 6.91003 13.7554C7.13101 13.6778 7.24652 13.4404 7.16449 13.2256C7.08246 13.0108 6.83637 12.901 6.61539 12.9785C6.08637 13.1659 5.51717 13.245 4.95133 13.2208C4.90445 13.2192 4.8559 13.2175 4.80903 13.2143C4.65166 13.203 4.49597 13.182 4.34195 13.1546C2.39999 12.7944 0.89832 11.1503 0.856467 9.18155C0.819637 7.41953 1.95133 5.86262 3.74095 5.21176C4.20133 5.04379 4.66505 4.96143 5.1405 4.96143C5.32298 4.96143 5.5088 4.97596 5.69463 5.00019C5.61595 5.39426 5.57074 5.79479 5.57074 6.20178C5.57074 6.35037 5.57577 6.49895 5.58581 6.64592C5.60255 6.86234 5.79173 7.02869 6.01438 7.02869C6.02443 7.02869 6.03447 7.02869 6.04619 7.02869C6.28224 7.01254 6.45802 6.81389 6.44128 6.58778C6.43291 6.46019 6.42789 6.33099 6.42789 6.20178C6.42789 5.72696 6.4915 5.26021 6.61706 4.808C6.62041 4.79831 6.62878 4.79023 6.63045 4.78054C7.2934 2.45326 9.49987 0.826904 11.9993 0.826904ZM12.5333 2.09956C12.2973 2.06726 12.0847 2.232 12.0545 2.4581C12.0261 2.68582 12.1935 2.89094 12.4279 2.92001C12.982 2.98622 13.516 3.18487 13.9731 3.49658C14.0484 3.54664 14.1338 3.57248 14.2208 3.57248C14.3548 3.57248 14.487 3.51111 14.5707 3.39806C14.7063 3.21071 14.6611 2.95231 14.4686 2.82149C13.8961 2.43226 13.2264 2.18193 12.5333 2.09956ZM15.8564 18.1919C15.6204 18.1919 15.4279 18.376 15.4279 18.6053C15.4279 18.8347 15.6204 19.0188 15.8564 19.0188H17.5707C17.8068 19.0188 17.9993 18.8347 17.9993 18.6053C17.9993 18.376 17.8068 18.1919 17.5707 18.1919H15.8564ZM6.42789 19.8457C6.19184 19.8457 5.99932 20.0298 5.99932 20.2592V21.0861C5.99932 21.3154 6.19184 21.4995 6.42789 21.4995C6.66393 21.4995 6.85646 21.3154 6.85646 21.0861V20.2592C6.85646 20.0298 6.66393 19.8457 6.42789 19.8457ZM8.57074 19.8457C8.33469 19.8457 8.14217 20.0298 8.14217 20.2592V21.0861C8.14217 21.3154 8.33469 21.4995 8.57074 21.4995C8.80679 21.4995 8.99931 21.3154 8.99931 21.0861V20.2592C8.99931 20.0298 8.80679 19.8457 8.57074 19.8457ZM10.7136 19.8457C10.4775 19.8457 10.285 20.0298 10.285 20.2592V21.0861C10.285 21.3154 10.4775 21.4995 10.7136 21.4995C10.9496 21.4995 11.1422 21.3154 11.1422 21.0861V20.2592C11.1422 20.0298 10.9496 19.8457 10.7136 19.8457ZM13.285 19.8457C13.049 19.8457 12.8564 20.0298 12.8564 20.2592V21.0861C12.8564 21.3154 13.049 21.4995 13.285 21.4995C13.5211 21.4995 13.7136 21.3154 13.7136 21.0861V20.2592C13.7136 20.0298 13.5211 19.8457 13.285 19.8457ZM15.4279 19.8457C15.1918 19.8457 14.9993 20.0298 14.9993 20.2592V21.0861C14.9993 21.3154 15.1918 21.4995 15.4279 21.4995C15.6639 21.4995 15.8564 21.3154 15.8564 21.0861V20.2592C15.8564 20.0298 15.6639 19.8457 15.4279 19.8457ZM17.5707 19.8457C17.3347 19.8457 17.1422 20.0298 17.1422 20.2592V21.0861C17.1422 21.3154 17.3347 21.4995 17.5707 21.4995C17.8068 21.4995 17.9993 21.3154 17.9993 21.0861V20.2592C17.9993 20.0298 17.8068 19.8457 17.5707 19.8457Z" fill="#5B5B5B"/>
</svg>
