<svg width="24" height="24" viewBox="0 0 24 24" fill="none" xmlns="http://www.w3.org/2000/svg">
<path d="M7.74194 0C6.46119 0 5.41935 1.07436 5.41935 2.3951C5.41935 3.71583 6.46119 4.79019 7.74194 4.79019C9.02268 4.79019 10.0645 3.71583 10.0645 2.3951C10.0645 1.07436 9.02268 0 7.74194 0ZM16.2581 0C14.9773 0 13.9355 1.07436 13.9355 2.3951C13.9355 3.71583 14.9773 4.79019 16.2581 4.79019C17.5388 4.79019 18.5806 3.71583 18.5806 2.3951C18.5806 1.07436 17.5388 0 16.2581 0ZM7.74194 0.798365C8.59627 0.798365 9.29032 1.51409 9.29032 2.3951C9.29032 3.2761 8.59627 3.99183 7.74194 3.99183C6.8876 3.99183 6.19355 3.2761 6.19355 2.3951C6.19355 1.51409 6.8876 0.798365 7.74194 0.798365ZM16.2581 0.798365C17.1124 0.798365 17.8065 1.51409 17.8065 2.3951C17.8065 3.2761 17.1124 3.99183 16.2581 3.99183C15.4037 3.99183 14.7097 3.2761 14.7097 2.3951C14.7097 1.51409 15.4037 0.798365 16.2581 0.798365ZM6.48387 5.18937C5.44657 5.18937 4.48185 5.7211 3.90575 6.61146C3.375 7.42854 3.09677 8.38283 3.09677 9.3652V13.4568C3.09677 14.2271 3.70464 14.854 4.45161 14.854C4.64214 14.854 4.82208 14.8087 4.98538 14.737L4.6996 21.4857C4.67994 21.9254 4.83266 22.3417 5.12752 22.6598C5.42238 22.9779 5.81855 23.1526 6.24798 23.1526C6.96018 23.1526 7.562 22.6583 7.74194 21.9784C7.92188 22.6583 8.52369 23.1526 9.2374 23.1526C9.68649 23.1526 10.0902 22.9561 10.3805 22.6427C10.63 22.9514 11.0005 23.1526 11.4194 23.1526C11.7989 23.1526 12.1391 22.992 12.3871 22.7331C12.6351 22.992 12.9753 23.1526 13.3548 23.1526C13.6845 23.1526 13.9899 23.0278 14.2213 22.8283C14.4269 23.0325 14.7097 23.1526 15.0121 23.1526C15.3478 23.1526 15.6547 23.0169 15.8755 22.7971C16.0948 23.0169 16.4017 23.1526 16.7298 23.1526C17.3196 23.1526 17.814 22.6973 17.8836 22.0907L18.4536 16.7657H19.4561C19.6799 16.7657 19.8931 16.6659 20.0398 16.4943C20.1865 16.3181 20.253 16.0874 20.2258 15.8597L20.0761 14.7261C20.8926 14.4174 21.3962 13.5613 21.2707 12.6662L20.6628 8.27524C20.4194 6.51478 18.9375 5.18937 17.2137 5.18937H15.6184C14.253 5.18937 13.0343 6.0236 12.4763 7.24922C12.3841 7.23362 12.2903 7.22427 12.1935 7.22427C12.0499 7.22427 11.9078 7.24142 11.7717 7.26949L11.5585 6.86563C11.0202 5.83181 9.9753 5.18937 8.83367 5.18937H6.48387ZM6.48387 5.98774H8.83367C9.68952 5.98774 10.4743 6.47112 10.8765 7.2461L11.0519 7.57667C10.4788 7.96026 10.1023 8.62609 10.1023 9.38079C10.1023 10.5705 11.0398 11.5373 12.1935 11.5373C13.3473 11.5373 14.2848 10.5705 14.2848 9.38079C14.2848 8.57463 13.8538 7.87138 13.2157 7.50027C13.6694 6.59743 14.5902 5.98774 15.6184 5.98774H17.2137C18.5534 5.98774 19.7072 7.01688 19.8977 8.38751L20.504 12.7785C20.5675 13.2401 20.3468 13.6798 19.9672 13.9028L19.2278 8.28304C19.2006 8.06318 19.0071 7.91192 18.7938 7.93999C18.5806 7.97118 18.434 8.17077 18.4597 8.39063L19.4561 15.9673H15.4839V14.3706C15.4839 12.83 14.2681 11.5763 12.7742 11.5763H12C10.506 11.5763 9.29032 12.83 9.29032 14.3706V17.1649C9.29032 17.6841 9.61542 18.1316 10.0645 18.2938V21.4639C10.0645 21.955 9.69405 22.3542 9.23589 22.3542C8.82157 22.3542 8.48286 22.0205 8.46169 21.5933L8.12903 14.8337C8.11845 14.6216 7.94758 14.4563 7.74194 14.4563C7.53478 14.4563 7.36542 14.6216 7.35484 14.8337L7.02067 21.5933C7.00101 22.0205 6.66079 22.3542 6.24647 22.3542C6.03175 22.3542 5.83367 22.2669 5.68548 22.1079C5.53881 21.9488 5.46321 21.7399 5.47228 21.52L5.80645 13.658V8.63232C5.80645 8.41246 5.63256 8.23314 5.41935 8.23314C5.20615 8.23314 5.03226 8.41246 5.03226 8.63232V13.4568C5.03226 13.7874 4.77218 14.0556 4.45161 14.0556C4.13105 14.0556 3.87097 13.7874 3.87097 13.4568V9.3652C3.87097 8.54344 4.10685 7.7404 4.54839 7.0543C4.98236 6.38692 5.70514 5.98774 6.48387 5.98774ZM12.1935 7.94467C12.2056 7.94467 12.2208 7.94311 12.2314 7.94779C12.5035 7.95247 12.7591 8.03979 12.9723 8.19104C13.3427 8.44988 13.5862 8.88649 13.5862 9.38079C13.5862 10.1714 12.9602 10.8169 12.1935 10.8169C11.4269 10.8169 10.8009 10.1714 10.8009 9.38079C10.8009 8.92235 11.0126 8.5107 11.3422 8.24717C11.5433 8.07877 11.7944 7.97585 12.062 7.95247C12.1043 7.94779 12.1512 7.94467 12.1935 7.94467ZM0.387097 11.1771C0.173891 11.1771 0 11.3564 0 11.5763V12.3747C0 12.5945 0.173891 12.7738 0.387097 12.7738C0.600302 12.7738 0.774194 12.5945 0.774194 12.3747V11.5763C0.774194 11.3564 0.600302 11.1771 0.387097 11.1771ZM2.32258 11.1771C2.10938 11.1771 1.93548 11.3564 1.93548 11.5763V12.3747C1.93548 12.5945 2.10938 12.7738 2.32258 12.7738C2.53579 12.7738 2.70968 12.5945 2.70968 12.3747V11.5763C2.70968 11.3564 2.53579 11.1771 2.32258 11.1771ZM21.6774 11.1771C21.4642 11.1771 21.2903 11.3564 21.2903 11.5763V12.3747C21.2903 12.5945 21.4642 12.7738 21.6774 12.7738C21.8906 12.7738 22.0645 12.5945 22.0645 12.3747V11.5763C22.0645 11.3564 21.8906 11.1771 21.6774 11.1771ZM23.6129 11.1771C23.3997 11.1771 23.2258 11.3564 23.2258 11.5763V12.3747C23.2258 12.5945 23.3997 12.7738 23.6129 12.7738C23.8261 12.7738 24 12.5945 24 12.3747V11.5763C24 11.3564 23.8261 11.1771 23.6129 11.1771ZM12 12.3747H12.7742C13.8432 12.3747 14.7097 13.2681 14.7097 14.3706V17.1649C14.7097 17.3847 14.5358 17.564 14.3226 17.564C14.2651 17.564 14.2061 17.5796 14.1562 17.603C14.0247 17.6669 13.9355 17.8042 13.9355 17.9632V21.7554C13.9355 21.8677 13.9083 21.9675 13.8538 22.0548C13.7571 22.2342 13.568 22.3542 13.3548 22.3542C13.0343 22.3542 12.7742 22.086 12.7742 21.7554V18.3624C12.7742 18.1425 12.6003 17.9632 12.3871 17.9632C12.1739 17.9632 12 18.1425 12 18.3624V21.7554C12 22.086 11.7399 22.3542 11.4194 22.3542C11.0988 22.3542 10.8387 22.086 10.8387 21.7554V17.9632C10.8387 17.7434 10.6648 17.564 10.4516 17.564C10.2384 17.564 10.0645 17.3847 10.0645 17.1649V14.3706C10.0645 13.2681 10.9309 12.3747 12 12.3747ZM16.2581 16.7657H17.6749L17.1139 22.0034C17.0943 22.203 16.9279 22.3542 16.7298 22.3542C16.4713 22.3542 16.2581 22.1344 16.2581 21.8677V16.7657ZM15.4839 17.1649V21.8677C15.4839 22.1344 15.2707 22.3542 15.0121 22.3542C14.8563 22.3542 14.7203 22.2591 14.6598 22.1234C14.6946 22.0065 14.7097 21.8833 14.7097 21.7554V18.2938C15.1588 18.1316 15.4839 17.6841 15.4839 17.1649Z" fill="#5B5B5B"/>
</svg>
